<svg width="96" height="115" viewBox="0 0 96 115" fill="none" xmlns="http://www.w3.org/2000/svg">
<path d="M19.7475 92H42.6675V7.39999H25.7475L1.1475 14.36L5.5875 32.36L19.7475 29.12V92Z" fill="#F2F3F5"/>
<path fill-rule="evenodd" clip-rule="evenodd" d="M35.9082 49.1722C35.9082 35.4925 46.9984 24.4023 60.6781 24.4023C74.3517 24.4181 85.4322 35.4986 85.448 49.1722C85.448 62.8525 74.3584 73.9421 60.6781 73.9421C46.9984 73.9421 35.9082 62.8525 35.9082 49.1722ZM38.3852 49.1722C38.3852 61.4846 48.3663 71.4651 60.6781 71.4651C72.9844 71.4506 82.9571 61.4785 82.971 49.1722C82.971 36.8605 72.9904 26.8793 60.6781 26.8793C48.3663 26.8793 38.3852 36.8605 38.3852 49.1722Z" fill="#3A6EF4"/>
<path fill-rule="evenodd" clip-rule="evenodd" d="M61.9174 34.3101V45.6845C63.5477 46.2572 64.5661 47.8809 64.372 49.5983C64.1779 51.3158 62.8227 52.671 61.1052 52.8651C59.3878 53.0592 57.7641 52.0408 57.1914 50.4105H48.2939V47.9335H57.1914C57.5663 46.8849 58.3918 46.0594 59.4404 45.6845V34.3101H61.9174ZM59.4404 49.172C59.4404 49.8559 59.9949 50.4105 60.6789 50.4105C61.3628 50.4105 61.9174 49.8559 61.9174 49.172C61.9174 48.488 61.3628 47.9335 60.6789 47.9335C59.9949 47.9335 59.4404 48.488 59.4404 49.172Z" fill="#3A6EF4"/>
<path d="M40.8623 47.9336H43.3393V50.4106H40.8623V47.9336Z" fill="#3A6EF4"/>
<path d="M59.4404 66.5112H61.9174V68.9882H59.4404V66.5112Z" fill="#3A6EF4"/>
<path d="M78.0176 47.9336H80.4946V50.4106H78.0176V47.9336Z" fill="#3A6EF4"/>
<path d="M59.4404 29.3564H61.9174V31.8334H59.4404V29.3564Z" fill="#3A6EF4"/>
<path d="M92.8793 49.1722C92.8824 66.5982 79.0225 80.8645 61.6037 81.3652C44.185 81.8659 29.5287 68.419 28.5309 51.0215C27.5325 33.6245 40.5554 18.5896 57.9167 17.0953L54.9529 20.6276L56.8505 22.2192L61.6273 16.522C62.067 15.9977 61.9992 15.2164 61.4749 14.7768L55.7777 10L54.1903 11.9049L57.4583 14.6492C38.8053 16.389 24.9061 32.6291 26.0678 51.3275C27.2289 70.0258 43.0318 84.4209 61.7567 83.8385C80.4817 83.2562 95.3594 67.9068 95.3563 49.1722H92.8793Z" fill="#3A6EF4"/>
<path d="M92.1972 42.5516L94.6222 42.0448C94.4474 41.2103 94.2394 40.3728 94.0029 39.5527L91.6221 40.2379C91.8416 40.998 92.0345 41.7775 92.1972 42.5516Z" fill="#3A6EF4"/>
<path d="M90.8783 37.9735L93.2017 37.113C92.9053 36.3153 92.5824 35.5177 92.2208 34.7412L89.9688 35.7729C90.2983 36.4937 90.6055 37.2327 90.8783 37.9735Z" fill="#3A6EF4"/>
<path d="M88.8975 33.6451L91.0661 32.4489C90.6537 31.7057 90.2092 30.9625 89.7448 30.2495L87.6699 31.6017C88.1011 32.2633 88.5147 32.9478 88.8975 33.6451Z" fill="#3A6EF4"/>
<path d="M92.8244 47.2763L95.3014 47.13C95.2506 46.2767 95.169 45.4174 95.0541 44.5762L92.5977 44.9021C92.7005 45.6834 92.7761 46.4823 92.8244 47.2763Z" fill="#3A6EF4"/>
<path d="M86.2941 29.6565L88.2631 28.1531C87.7455 27.4752 87.197 26.8088 86.6322 26.1714L84.7744 27.8144C85.3048 28.4077 85.82 29.0269 86.2941 29.6565Z" fill="#3A6EF4"/>
<path d="M76.552 18.3336C75.7967 17.9435 75.0142 17.5759 74.2262 17.2402L73.2568 19.5201C73.9886 19.8309 74.7142 20.1726 75.4163 20.5342L76.552 18.3336Z" fill="#3A6EF4"/>
<path d="M71.8245 16.3262C71.0184 16.0516 70.1899 15.8049 69.3614 15.5908L68.7422 17.9886C69.5102 18.1863 70.2788 18.4167 71.0269 18.6707L71.8245 16.3262Z" fill="#3A6EF4"/>
<path d="M84.8585 24.3159C84.2471 23.7203 83.6055 23.1415 82.9524 22.5942L81.3613 24.4919C81.9679 25.0005 82.5635 25.5381 83.1308 26.0908L84.8585 24.3159Z" fill="#3A6EF4"/>
<path d="M66.855 15.0418C66.0186 14.8912 65.1629 14.7697 64.3121 14.6802L64.0557 17.1451C64.8461 17.2267 65.6401 17.3392 66.4087 17.4795L66.855 15.0418Z" fill="#3A6EF4"/>
<path d="M80.9272 21.0174C80.2336 20.5222 79.5139 20.0402 78.7895 19.5957L77.4941 21.7014C78.1678 22.115 78.8354 22.5595 79.4759 23.0239L80.9272 21.0174Z" fill="#3A6EF4"/>
</svg>
