<svg width="114" height="115" viewBox="0 0 114 115" fill="none" xmlns="http://www.w3.org/2000/svg">
<path d="M4.01859 92H70.4986V73.04H35.8186L50.2186 62.96C62.8186 54.08 69.6586 47 69.6586 33.56C69.6586 17.48 57.0586 6.56 38.6986 6.56C22.3786 6.56 13.4986 12.92 4.49859 24.56L20.2186 37.64C26.8186 30.08 31.2586 26.84 36.8986 26.84C42.5386 26.84 46.2586 30.08 46.2586 35.36C46.2586 40.4 43.3786 44.48 35.4586 50.48L4.01859 74.48V92Z" fill="#F2F3F5"/>
<path fill-rule="evenodd" clip-rule="evenodd" d="M67.1758 20.8398C75.5437 20.8398 82.3516 27.6477 82.3516 36.0156C82.3516 44.3836 75.5437 51.1914 67.1758 51.1914C58.8079 51.1914 52 44.3836 52 36.0156C52 27.6477 58.8079 20.8398 67.1758 20.8398ZM59.3835 46.4248C61.5568 48.0559 64.2554 49.0234 67.1758 49.0234C73.6096 49.0234 78.9666 44.3278 80.0018 38.1836H67.6247L59.3835 46.4248ZM80.1836 36.0156H68.2598V23.0533C74.9268 23.606 80.1836 29.2082 80.1836 36.0156ZM66.0918 23.0533C59.4246 23.606 54.168 29.2082 54.168 36.0156C54.168 39.488 55.5355 42.6469 57.7604 44.9819L66.0918 36.6506V23.0533Z" fill="#3A6EF4"/>
<path d="M66.0918 10V18.6719H68.2598V12.168H111.619V81.814H68.2598V53.3594H66.0918V83.9819H113.787V10H66.0918Z" fill="#3A6EF4"/>
<rect x="73.6797" y="16.5039" width="11.9238" height="2.16797" fill="#3A6EF4"/>
<rect x="107.283" y="16.5039" width="2.16797" height="2.16797" fill="#3A6EF4"/>
<rect x="102.947" y="16.5039" width="2.16797" height="2.16797" fill="#3A6EF4"/>
<rect x="98.6113" y="16.5039" width="2.16797" height="2.16797" fill="#3A6EF4"/>
<rect x="86.6875" y="24.0918" width="8.67188" height="2.16797" fill="#3A6EF4"/>
<rect x="88.8555" y="28.4277" width="13.0078" height="2.16797" fill="#3A6EF4"/>
<rect x="88.8555" y="32.7637" width="3.25195" height="2.16797" fill="#3A6EF4"/>
<path d="M84.519 52.2754V53.3594H83.1641V55.5273H109.451V53.3594H108.367V41.4355H106.199V53.3594H104.031V43.6035H101.863V53.3594H99.6948V45.7715H97.5269V53.3594H95.3589V47.9395H93.1909V53.3594H91.0229V50.1074H88.855V53.3594H86.687V52.2754H84.519Z" fill="#3A6EF4"/>
<rect x="88.8555" y="37.0996" width="7.58789" height="2.16797" fill="#3A6EF4"/>
<rect x="87.7715" y="41.4355" width="3.25195" height="2.16797" fill="#3A6EF4"/>
<rect x="72.5957" y="62.0312" width="2.16797" height="2.16797" fill="#3A6EF4"/>
<rect x="76.9316" y="62.0312" width="28.1836" height="2.16797" fill="#3A6EF4"/>
<rect x="72.5957" y="66.3672" width="2.16797" height="2.16797" fill="#3A6EF4"/>
<rect x="76.9316" y="66.3672" width="28.1836" height="2.16797" fill="#3A6EF4"/>
<rect x="72.5957" y="70.7031" width="2.16797" height="2.16797" fill="#3A6EF4"/>
<rect x="76.9316" y="70.7031" width="28.1836" height="2.16797" fill="#3A6EF4"/>
<rect x="106.199" y="77.207" width="2.16797" height="2.16797" fill="#3A6EF4"/>
<rect x="101.863" y="77.207" width="2.16797" height="2.16797" fill="#3A6EF4"/>
<rect x="97.5273" y="77.207" width="2.16797" height="2.16797" fill="#3A6EF4"/>
</svg>
