<svg width="48" height="48" viewBox="0 0 48 48" fill="none" xmlns="http://www.w3.org/2000/svg">
<path fill-rule="evenodd" clip-rule="evenodd" d="M44.9196 16.9883C44.1303 16.9883 43.3883 17.2956 42.8293 17.8539L38.61 22.074V12.2804C39.1026 13.285 39.3822 14.3838 39.3822 15.4442H40.9266C40.9266 12.6997 43.6943 8.49438 47.1042 8.49438V6.94995C43.3513 6.94995 40.9266 4.52449 40.9266 0.772378H39.3822C39.3822 1.88124 39.1018 2.9113 38.61 3.80173V2.31681C38.61 1.03946 37.5707 0 36.2935 0H2.31665C1.0393 0 0 1.03946 0 2.31665V45.5599C0 46.8371 1.03946 47.8766 2.31665 47.8766H36.2935C37.5707 47.8766 38.6102 46.8371 38.6102 45.5599V30.4356L47.0102 22.0348C47.5691 21.4772 47.8764 20.7352 47.8764 19.9443C47.8764 18.3149 46.5506 16.9883 44.9196 16.9883ZM40.0978 4.30816C40.8438 5.96303 42.1411 7.20778 43.8399 7.89422C42.2569 8.84708 41.0004 10.4085 40.2306 12.0433C39.4584 10.2156 38.1016 8.69189 36.4584 7.80081C38.04 7.08341 39.3196 5.85243 40.0978 4.30816ZM37.0656 45.5598H37.0657V31.98L29.0124 40.0341L21.6958 43.17L24.8317 35.8526L24.9368 35.7475L25.163 35.5213H20.8495V30.1159H26.2549V34.4295L37.0657 23.6186V10.1514C36.024 9.1513 34.6949 8.49422 33.2046 8.49422V6.94978C34.6789 6.94978 36.0148 6.45486 37.0657 5.62314V2.31665C37.0657 1.89032 36.719 1.54443 36.2935 1.54443H2.31665C1.89114 1.54443 1.54443 1.89032 1.54443 2.31665V45.5598C1.54443 45.9861 1.89114 46.332 2.31665 46.332H36.2934C36.7189 46.332 37.0656 45.9861 37.0656 45.5598ZM27.2186 39.1213L24.6363 40.2279L25.7429 37.6456L27.2186 39.1213ZM24.7103 33.9769V31.6602H22.3936V33.9769H24.7103ZM28.5714 38.2904L26.5745 36.2935L40.1544 22.7136L42.1513 24.7104L28.5714 38.2904ZM43.2431 23.6186L45.918 20.9429C46.1814 20.6796 46.3318 20.3166 46.332 19.9446C46.332 19.1663 45.6988 18.533 44.9196 18.533C44.5427 18.533 44.1884 18.6796 43.9211 18.9469L41.2463 21.6217L43.2431 23.6186Z" fill="#3A6EF4"/>
<path fill-rule="evenodd" clip-rule="evenodd" d="M14.6717 10.0386C14.6717 12.5938 12.5938 14.6717 10.0386 14.6717C7.48338 14.6717 5.40527 12.5938 5.40527 10.0386C5.40527 7.48338 7.48338 5.40527 10.0386 5.40527C12.5938 5.40527 14.6717 7.48338 14.6717 10.0386ZM13.1274 10.0386C13.1274 8.33506 11.7421 6.94971 10.0386 6.94971C8.33506 6.94971 6.94954 8.33506 6.94954 10.0386C6.94954 11.7421 8.33506 13.1273 10.0386 13.1273C11.7421 13.1273 13.1274 11.7421 13.1274 10.0386Z" fill="#3A6EF4"/>
<rect x="6.17773" y="16.2163" width="6.17757" height="1.54443" fill="#3A6EF4"/>
<path fill-rule="evenodd" clip-rule="evenodd" d="M6.94922 22.3938H12.3546V27.7991H6.94922V22.3938ZM8.49365 26.2549H10.8103V23.9382H8.49365V26.2549Z" fill="#3A6EF4"/>
<path fill-rule="evenodd" clip-rule="evenodd" d="M12.3546 35.5213H6.94922V30.116H12.3546V35.5213ZM10.8103 31.6602H8.49365V33.9769H10.8103V31.6602Z" fill="#3A6EF4"/>
<path fill-rule="evenodd" clip-rule="evenodd" d="M20.8496 22.394H26.255V27.7994H20.8496V22.394ZM22.394 26.255H24.7107V23.9383H22.394V26.255Z" fill="#3A6EF4"/>
<rect x="20.0771" y="7.72192" width="10.8109" height="1.54443" fill="#3A6EF4"/>
<rect x="20.0771" y="12.3552" width="13.8996" height="1.54443" fill="#3A6EF4"/>
<rect x="20.0771" y="16.9885" width="13.8996" height="1.54443" fill="#3A6EF4"/>
<rect x="13.8994" y="23.166" width="3.86108" height="1.54443" fill="#3A6EF4"/>
<rect x="13.8994" y="26.2549" width="3.86108" height="1.54443" fill="#3A6EF4"/>
<rect x="27.7988" y="23.166" width="3.86108" height="1.54443" fill="#3A6EF4"/>
<rect x="27.7988" y="26.2549" width="3.86108" height="1.54443" fill="#3A6EF4"/>
<rect x="13.8994" y="32.4324" width="3.86108" height="1.54443" fill="#3A6EF4"/>
<rect x="6.94922" y="38.6101" width="13.8996" height="1.54443" fill="#3A6EF4"/>
<rect x="6.94922" y="41.699" width="13.8996" height="1.54443" fill="#3A6EF4"/>
<rect x="13.8994" y="16.2163" width="1.54443" height="1.54443" fill="#3A6EF4"/>
<rect x="33.9766" y="43.2434" width="1.54443" height="1.54443" fill="#3A6EF4"/>
<rect x="30.8877" y="43.2434" width="1.54443" height="1.54443" fill="#3A6EF4"/>
<rect x="3.08887" y="43.2434" width="1.54443" height="1.54443" fill="#3A6EF4"/>
</svg>
