<?xml version="1.0" encoding="UTF-8"?>
<!DOCTYPE svg PUBLIC "-//W3C//DTD SVG 1.1//EN" "http://www.w3.org/Graphics/SVG/1.1/DTD/svg11.dtd">
<!-- Creator: CorelDRAW X7 -->
<svg xmlns="http://www.w3.org/2000/svg" xml:space="preserve" width="37.4849mm" height="37.813mm" version="1.1" style="shape-rendering:geometricPrecision; text-rendering:geometricPrecision; image-rendering:optimizeQuality; fill-rule:evenodd; clip-rule:evenodd"
viewBox="0 0 8092 8163"
 xmlns:xlink="http://www.w3.org/1999/xlink"
 xmlns:cc="http://creativecommons.org/ns#"
 xmlns:dc="http://purl.org/dc/elements/1.1/"
 xmlns:inkscape="http://www.inkscape.org/namespaces/inkscape"
 xmlns:rdf="http://www.w3.org/1999/02/22-rdf-syntax-ns#"
 xmlns:sodipodi="http://sodipodi.sourceforge.net/DTD/sodipodi-0.dtd"
 xmlns:svg="http://www.w3.org/2000/svg">
 <defs>
  <style type="text/css">
   <![CDATA[
    .fil0 {fill:gray}
    .fil1 {fill:#FEFEFE}
   ]]>
  </style>
 </defs>
 <g id="Слой_x0020_1">
  <metadata id="CorelCorpID_0Corel-Layer"/>
  <rect class="fil0" width="8092" height="8163" rx="677" ry="833"/>
  <g id="_767195632">
   <g id="_727996992">
    <script id="script3301" xlink:href=""/>
    <script id="script3299" xlink:href=""/>
    <g id="g3356">
     <path id="path3358" class="fil1" d="M174 7251l0 -6294c0,-385 318,-702 703,-702l6294 0c394,0 702,317 702,702l0 6294c0,395 -308,703 -702,703l-6294 0c-385,0 -703,-308 -703,-703zm7459 0l0 -6294c0,-250 -202,-462 -462,-462l-6294 0c-250,0 -462,212 -462,462l0 6294c0,260 212,462 462,462l6294 0c260,0 462,-202 462,-462z"/>
     <path id="path3360" class="fil1" d="M1377 5827l0 -3445c0,-510 414,-924 924,-924l3445 0c510,0 934,414 934,924l0 3445c0,510 -424,924 -934,924l-3445 0c-510,0 -924,-414 -924,-924zm5062 0l0 -3445c0,-376 -308,-684 -693,-684l-3445 0c-10,0 -29,0 -38,0l77 0 0 1444 -241 0 0 -1415c-279,87 -481,347 -481,655l0 760 4812 0 0 241 -4812 0 0 2444c0,375 308,683 683,683l3445 0c385,0 693,-308 693,-683l0 0zm-3618 -1001c0,-664 539,-1203 1203,-1203 664,0 1203,539 1203,1203 0,664 -539,1203 -1203,1203 -664,0 -1203,-539 -1203,-1203zm2165 0c0,-529 -433,-962 -962,-962 -530,0 -963,433 -963,962 0,539 433,963 963,963 529,0 962,-424 962,-963zm-1684 0c0,-394 327,-722 722,-722 404,0 722,328 722,722 0,404 -318,722 -722,722 -395,0 -722,-318 -722,-722zm1203 0c0,-260 -212,-481 -481,-481 -260,0 -481,221 -481,481 0,270 221,481 481,481 269,0 481,-211 481,-481zm-1925 -1684l0 -1444 241 0 0 1444 -241 0zm481 0l0 -1444 241 0 0 1444 -241 0zm1925 -722c0,-260 221,-481 481,-481 270,0 482,221 482,481 0,270 -212,481 -482,481 -260,0 -481,-211 -481,-481zm722 0c0,-135 -106,-240 -241,-240 -125,0 -240,105 -240,240 0,135 115,241 240,241 135,0 241,-106 241,-241z"/>
    </g>
   </g>
  </g>
 </g>
</svg>
