<?xml version="1.0" encoding="UTF-8"?>
<!DOCTYPE svg PUBLIC "-//W3C//DTD SVG 1.1//EN" "http://www.w3.org/Graphics/SVG/1.1/DTD/svg11.dtd">
<!-- Creator: CorelDRAW X7 -->
<svg xmlns="http://www.w3.org/2000/svg" xml:space="preserve" width="37.4849mm" height="37.813mm" version="1.1" style="shape-rendering:geometricPrecision; text-rendering:geometricPrecision; image-rendering:optimizeQuality; fill-rule:evenodd; clip-rule:evenodd"
viewBox="0 0 1390 1402"
 xmlns:xlink="http://www.w3.org/1999/xlink"
 xmlns:cc="http://creativecommons.org/ns#"
 xmlns:dc="http://purl.org/dc/elements/1.1/"
 xmlns:inkscape="http://www.inkscape.org/namespaces/inkscape"
 xmlns:rdf="http://www.w3.org/1999/02/22-rdf-syntax-ns#"
 xmlns:sodipodi="http://sodipodi.sourceforge.net/DTD/sodipodi-0.dtd"
 xmlns:svg="http://www.w3.org/2000/svg">
 <defs>
  <style type="text/css">
   <![CDATA[
    .fil0 {fill:gray}
    .fil1 {fill:#FEFEFE}
   ]]>
  </style>
 </defs>
 <g id="Слой_x0020_1">
  <metadata id="CorelCorpID_0Corel-Layer"/>
  <rect class="fil0" width="1390" height="1402" rx="116" ry="143"/>
  <g id="_110167328">
   <g id="_742857840">
    <script id="script3301" xlink:href=""/>
    <script id="script3299" xlink:href=""/>
    <g id="g3140">
     <path id="path3142" class="fil1" d="M34 1245l0 -1087c0,-65 53,-118 118,-118l1087 0c65,0 117,53 117,118l0 1087c0,65 -52,118 -117,118l-1087 0c-65,0 -118,-53 -118,-118zm1281 0l0 -1087c0,-42 -34,-77 -76,-77l-1087 0c-43,0 -77,35 -77,77l0 1087c0,42 34,76 77,76l1087 0c42,0 76,-34 76,-76z"/>
     <path id="path3144" class="fil1" d="M365 1135l1 -868c0,-5 2,-11 6,-14 4,-4 9,-6 15,-6l375 0c131,0 250,69 250,212 0,87 -24,136 -70,176l-21 16 15 6c6,2 12,4 16,7 26,13 42,27 58,45 49,51 57,100 57,174 0,184 -170,272 -324,272l-358 0c-11,0 -20,-9 -20,-20l0 0zm661 -252c0,-70 -8,-106 -46,-146 -14,-15 -26,-26 -47,-36 -11,-6 -52,-20 -65,-28l-2 -1c-12,-8 -12,-26 1,-34 71,-44 103,-80 103,-179 1,-112 -90,-171 -208,-171l-355 0 -1 826 337 0c144,0 283,-80 283,-231l0 0zm-435 112c-12,0 -21,-8 -21,-20l0 -216c0,-11 10,-21 21,-21 49,0 114,-6 164,6 55,12 97,46 96,123 -2,75 -43,108 -97,121 -49,13 -113,7 -163,7zm153 -47c39,-9 64,-29 65,-81 2,-55 -24,-74 -63,-83 -22,-5 -47,-6 -73,-6l-61 1 0 176 -21 -1c56,0 110,5 153,-6zm-153 -320c-11,0 -21,-9 -21,-20l0 -113 0 -69c0,-11 9,-21 21,-21 39,0 91,-4 130,5 45,11 78,40 78,101 0,64 -28,96 -72,110 -39,11 -91,7 -136,7l0 0zm124 -47c25,-8 43,-23 43,-70 0,-40 -18,-54 -46,-61 -25,-5 -55,-5 -88,-4l-12 0 0 49 0 92 -21 0c51,0 93,3 124,-6l0 0z"/>
    </g>
   </g>
  </g>
 </g>
</svg>
