<?xml version="1.0" encoding="UTF-8"?>
<!DOCTYPE svg PUBLIC "-//W3C//DTD SVG 1.1//EN" "http://www.w3.org/Graphics/SVG/1.1/DTD/svg11.dtd">
<!-- Creator: CorelDRAW X7 -->
<svg xmlns="http://www.w3.org/2000/svg" xml:space="preserve" width="37.4849mm" height="37.813mm" version="1.1" style="shape-rendering:geometricPrecision; text-rendering:geometricPrecision; image-rendering:optimizeQuality; fill-rule:evenodd; clip-rule:evenodd"
viewBox="0 0 2096 2114"
 xmlns:xlink="http://www.w3.org/1999/xlink"
 xmlns:cc="http://creativecommons.org/ns#"
 xmlns:dc="http://purl.org/dc/elements/1.1/"
 xmlns:inkscape="http://www.inkscape.org/namespaces/inkscape"
 xmlns:rdf="http://www.w3.org/1999/02/22-rdf-syntax-ns#"
 xmlns:sodipodi="http://sodipodi.sourceforge.net/DTD/sodipodi-0.dtd"
 xmlns:svg="http://www.w3.org/2000/svg">
 <defs>
  <style type="text/css">
   <![CDATA[
    .fil0 {fill:gray}
    .fil1 {fill:#FEFEFE}
   ]]>
  </style>
 </defs>
 <g id="Слой_x0020_1">
  <metadata id="CorelCorpID_0Corel-Layer"/>
  <rect class="fil0" width="2096" height="2114" rx="175" ry="216"/>
  <g id="_765607808">
   <g id="_727894864">
    <script id="script3301" xlink:href=""/>
    <script id="script3299" xlink:href=""/>
    <g id="g3163">
     <polygon id="path3165" class="fil1" points="670,940 670,691 545,317 545,317 596,317 699,629 705,629 801,317 857,317 733,691 733,940 "/>
     <path id="path3167" class="fil1" d="M891 909l0 0c-23,-21 -34,-49 -34,-84l0 -216c0,-32 11,-58 35,-76 23,-19 54,-28 93,-28 36,0 64,9 87,29 22,20 35,46 35,78l0 214c0,36 -13,64 -34,85 -23,20 -52,29 -91,29l-1 0c-38,0 -67,-11 -90,-31l0 0zm136 -52c11,-15 17,-35 17,-60l0 -153c0,-23 -6,-42 -17,-56 -12,-14 -26,-22 -44,-22 -20,0 -35,7 -47,20 -10,15 -17,32 -17,55l0 154c0,26 5,46 17,61l0 0c11,14 26,22 45,22l1 0c19,0 35,-8 45,-21z"/>
     <path id="path3169" class="fil1" d="M1188 916c-13,-12 -20,-31 -20,-56l0 -355 63 0 0 341c0,11 3,18 7,23 5,4 12,5 23,5 8,0 68,-10 80,-17 12,-5 67,-22 76,-30l0 -322 63 0 0 424 -63 0 3 -59c-20,18 -90,43 -111,51 -23,10 -44,15 -64,15 -26,0 -45,-7 -57,-20l0 0z"/>
     <path id="path3171" class="fil1" d="M629 1806c-101,0 -188,-74 -199,-171l-2 -17c-5,-70 -8,-141 -8,-210 0,-70 3,-140 8,-211l2 -17c11,-97 98,-169 199,-169 129,-5 260,-8 393,-8l43 0c133,0 264,3 393,8 108,0 201,82 201,189l6 103c2,35 2,70 2,105 0,35 0,69 -2,106l-6 101c0,108 -93,191 -201,191 -129,4 -260,6 -396,6l-37 0c-134,0 -267,-2 -395,-6l-1 0zm827 -63c81,0 141,-59 141,-128l0 -2c5,-69 8,-137 8,-205 0,-69 -3,-137 -8,-205l0 -3c0,-68 -60,-127 -141,-127 -128,-6 -258,-7 -391,-7l-43 0c-133,0 -263,1 -391,7 -79,0 -140,59 -140,127l-1 3c-5,68 -7,136 -7,205 0,68 2,136 7,205l1 2c0,69 61,128 140,128 128,5 260,8 394,8l37 0c134,0 266,-3 394,-8l0 0z"/>
     <path id="path3173" class="fil1" d="M1318 1601c-16,-18 -24,-42 -24,-73l0 -142c0,-27 10,-49 27,-67 19,-16 41,-25 70,-25 28,0 51,8 65,24 16,16 24,39 24,68l0 81 0 0 0 0 0 0 -120 0 0 60c0,16 1,28 5,33 6,7 12,11 22,11 10,0 18,-3 22,-8 4,-5 6,-17 6,-36l0 -23 65 0 0 24c0,32 -8,57 -24,74 -16,16 -39,24 -71,24 -28,0 -49,-9 -67,-25l0 0zm-482 6c-8,-9 -11,-22 -11,-41l0 -264 63 0 0 242c0,7 1,12 4,16 3,3 7,4 12,4 6,0 11,-1 18,-5 8,-5 13,-11 20,-17l0 0 0 -240 63 0 0 316 -63 0 0 -35c-12,12 -24,22 -36,28 -14,7 -26,11 -38,11 -13,0 -25,-5 -32,-15l0 0zm320 7c-9,-4 -19,-11 -27,-21l0 25 -63 0 0 -429 63 0 0 138c8,-9 18,-17 27,-21 11,-6 20,-8 30,-8 20,0 34,6 45,20 11,13 16,33 16,59l0 175c0,23 -5,39 -15,51 -10,12 -24,19 -42,19 -12,0 -25,-3 -34,-8l0 0zm-474 4l0 -366 -74 0 0 -63 217 0 0 63 -74 0 0 366 -69 0 0 0zm494 -52c4,-6 6,-12 6,-23l0 0 0 -162c0,-11 -2,-19 -7,-24 -4,-6 -11,-8 -19,-8 -5,0 -9,0 -13,2 -4,2 -10,6 -14,10l0 197c6,5 11,8 15,10 5,3 11,4 16,4 7,0 14,-2 16,-6zm239 -148l0 -32c0,-13 -2,-23 -7,-28 -4,-5 -11,-9 -20,-9 -11,0 -17,4 -21,9 -6,5 -7,15 -7,28l0 0 0 32 55 0 0 0z"/>
     <path id="path3175" class="fil1" d="M47 1879l0 -1629c0,-101 81,-182 182,-182l1629 0c101,0 183,81 183,182l0 1629c0,101 -82,183 -183,183l-1629 0c-101,0 -182,-82 -182,-183zm1932 0l0 -1629c0,-66 -54,-119 -121,-119l-1629 0c-66,0 -119,53 -119,119l0 1629c0,67 53,121 119,121l1629 0c67,0 121,-54 121,-121z"/>
    </g>
   </g>
  </g>
 </g>
</svg>
