<?xml version="1.0" standalone="no"?>
<!DOCTYPE svg PUBLIC "-//W3C//DTD SVG 20010904//EN"
 "http://www.w3.org/TR/2001/REC-SVG-20010904/DTD/svg10.dtd">
<svg version="1.0" xmlns="http://www.w3.org/2000/svg"
 width="277.000000pt" height="277.000000pt" viewBox="0 0 277.000000 277.000000"
 preserveAspectRatio="xMidYMid meet">
<metadata>
Created by potrace 1.14, written by Peter Selinger 2001-2017
</metadata>
<g transform="translate(0.000000,277.000000) scale(0.100000,-0.100000)"
fill="#000000" stroke="none">
<path d="M1995 2173 c-202 -38 -308 -93 -428 -223 -37 -40 -71 -69 -76 -65 -6
3 -37 8 -70 11 -64 6 -143 -12 -216 -48 -39 -20 -165 -141 -165 -158 0 -5 -25
3 -56 17 -75 34 -185 52 -249 40 -108 -19 -216 -92 -285 -192 -15 -22 -54 -87
-85 -145 -126 -227 -224 -352 -309 -395 -31 -15 -44 -26 -35 -29 8 -3 48 -15
89 -27 90 -26 214 -86 330 -159 193 -121 321 -178 450 -197 226 -35 593 61
782 205 l64 48 62 -28 c97 -44 173 -58 292 -54 165 5 296 52 414 145 66 53 83
70 137 146 163 225 169 552 16 787 -104 159 -279 276 -468 313 -34 7 -170 12
-194 8z m-985 -982 c0 -5 23 -17 50 -26 28 -9 50 -19 50 -21 0 -7 -191 -3
-209 4 -9 3 3 14 30 28 46 24 79 30 79 15z"/>
</g>
</svg>
