<svg width="141" height="115" viewBox="0 0 141 115" fill="none" xmlns="http://www.w3.org/2000/svg">
<path d="M38.1544 93.68C56.8744 93.68 70.5544 82.76 70.5544 65.72C70.5544 51.2 60.8344 44.48 48.8344 41.84L68.8744 24.68V7.99999H8.15437V26.84H40.3144L20.9944 44.24L24.3544 56.36H34.1944C42.9544 56.36 47.8744 59.6 47.8744 65C47.8744 70.4 43.6744 73.76 37.0744 73.76C29.3944 73.76 23.0344 70.28 17.0344 64.16L2.39438 78.8C10.5544 87.8 21.9544 93.68 38.1544 93.68Z" fill="#F2F3F5"/>
<path fill-rule="evenodd" clip-rule="evenodd" d="M139.616 10.0001C122.316 9.95808 106.203 18.7844 96.9238 33.3848H86.1017C82.9978 33.3878 80.0362 34.6907 77.9359 36.9761L67.3241 48.553C66.9533 48.9569 66.8944 49.5572 67.1799 50.026C67.4653 50.4941 68.026 50.7171 68.5549 50.5729L80.9659 47.1883C81.3223 47.0903 81.7039 47.1582 82.0044 47.3727L86.1132 50.3066L83.1937 54.8764C82.883 55.3631 82.9527 56.0007 83.3607 56.4088L84.615 57.663L76.2964 61.8217C76.2436 61.8589 76.1943 61.8998 76.1486 61.9449L76.1312 61.9214C70.407 66.0182 67.008 72.6227 67.0002 79.6618V82.6155C67.0002 83.2952 67.5513 83.8463 68.2309 83.8463H71.1847C78.2249 83.8397 84.8301 80.4401 88.9275 74.7153L88.9046 74.6979C88.9491 74.6522 88.9906 74.6029 89.0272 74.5506L93.1865 66.2315L94.4401 67.4857C94.8355 67.8812 95.4479 67.9605 95.9311 67.6792L100.67 64.9136L103.476 68.8409C103.691 69.142 103.759 69.5242 103.661 69.8812L100.277 82.2922C100.132 82.8211 100.355 83.3818 100.823 83.6672C101.292 83.9527 101.893 83.8938 102.296 83.523L113.873 72.9112C116.158 70.8102 117.459 67.8487 117.462 64.7447V55.038C131.997 45.7135 140.804 29.6474 140.846 12.3782V11.2309C140.846 10.5512 140.295 10.0001 139.616 10.0001ZM83.4347 45.3691C82.532 44.7249 81.3884 44.5206 80.3187 44.8126L72.0158 47.0771L79.7502 38.6402C81.3836 36.8619 83.6871 35.8487 86.1017 35.8463H95.3511L87.4395 48.2303L83.4347 45.3691ZM69.4617 81.3848H71.1847C77.0639 81.377 82.6222 78.7015 86.2952 74.1113L84.5302 72.3463C82.8361 74.1822 80.4527 75.2279 77.9539 75.2309H76.8463C76.1666 75.2309 75.6156 74.6798 75.6156 74.0002V72.8926C75.6192 70.395 76.6648 68.0116 78.5008 66.3181L76.7357 64.553C72.1456 68.2261 69.4701 73.7832 69.4617 79.6618V81.3848ZM80.2436 68.0608L82.7862 70.6035C81.5849 71.9473 79.8794 72.7321 78.0771 72.7694C78.115 70.9671 78.8992 69.2616 80.2436 68.0608ZM78.9238 63.2604L87.5861 71.9226L88.8836 69.3199L81.5236 61.9599L78.9238 63.2604ZM90.0476 66.9995L83.8469 60.7988L86.4467 59.4983L91.3451 64.3968L90.0476 66.9995ZM112.206 71.0969C113.985 69.4635 114.998 67.1594 115 64.7447V56.5542L102.804 63.669L105.477 67.4106C106.122 68.3133 106.327 69.4581 106.034 70.5284L103.769 78.8313L112.206 71.0969ZM115.59 53.3084H115.581L115.402 53.4232C115.266 53.5062 115.133 53.5922 115 53.6782C114.825 53.7909 114.65 53.9035 114.471 54.0092L100.397 62.2219L95.511 65.0723L87.5663 57.1276L85.8043 55.3649L93.1306 43.8968L98.6396 35.2814L99.0002 34.7105C104.223 26.5038 111.814 20.0759 120.77 16.2772L134.863 30.3697C131.031 39.8649 124.283 47.8974 115.59 53.3084ZM123.276 15.3048L135.815 27.8463C137.503 22.898 138.371 17.7063 138.385 12.4779C133.23 12.6071 128.129 13.5614 123.276 15.3048Z" fill="#3A6EF4"/>
<path d="M101.073 36.0363L100.045 37.6457L102.119 38.9702L103.146 37.3602C103.333 37.07 103.515 36.7821 103.714 36.4991L101.671 35.1265C101.469 35.4233 101.268 35.7232 101.073 36.0363Z" fill="#3A6EF4"/>
<path d="M90.5791 52.4629L98.4691 40.106L100.544 41.4305L92.6542 53.7874L90.5791 52.4629Z" fill="#3A6EF4"/>
<path fill-rule="evenodd" clip-rule="evenodd" d="M116.231 44.4618C110.793 44.4618 106.385 40.0538 106.385 34.6157C106.391 29.1806 110.796 24.7755 116.231 24.7695C121.669 24.7695 126.077 29.1782 126.077 34.6157C126.077 40.0538 121.669 44.4618 116.231 44.4618ZM116.231 42.0003C120.31 42.0003 123.616 38.6944 123.616 34.6157C123.612 30.5394 120.308 27.2353 116.231 27.2311C112.153 27.2311 108.846 30.5376 108.846 34.6157C108.846 38.6944 112.153 42.0003 116.231 42.0003Z" fill="#3A6EF4"/>
<path d="M111.308 34.6155H113.769C113.769 33.2561 114.871 32.1539 116.231 32.1539V29.6924C113.512 29.6924 111.308 31.8967 111.308 34.6155Z" fill="#3A6EF4"/>
<path d="M100.231 17.3846V14.9231H102.692V12.4615H100.231V10H97.7692V12.4615H95.3076V14.9231H97.7692V17.3846H100.231Z" fill="#3A6EF4"/>
<path d="M80.5391 21.0771H83.0006V23.5387H80.5391V21.0771Z" fill="#3A6EF4"/>
<path d="M138.385 49.3848H135.923V51.8463H133.462V54.3078H135.923V56.7694H138.385V54.3078H140.847V51.8463H138.385V49.3848Z" fill="#3A6EF4"/>
<path d="M122.384 72.7695V75.2311H119.923V77.6926H122.384V80.1541H124.846V77.6926H127.307V75.2311H124.846V72.7695H122.384Z" fill="#3A6EF4"/>
<path d="M126.077 59.231H128.539V61.6925H126.077V59.231Z" fill="#3A6EF4"/>
<path d="M71.9229 28.4619H74.3844V30.9235H71.9229V28.4619Z" fill="#3A6EF4"/>
</svg>
