<svg width="48" height="48" viewBox="0 0 48 48" fill="none" xmlns="http://www.w3.org/2000/svg">
<path fill-rule="evenodd" clip-rule="evenodd" d="M27.1436 8.23056C24.847 5.93406 21.7938 4.66919 18.5459 4.66919C15.2981 4.66919 12.2447 5.93397 9.94807 8.23056C5.20741 12.9713 5.20741 20.6852 9.94807 25.426C12.2447 27.7225 15.298 28.9874 18.5459 28.9874C21.7937 28.9874 24.847 27.7226 27.1436 25.426C29.4401 23.1295 30.7049 20.0761 30.7049 16.8283C30.7049 13.5805 29.4401 10.5272 27.1436 8.23056ZM10.9273 9.20978C12.9622 7.17485 15.6679 6.05406 18.5458 6.05406C21.4236 6.05406 24.1293 7.17485 26.1642 9.20978C27.7703 10.8158 28.8064 12.8399 29.1719 15.0364L25.3976 18.7273C25.0401 18.5255 24.628 18.4099 24.1892 18.4099C23.3348 18.4099 22.5807 18.8465 22.1377 19.5081L16.5903 17.7675L16.5908 17.7477C16.5912 17.7383 16.5915 17.7288 16.5915 17.7193C16.5915 16.3587 15.4846 15.2517 14.1239 15.2517C12.7633 15.2517 11.6563 16.3587 11.6563 17.7193C11.6563 18.164 11.7752 18.5814 11.982 18.9423L9.07132 21.9594C6.86276 17.8758 7.48085 12.6562 10.9273 9.20978ZM24.1893 21.9603C24.7863 21.9603 25.2721 21.4744 25.2721 20.8774C25.2721 20.2803 24.7863 19.7946 24.1893 19.7946C23.5923 19.7946 23.1064 20.2804 23.1064 20.8774C23.1064 21.4744 23.5923 21.9603 24.1893 21.9603ZM15.2068 17.7191C15.2068 18.3161 14.721 18.8019 14.124 18.8019C13.5269 18.8019 13.0411 18.3161 13.0411 17.7191C13.0411 17.1221 13.5269 16.6363 14.124 16.6363C14.721 16.6364 15.2068 17.1221 15.2068 17.7191ZM18.5459 27.6026C21.4237 27.6026 24.1294 26.4818 26.1643 24.4469C28.1992 22.4119 29.32 19.7063 29.3201 16.8285L26.3662 19.717C26.5514 20.0631 26.6569 20.4581 26.6569 20.8773C26.6569 22.2379 25.5499 23.3449 24.1893 23.3449C22.8286 23.3449 21.7217 22.2379 21.7217 20.8773C21.7217 20.8678 21.722 20.8584 21.7223 20.8489C21.7225 20.8423 21.7228 20.8357 21.7229 20.8292L16.1754 19.0885C15.7324 19.7501 14.9783 20.1867 14.124 20.1867C13.7107 20.1867 13.3211 20.0841 12.9785 19.9038L9.83182 23.1656C10.1583 23.6139 10.5232 24.0427 10.9274 24.4469C12.9623 26.4819 15.668 27.6026 18.5459 27.6026Z" fill="#3A6EF4"/>
<path d="M12.4141 9.76476L13.3225 10.8099C15.4697 8.94351 18.4802 8.36807 21.1797 9.30829L21.6352 8.00057C18.4685 6.89751 14.9352 7.57354 12.4141 9.76476Z" fill="#3A6EF4"/>
<path d="M23.4118 8.83984L22.6914 10.0225C23.0579 10.2457 23.4096 10.5017 23.7368 10.7831L24.6399 9.73319C24.2557 9.40281 23.8425 9.10225 23.4118 8.83984Z" fill="#3A6EF4"/>
<path d="M20.2015 24.6203C18.6435 24.9487 17.0423 24.8105 15.5706 24.2209L15.0557 25.5064C16.1716 25.9534 17.3505 26.1794 18.5381 26.1794C19.1883 26.1794 19.8409 26.1116 20.4872 25.9754L20.2015 24.6203Z" fill="#3A6EF4"/>
<path fill-rule="evenodd" clip-rule="evenodd" d="M34.8853 28.9583L35.8907 27.9529L48 40.0198L41.5409 46.4787L29.4318 34.4118L30.4715 33.3721L27.9713 30.6996C25.1383 32.6262 21.8421 33.5907 18.5454 33.5907C14.2509 33.5907 9.95644 31.9561 6.687 28.6867C6.31219 28.3118 5.95987 27.923 5.628 27.5227L4.60941 28.5786C4.81631 28.9395 4.93519 29.3567 4.93519 29.8016C4.93519 31.1622 3.82828 32.2692 2.46759 32.2692C1.10691 32.2692 0 31.1622 0 29.8016C0 28.441 1.10691 27.334 2.4675 27.3341C2.88075 27.3341 3.27038 27.4366 3.61294 27.617L4.77881 26.4085C0.226406 19.8732 0.862312 10.7947 6.68709 4.96993C13.2259 -1.56867 23.865 -1.56885 30.4039 4.96993C31.9847 6.55074 33.1822 8.37174 33.9986 10.3161L35.5153 8.83299C35.3166 8.47749 35.2028 8.06837 35.2028 7.63299C35.2028 6.2724 36.3098 5.1654 37.6703 5.1654C38.1254 5.1654 38.5518 5.2898 38.9182 5.50552L43.1105 1.40602H41.0163V0.0212402H45.5013V4.50633H44.1165V2.35908L39.8681 6.51343C40.0402 6.8498 40.1378 7.23015 40.1378 7.63308C40.1378 8.99368 39.0308 10.1007 37.6702 10.1007C37.2475 10.1007 36.8495 9.9938 36.5014 9.80574L34.5224 11.741C36.0539 16.5781 35.3432 21.9767 32.391 26.2921L34.8853 28.9583ZM38.7532 7.63308C38.7532 7.03608 38.2673 6.55027 37.6703 6.55027C37.0732 6.55027 36.5875 7.03608 36.5875 7.63308C36.5875 8.23008 37.0732 8.7159 37.6703 8.7159C38.2673 8.7159 38.7532 8.23008 38.7532 7.63308ZM2.46759 30.8843C1.87059 30.8843 1.38478 30.3985 1.38478 29.8015C1.38478 29.2045 1.87059 28.7187 2.46759 28.7187C3.06469 28.7187 3.55041 29.2045 3.55041 29.8015C3.55031 30.3986 3.06459 30.8843 2.46759 30.8843ZM7.66622 5.94915C1.66744 11.9481 1.66744 21.7088 7.66622 27.7076C13.6648 33.7063 23.426 33.7063 29.4246 27.7076C35.4233 21.7087 35.4233 11.9479 29.4246 5.94915C26.4252 2.9499 22.4853 1.45018 18.5453 1.45018C14.6054 1.45018 10.6656 2.94971 7.66622 5.94915ZM29.0904 29.8689C29.5437 29.5019 29.9824 29.1081 30.4039 28.6867C30.8111 28.2795 31.1929 27.8563 31.5493 27.4193L33.9057 29.9379L31.4513 32.3924L29.0904 29.8689ZM31.392 34.4101L41.5393 44.522L46.0399 40.0214L35.8926 29.9095L31.392 34.4101Z" fill="#3A6EF4"/>
<path d="M35.8917 31.9197L33.9102 33.9011L34.8895 34.8803L35.8917 33.878L39.7135 37.6998L40.6926 36.7207L35.8917 31.9197Z" fill="#3A6EF4"/>
<path d="M40.9004 38.8848L41.8796 37.9056L42.9058 38.9318L41.9266 39.911L40.9004 38.8848Z" fill="#3A6EF4"/>
</svg>
