<svg width="48" height="48" viewBox="0 0 48 48" fill="none" xmlns="http://www.w3.org/2000/svg">
<path fill-rule="evenodd" clip-rule="evenodd" d="M20.8495 35.5213V39.3824H5.40535V40.9268H42.4709V39.3824H27.0269V35.5213H45.5598C46.837 35.5213 47.8764 34.4818 47.8764 33.2046V2.31665C47.8764 1.03946 46.8371 0 45.5598 0H2.31665C1.03946 0 0 1.03946 0 2.31665V33.2046C0 34.4818 1.03946 35.5213 2.31665 35.5213H20.8495ZM25.4826 39.3822H22.3938V35.5211H25.4826V39.3822ZM1.54443 2.31665V33.2046C1.54443 33.631 1.89114 33.9769 2.31665 33.9769H45.5598C45.9853 33.9769 46.332 33.631 46.332 33.2046H46.3322V2.31665C46.3322 1.89114 45.9855 1.54443 45.5599 1.54443H2.31665C1.89114 1.54443 1.54443 1.89114 1.54443 2.31665Z" fill="#3A6EF4"/>
<path fill-rule="evenodd" clip-rule="evenodd" d="M3.08887 6.17749H44.7876V29.3435H3.08887V6.17749ZM4.63314 27.7992H43.2431V7.72192H4.63314V27.7992Z" fill="#3A6EF4"/>
<rect x="21.6211" y="30.8879" width="4.63314" height="1.54443" fill="#3A6EF4"/>
<path fill-rule="evenodd" clip-rule="evenodd" d="M15.5542 22.3937H10.0391V16.2972L17.3177 15.4887L20.4367 10.8108H31.3657L33.7147 15.5088L39.3826 16.3188V22.3937H34.6397C34.2946 23.722 33.0953 24.7104 31.6606 24.7104C30.226 24.7104 29.0268 23.7218 28.6815 22.3937H21.5124C21.1673 23.722 19.9679 24.7104 18.5333 24.7104C17.0986 24.7104 15.8994 23.7218 15.5542 22.3937ZM16.9888 21.6215C16.9888 22.4733 17.6816 23.1659 18.5333 23.1659C19.385 23.1659 20.0777 22.4733 20.0777 21.6215C20.0777 20.7697 19.385 20.0771 18.5333 20.0771C17.6814 20.0771 16.9888 20.7698 16.9888 21.6215ZM31.6606 23.1659C30.809 23.1659 30.1162 22.4733 30.1162 21.6215C30.1162 20.7698 30.8088 20.0771 31.6606 20.0771C32.5125 20.0771 33.2051 20.7697 33.2051 21.6215C33.2051 22.4733 32.5123 23.1659 31.6606 23.1659ZM18.2044 16.9436L11.5835 17.6795V20.8494H15.5542C15.8993 19.5212 17.0986 18.5328 18.5333 18.5328C19.9679 18.5328 21.1671 19.5213 21.5124 20.8494H28.6815C29.0266 19.5212 30.2258 18.5328 31.6606 18.5328C33.0954 18.5328 34.2946 19.5212 34.6399 20.8494H37.8384V17.6579L32.6955 16.9235L30.4113 12.3552H21.2631L18.2044 16.9436Z" fill="#3A6EF4"/>
<path fill-rule="evenodd" clip-rule="evenodd" d="M22.7534 13.1274H29.1288L30.416 16.9885H20.1797L22.7534 13.1274ZM23.5802 14.6719L23.0652 15.4441H28.2729L28.0157 14.6719H23.5802Z" fill="#3A6EF4"/>
<rect x="6.9502" y="9.26636" width="4.63314" height="1.54443" fill="#3A6EF4"/>
<rect x="6.9502" y="12.3552" width="4.63314" height="1.54443" fill="#3A6EF4"/>
<rect x="6.9502" y="16.2163" width="1.54443" height="1.54443" fill="#3A6EF4"/>
<rect x="6.9502" y="24.7104" width="6.94978" height="1.54443" fill="#3A6EF4"/>
<rect x="35.5215" y="9.26636" width="5.40535" height="1.54443" fill="#3A6EF4"/>
<rect x="35.5215" y="12.3552" width="5.40535" height="1.54443" fill="#3A6EF4"/>
<rect x="35.5215" y="24.7104" width="5.40535" height="1.54443" fill="#3A6EF4"/>
<rect x="21.6211" y="24.7104" width="1.54443" height="1.54443" fill="#3A6EF4"/>
<rect x="24.71" y="24.7104" width="1.54443" height="1.54443" fill="#3A6EF4"/>
<rect x="6.9502" y="19.3052" width="1.54443" height="1.54443" fill="#3A6EF4"/>
<path fill-rule="evenodd" clip-rule="evenodd" d="M37.0654 47.1043C37.0654 44.1244 39.4901 41.699 42.4708 41.699C45.4515 41.699 47.8761 44.1244 47.8763 47.1043V47.8765H37.0654V47.1043ZM42.4708 43.2432C40.6066 43.2432 39.0461 44.5723 38.6877 46.3321H46.2539C45.8955 44.5722 44.3348 43.2432 42.4708 43.2432Z" fill="#3A6EF4"/>
<path fill-rule="evenodd" clip-rule="evenodd" d="M0.772461 44.0155H3.08911V46.3321H0.772461V47.8765H35.5215V42.4712H0.772461V44.0155ZM31.6605 44.0153H33.9771V46.3319H31.6605V44.0153ZM30.1162 44.0155H27.7995V46.3321H30.1162V44.0155ZM23.9385 44.0153H26.2551V46.3319H23.9385V44.0153ZM22.3942 44.0153H20.0775V46.3319H22.394H22.3942V44.0153ZM16.2165 44.0153H18.5331V46.3319H16.2165V44.0153ZM14.672 44.0153H12.3554V46.3319H14.672V44.0153ZM8.49446 44.0153H10.8111V46.3319H8.49446V44.0153ZM6.95003 44.0155H4.63338V46.3321H6.95003V44.0155Z" fill="#3A6EF4"/>
<rect x="21.6211" y="3.08887" width="1.54443" height="1.54443" fill="#3A6EF4"/>
<rect x="24.71" y="3.08887" width="1.54443" height="1.54443" fill="#3A6EF4"/>
</svg>
