<svg width="48" height="48" viewBox="0 0 48 48" fill="none" xmlns="http://www.w3.org/2000/svg">
<path fill-rule="evenodd" clip-rule="evenodd" d="M45.4974 40.9266H45.5599V36.2935C45.5599 36.1939 45.5507 33.8239 44.7251 31.356L42.2077 25.4826H40.1544H38.1011L35.5605 31.4162C34.7582 33.8239 34.7489 36.1938 34.7489 36.2934V37.8378H32.4324C31.1552 37.8378 30.1158 36.7983 30.1158 35.5211V32.305C33.8022 30.1644 36.2934 26.183 36.2934 21.6216V21.5119C37.6215 21.1667 38.61 19.9683 38.61 18.5329C38.61 17.1452 38.0872 16.2688 37.7945 15.8857C37.8208 15.7429 37.8378 15.5969 37.8378 15.444V13.8996C37.8378 6.23562 31.6023 0 23.9382 0C16.2741 0 10.0386 6.23546 10.0386 13.8996V15.444C10.0386 15.5969 10.0557 15.7429 10.0819 15.8857C9.78924 16.2688 9.26643 17.1452 9.26643 18.5329C9.26643 19.9683 10.2548 21.1669 11.5831 21.5119V21.6216C11.5831 26.183 14.0742 30.1644 17.7606 32.305V35.5211C17.7606 36.7983 16.7212 37.8378 15.444 37.8378H11.5829V36.7497C13.1011 35.8292 13.8996 34.3466 13.8996 32.4323C13.8996 30.5528 12.6316 28.3643 10.2084 27.8176L9.26627 27.6052V31.6601H7.72184V27.6037L6.77822 27.8176C4.35584 28.369 3.0887 30.5559 3.0887 32.4323C3.0887 34.3466 3.88719 35.8284 5.40535 36.7497V38.6919C2.22081 40.1591 0 43.3737 0 47.1044V47.8766H1.54443V47.1044C1.54443 43.1074 4.59778 39.8102 8.49422 39.4218V47.8766H10.0386V39.3824H12.3551V47.8766H13.8996V39.3824H15.444C15.7591 39.3824 16.0602 39.3337 16.3537 39.2627C17.0248 42.8411 20.1676 45.5599 23.9382 45.5599C27.7088 45.5599 30.8517 42.841 31.5227 39.2627C31.8162 39.3337 32.1174 39.3824 32.4324 39.3824H33.9769V47.8766H35.5213V39.3824H37.8379V47.8766H39.3824V39.4216C43.279 39.8108 46.3322 43.1074 46.3322 47.1042V47.8764H47.8766V47.1042C47.8764 44.7297 46.9714 42.5684 45.4974 40.9266ZM10.4671 35.6016L10.0385 35.8146V37.8378H9.26627C8.46551 37.8378 7.69168 37.9505 6.94962 38.1428V35.8146L6.52119 35.6016C5.25097 34.9708 4.63314 33.9344 4.63314 32.4324C4.63314 31.4402 5.16049 30.319 6.17757 29.7028V33.2047H10.8107V29.7011C11.8276 30.3157 12.3551 31.4385 12.3551 32.4324C12.3551 33.9344 11.7373 34.9706 10.4671 35.6016ZM36.8812 17.4234C36.7059 17.5816 36.5082 17.7298 36.2935 17.8704V19.8628C36.7529 19.5947 37.0656 19.1021 37.0657 18.533C37.0657 18.0712 36.9824 17.7037 36.8812 17.4234ZM23.166 1.584V6.94995H24.7104V1.584C31.0278 1.97789 36.0641 7.12832 36.2726 13.4937C33.5243 12.0289 27.756 11.5832 23.9382 11.5832C20.1204 11.5832 14.3522 12.0289 11.6038 13.4929C11.8124 7.12816 16.8486 1.97676 23.166 1.584ZM10.8109 18.533C10.8109 19.1021 11.1235 19.5947 11.5831 19.8619V17.8696C11.3684 17.7298 11.1707 17.5816 10.9954 17.4225C10.8942 17.7029 10.8109 18.0705 10.8109 18.533ZM11.5837 15.4464C11.735 14.6588 16.2269 13.1275 23.9382 13.1275C31.6541 13.1275 36.1474 14.6603 36.2934 15.4442C36.2935 16.9622 31.6719 18.5329 23.9382 18.5329C16.2084 18.5329 11.5876 16.9638 11.5837 15.4464ZM13.1274 18.637V21.6216C13.1274 27.583 17.9768 32.4324 23.9382 32.4324C29.8996 32.4324 34.7491 27.583 34.7491 21.6216V18.637C31.3443 19.9343 26.0681 20.0771 23.9382 20.0771C21.8084 20.0771 16.5319 19.9343 13.1274 18.637ZM23.9382 44.0155C20.7744 44.0155 18.1614 41.6233 17.8054 38.5529C18.7112 37.8464 19.3051 36.7568 19.3051 35.5213V33.0673C20.7375 33.6495 22.2997 33.977 23.9382 33.977C25.5767 33.977 27.139 33.6496 28.5714 33.0673V35.5213C28.5714 36.7568 29.1652 37.8464 30.071 38.5529C29.7151 41.6231 27.102 44.0155 23.9382 44.0155ZM36.2935 37.8379H38.4402C38.0703 37.427 37.8379 36.889 37.8379 36.2935C37.8379 35.2881 38.4858 34.4385 39.3824 34.1189V27.0271H39.119L37.0031 31.9646C36.3019 34.0772 36.2935 36.2719 36.2935 36.2935V37.8379ZM40.1544 37.0657C39.7289 37.0657 39.3822 36.7198 39.3822 36.2935C39.3822 35.8672 39.7289 35.5213 40.1544 35.5213C40.5799 35.5213 40.9267 35.8672 40.9267 36.2935C40.9267 36.7198 40.5799 37.0657 40.1544 37.0657ZM41.3692 38.2571C42.329 38.5575 43.217 39.017 44.0155 39.593V36.2942C44.0155 36.2718 44.004 34.0664 43.2827 31.9043L41.19 27.0269H40.9266V34.1188C41.8232 34.4385 42.4711 35.2879 42.4711 36.2934C42.4711 37.1243 42.0279 37.8486 41.3692 38.2571Z" fill="#3A6EF4"/>
<path d="M24.7104 22.3938H31.6602V20.8494H23.166V28.5714H24.7104V22.3938Z" fill="#3A6EF4"/>
<rect x="13.8994" y="10.0386" width="1.54443" height="1.54443" fill="#3A6EF4"/>
<rect x="16.9883" y="9.26636" width="1.54443" height="1.54443" fill="#3A6EF4"/>
</svg>
