<svg width="45" height="48" viewBox="0 0 45 48" fill="none" xmlns="http://www.w3.org/2000/svg">
<path d="M34.2881 6.39038V7.77497H38.3045V15.3316H39.6891V6.39038H34.2881Z" fill="#3A6EF4"/>
<rect x="38.3037" y="17.2412" width="1.38459" height="1.52766" fill="#3A6EF4"/>
<path fill-rule="evenodd" clip-rule="evenodd" d="M43.9786 5.38819V0H4.19301V5.38819H6.09604V8.55741C4.91076 9.92269 4.19085 11.7024 4.19085 13.6482C4.19085 15.594 4.91076 17.3737 6.09604 18.739V21.5959C2.50757 23.6437 0.0830078 27.5068 0.0830078 31.9258V40.1817H17.6169L14.1708 48H19.908L24.167 38.3372L28.4261 48H34.1633L29.4528 37.3131H43.9786V31.925H42.0756V5.38819H43.9786ZM11.9681 7.2555C15.4743 7.2555 18.3292 10.0932 18.3593 13.5925C14.2825 13.4599 11.8004 12.1329 10.7511 11.4191C11.1857 10.8795 11.377 10.4966 11.3981 10.4529L10.1523 9.84872C10.1408 9.87244 9.04551 12.0527 5.58323 13.3365C5.74645 9.95578 8.5477 7.2555 11.9681 7.2555ZM16.3901 20.0407H28.0581C30.2691 20.0407 32.068 21.8396 32.068 24.0505C32.068 26.2616 30.269 28.0604 28.0581 28.0604H18.8921V31.9245H40.691V5.38819H7.48063V7.302C8.74954 6.402 10.2974 5.87081 11.9681 5.87081C16.2564 5.87081 19.7453 9.35962 19.7453 13.648C19.7453 16.2946 18.4154 18.6353 16.3901 20.0407ZM5.67632 14.7718C7.56369 14.1349 8.88857 13.2449 9.78332 12.4372C10.8969 13.244 13.6278 14.808 18.2215 14.9741C17.6092 17.8647 15.0384 20.0408 11.9681 20.0408C8.82669 20.0408 6.2092 17.7624 5.67632 14.7718ZM11.9681 25.173L15.2371 21.4253V21.4252H11.9681C10.9585 21.4252 9.98188 21.569 9.05723 21.8361L11.9681 25.173ZM8.4397 20.5754C8.11363 20.6769 7.79404 20.793 7.48063 20.9212V19.9942C7.78495 20.2101 8.10529 20.4044 8.4397 20.5754ZM17.5075 38.797V25.9201V25.92H18.8921V26.6757H28.058C29.5056 26.6757 30.6833 25.498 30.6833 24.0504C30.6833 22.6029 29.5056 21.4252 28.058 21.4252H17.0744L12.6603 26.4856V31.4912H11.2757V26.4856L7.66607 22.3476C4.01516 23.9938 1.4676 27.6679 1.4676 31.9257V38.797H5.04398V32.2811H6.42857V38.797H17.5075ZM19.0051 46.6154H16.2943L20.3945 37.3131H23.1053L19.0051 46.6154ZM29.329 46.6154H32.0399L27.9396 37.3131H25.2287L29.329 46.6154ZM42.594 33.3096V35.9285H28.8425H25.2287H23.1053H19.4916H18.8922V33.3096H42.594ZM5.5776 4.00359H6.09604V4.0035H42.0756H42.594V1.38459H5.5776V4.00359Z" fill="#3A6EF4"/>
<rect x="11.2764" y="32.9954" width="1.38459" height="1.77544" fill="#3A6EF4"/>
<path fill-rule="evenodd" clip-rule="evenodd" d="M32.8723 9.37744C31.4994 9.37744 30.3824 10.4944 30.3824 11.8673C30.3824 12.0695 30.4072 12.266 30.4529 12.4542L26.6139 14.6512C26.1656 14.217 25.5554 13.9491 24.8835 13.9491C23.5106 13.9491 22.3936 15.066 22.3936 16.439C22.3936 17.8118 23.5106 18.9288 24.8835 18.9288C26.2563 18.9288 27.3734 17.8118 27.3734 16.439C27.3734 16.2368 27.3485 16.0403 27.3029 15.8521L31.1418 13.6552C31.5901 14.0893 32.2004 14.3573 32.8723 14.3573C34.2452 14.3573 35.3622 13.2403 35.3622 11.8673C35.3622 10.4944 34.2451 9.37744 32.8723 9.37744ZM24.8836 17.5442C24.2742 17.5442 23.7783 17.0484 23.7783 16.439C23.7783 15.8295 24.2741 15.3337 24.8836 15.3337C25.4932 15.3337 25.989 15.8295 25.989 16.439C25.9888 17.0484 25.493 17.5442 24.8836 17.5442ZM31.7671 11.8673C31.7671 12.4769 32.2629 12.9727 32.8724 12.9727C33.4819 12.9727 33.9777 12.4768 33.9777 11.8673C33.9777 11.2579 33.4818 10.762 32.8724 10.762C32.2628 10.762 31.7671 11.258 31.7671 11.8673Z" fill="#3A6EF4"/>
<path fill-rule="evenodd" clip-rule="evenodd" d="M33.5957 24.1156C33.5957 22.7427 34.7127 21.6257 36.0856 21.6257C37.4585 21.6257 38.5755 22.7427 38.5755 24.1156C38.5755 25.4886 37.4585 26.6055 36.0856 26.6055C34.7127 26.6055 33.5957 25.4885 33.5957 24.1156ZM34.9803 24.1156C34.9803 24.7251 35.4761 25.221 36.0856 25.221C36.6951 25.221 37.1909 24.7251 37.1909 24.1156C37.1909 23.5062 36.695 23.0103 36.0856 23.0103C35.476 23.0103 34.9803 23.5062 34.9803 24.1156Z" fill="#3A6EF4"/>
</svg>
