<svg width="49" height="48" viewBox="0 0 49 48" fill="none" xmlns="http://www.w3.org/2000/svg">
<path fill-rule="evenodd" clip-rule="evenodd" d="M43.2826 1.48257L46.1612 4.36126C48.0378 6.23794 48.1545 9.39892 46.421 11.4076L42.1393 16.3694C42.0834 16.4343 42.0175 16.4898 41.9443 16.5342L33.6201 21.5606L32.5657 24.7238C32.4767 24.9911 32.2556 25.1931 31.9815 25.2577C31.9197 25.2723 31.8571 25.2794 31.7948 25.2794C31.5819 25.2794 31.3744 25.1956 31.2202 25.0415L22.6022 16.4236C22.4031 16.2244 22.3213 15.9364 22.386 15.6623C22.4506 15.3883 22.6527 15.1672 22.9199 15.0781L26.0821 14.024L31.007 5.82044C31.0512 5.74699 31.1067 5.68093 31.1715 5.62479L36.2308 1.2393C38.2419 -0.503954 41.4052 -0.394761 43.2826 1.48257ZM40.9936 15.2097L45.1908 10.3459C46.3803 8.96758 46.3002 6.79832 45.0121 5.51046L42.1334 2.63177C40.846 1.34419 38.6756 1.27046 37.2952 2.46718L32.3337 6.76791L27.3205 15.1181C27.2208 15.2843 27.0648 15.4093 26.8809 15.4707L24.6809 16.204L26.6231 18.1462L26.624 18.1469L29.4968 21.0195L29.4979 21.0207L31.4398 22.9627L32.1731 20.7628C32.2342 20.5794 32.3586 20.4239 32.5239 20.324L40.9936 15.2097Z" fill="#3A6EF4"/>
<path fill-rule="evenodd" clip-rule="evenodd" d="M43.8583 32.6476C41.4727 30.2621 37.9616 29.4329 34.7804 30.4642L17.5124 13.1962C18.5436 10.015 17.7144 6.50382 15.329 4.11823C12.8158 1.6052 9.05338 0.81905 5.74353 2.11627C5.48837 2.21629 5.30067 2.43823 5.24463 2.70658C5.18858 2.97484 5.27157 3.25339 5.46545 3.44726L10.6342 8.61592L7.1869 12.0631L2.01824 6.89437C1.82428 6.70059 1.5461 6.61779 1.27756 6.67355C1.00921 6.7296 0.787177 6.9172 0.687247 7.17245C-0.609782 10.4821 0.17609 14.2446 2.68921 16.7579C5.0748 19.1434 8.58591 19.9728 11.7671 18.9413L18.224 25.3982L10.1831 33.4393L5.06891 36.2987C4.92669 36.3783 4.8116 36.4988 4.73871 36.6445L2.4406 41.2408C2.28416 41.5536 2.34545 41.9314 2.59274 42.1788L5.46535 45.0515C5.62133 45.2074 5.82933 45.2894 6.04014 45.2894C6.16355 45.2894 6.2879 45.2613 6.40336 45.2036L10.9996 42.9055C11.1454 42.8326 11.2659 42.7175 11.3454 42.5753L14.2048 37.461L22.2459 29.4202L29.0352 36.2096C28.0039 39.3907 28.8332 42.902 31.2187 45.2875C32.9275 46.9963 35.2137 47.9065 37.5425 47.9065C38.6388 47.9064 39.7447 47.7047 40.8041 47.2896C41.0593 47.1896 41.247 46.9676 41.303 46.6993C41.3591 46.431 41.2761 46.1525 41.0822 45.9586L35.9134 40.7899L39.3606 37.3427L44.5293 42.5114C44.7232 42.7053 45.0015 42.7885 45.27 42.7322C45.5383 42.6762 45.7604 42.4886 45.8603 42.2333C47.1574 38.9235 46.3716 35.1609 43.8583 32.6476ZM12.9759 36.3915C12.923 36.4444 12.8778 36.5043 12.8414 36.5696L10.049 41.5638L6.20042 43.4882L4.15597 41.4437L6.08018 37.595L11.0743 34.8028C11.1396 34.7663 11.1995 34.7211 11.2524 34.6682L19.373 26.5475L21.0966 28.2711L12.9759 36.3915ZM39.9352 35.619L44.712 40.3958C45.1829 38.0275 44.456 35.5434 42.7092 33.7966C40.6528 31.7404 37.5742 31.0976 34.8658 32.1587C34.5653 32.2765 34.2232 32.2051 33.9948 31.9768L15.9998 13.9819C15.7715 13.7535 15.7001 13.4116 15.8179 13.1109C16.8792 10.4026 16.2362 7.32375 14.1798 5.26742C12.4331 3.52062 9.94938 2.79304 7.58081 3.26462L12.3576 8.04151C12.6749 8.35889 12.6749 8.87323 12.3576 9.19061L7.7614 13.7868C7.44402 14.1039 6.92968 14.1041 6.6123 13.7868L1.8355 9.00993C1.36458 11.3783 2.0916 13.8623 3.83822 15.609C5.89464 17.6652 8.97347 18.3085 11.6817 17.247C11.7779 17.2093 11.8784 17.191 11.9779 17.191C12.1896 17.191 12.3974 17.2737 12.5527 17.4289L30.5478 35.424C30.7761 35.6524 30.8475 35.9943 30.7297 36.295C29.6684 39.0033 30.3115 42.0821 32.3678 44.1384C34.1143 45.885 36.5983 46.6119 38.9668 46.1413L34.1899 41.3644C34.0376 41.2118 33.952 41.0053 33.952 40.7898C33.952 40.5742 34.0376 40.3676 34.1899 40.2152L38.7861 35.619C39.1035 35.3018 39.6179 35.3018 39.9352 35.619Z" fill="#3A6EF4"/>
</svg>
