<svg width="24" height="25" viewBox="0 0 24 25" fill="none" xmlns="http://www.w3.org/2000/svg">
<rect x="0.5" y="0.888184" width="22.8835" height="22.8835" rx="3.5" stroke="white"/>
<mask id="mask0_1_2212" style="mask-type:alpha" maskUnits="userSpaceOnUse" x="1" y="1" width="22" height="23">
<rect x="1.19312" y="1.5824" width="21.4951" height="21.4951" fill="#D9D9D9"/>
</mask>
<g mask="url(#mask0_1_2212)">
<path d="M11.9406 11.4344L18.9713 6.95624H4.90992L11.9406 11.4344Z" fill="white"/>
<path d="M11.9406 12.8226L4.77558 8.2549V17.4351C4.77558 17.5098 4.80185 17.5733 4.85439 17.6259C4.90634 17.6778 4.96963 17.7038 5.04427 17.7038H18.837C18.9116 17.7038 18.9752 17.6778 19.0278 17.6259C19.0797 17.5733 19.1057 17.5098 19.1057 17.4351V8.2549L11.9406 12.8226Z" fill="white"/>
<path fill-rule="evenodd" clip-rule="evenodd" d="M5.04427 17.7038C4.96963 17.7038 4.90634 17.6778 4.85439 17.6259C4.80185 17.5733 4.77558 17.5098 4.77558 17.4351V17.7038H5.04427Z" fill="white"/>
</g>
</svg>
