<svg width="304" height="88" viewBox="0 0 304 88" fill="none" xmlns="http://www.w3.org/2000/svg">
<path d="M151.726 17.3223H127.03H125.383L124.56 17.5335L123.325 17.956L122.296 18.5898L121.473 19.2236L120.65 20.0686L119.621 21.3361L119.003 22.3924L118.18 23.6599L117.769 24.9275L117.357 26.4062V36.124V48.588L117.769 50.2781L118.386 51.7569L119.003 53.4469L120.032 54.9257L121.473 56.1932L122.914 57.2495L125.177 58.0945L127.03 58.517H151.932V49.4331H127.853V27.04H151.726V17.3223Z" fill="#014D99" stroke="#014D99"/>
<path d="M157.078 27.2516V17.7451H183.832L185.685 18.3789L186.919 19.2239L188.154 20.0689L189.183 21.1252L190.212 22.3927L190.83 23.6603L191.447 25.1391V36.1243V51.9685L190.83 53.6585L190.212 54.7148L189.183 55.9823L188.154 57.2499L186.919 57.8836L185.685 58.3061L183.421 58.7286H164.281L162.223 58.3061L160.783 57.2499L159.548 55.9823L158.519 54.7148L157.901 53.6585L157.078 51.9685V42.0395L157.901 39.9269L158.519 38.2369L159.548 36.7581L160.783 35.7018L162.223 34.8568L164.281 34.0118H178.07V42.8845H167.78H167.368V49.4334H181.363V27.2516H157.078Z" fill="#014D99" stroke="#014D99"/>
<path d="M204.627 17.957H223.766V27.2523H207.302V58.9406H197.218V26.196L197.835 24.0834L198.864 22.3934L199.893 20.9146L201.54 19.4358L203.803 17.957H204.627Z" fill="#014D99" stroke="#014D99"/>
<path d="M236.726 17.957H255.248L257.306 18.5908L258.952 19.6471L260.393 20.9146L261.628 22.3934L262.451 24.0834L263.068 25.7735V35.28L262.451 37.1813L261.628 38.66L260.393 40.1388L258.952 41.6176L257.306 42.6739L256.483 43.0964H242.077V33.5899H252.984V27.4635H239.195V49.4341H263.274V59.1518H236.52L234.874 58.518L233.021 57.4618L231.169 55.7717L229.934 54.0817L229.111 51.5466L228.905 25.7735L229.523 24.0834L230.346 22.3934L231.581 20.9146L233.021 19.6471L234.668 18.5908L236.726 17.957Z" fill="#014D99" stroke="#014D99"/>
<path d="M268.424 17.7451H302.999V27.4629H290.857V58.9399H280.361V27.4629H268.424V17.7451Z" fill="#014D99" stroke="#014D99"/>
<path d="M31.1523 53.0362L8.25734 38.0132L69.2756 39.8283L31.1523 53.0362Z" fill="#42C0F0"/>
<path d="M21.9889 79.6996L69.2755 39.8284L31.375 52.9702L21.9889 79.6996Z" fill="#1A8ACA"/>
<path fill-rule="evenodd" clip-rule="evenodd" d="M42.167 35.113C42.1556 35.2059 42.1446 35.2989 42.1342 35.392L32.2025 34.2243L27.7334 33.6989C27.7505 33.5459 27.7684 33.3931 27.7873 33.2406C28.1849 30.0227 28.9794 26.8899 30.1387 23.9128C31.8742 19.4557 34.4273 15.3474 37.6903 11.8245C43.2361 5.83697 50.5308 1.86638 58.4707 0.513402C66.4106 -0.839573 74.5638 0.498685 81.6968 4.32572C88.8298 8.15275 94.5545 14.2603 98.0049 21.7245C101.455 29.1886 102.444 37.6032 100.82 45.6953C99.197 53.7873 95.0504 61.1166 89.0079 66.5742C82.9654 72.0318 75.3557 75.3208 67.3301 75.9437C62.6709 76.3053 58.0187 75.757 53.6105 74.3601C50.9743 73.5248 48.4253 72.3861 46.0142 70.957C45.5121 70.6594 45.0159 70.3492 44.5262 70.0265L47.0532 65.9855L52.3562 57.5051C52.6544 57.7016 52.9564 57.8904 53.2621 58.0716C57.1839 60.396 61.7052 61.4587 66.2372 61.107C71.1225 60.7278 75.7547 58.7258 79.4328 55.4036C83.111 52.0815 85.635 47.6201 86.6231 42.6944C87.6113 37.7687 87.0097 32.6466 84.9094 28.1031C82.8091 23.5595 79.3244 19.8418 74.9824 17.5122C70.6405 15.1826 65.6775 14.368 60.8444 15.1916C56.0113 16.0152 51.5709 18.4321 48.1951 22.0768C44.8822 25.6536 42.7715 30.2218 42.167 35.113Z" fill="#014D99"/>
</svg>
