<svg width="18" height="18" viewBox="0 0 18 18" fill="none" xmlns="http://www.w3.org/2000/svg">
<path d="M8.8716 8.07067C9.90357 8.07067 10.7823 7.70672 11.5128 6.97628C12.243 6.24592 12.6071 5.36728 12.6071 4.3352C12.6071 3.30352 12.2431 2.42474 11.5126 1.69411C10.7822 0.963931 9.9034 0.6 8.8716 0.6C7.83948 0.6 6.96087 0.963963 6.23055 1.69428C5.5002 2.42463 5.13613 3.3034 5.13613 4.3352C5.13613 5.36724 5.50018 6.24596 6.23045 6.97628C6.23048 6.97632 6.23052 6.97635 6.23055 6.97639M8.8716 8.07067L11.9371 7.40051C11.0941 8.24344 10.0628 8.67067 8.8716 8.67067C7.68069 8.67067 6.64935 8.2433 5.80629 7.40065L6.23055 6.97639M8.8716 8.07067C7.84001 8.07067 6.96122 7.70665 6.23055 6.97639M8.8716 8.07067L6.23055 6.97639" stroke="#202B3B" stroke-width="1.2"/>
<path d="M15.8591 13.8831L15.8591 13.8826C15.8365 13.5568 15.7904 13.196 15.7212 12.8097C15.6523 12.4257 15.5643 12.0669 15.4607 11.7433L15.8591 13.8831ZM15.8591 13.8831C15.8821 14.2111 15.8939 14.5548 15.894 14.9043L15.8591 13.8831ZM2.11111 13.8829L2.1111 13.8831C2.08821 14.2123 2.07656 14.5562 2.07656 14.9044C2.07656 15.7075 2.32658 16.3011 2.77787 16.731L2.11111 13.8829ZM2.11111 13.8829C2.1337 13.5562 2.17967 13.1952 2.24893 12.8099L2.24895 12.8097M2.11111 13.8829L2.24895 12.8097M2.24895 12.8097C2.31788 12.4257 2.4059 12.067 2.50942 11.7433L2.24895 12.8097ZM2.9298 10.79L2.92976 10.7901C2.75405 11.0994 2.61284 11.4203 2.50948 11.7431L2.9298 10.79ZM2.9298 10.79C3.10681 10.4783 3.3104 10.2151 3.53149 10.0036L2.9298 10.79ZM4.35607 9.48805L4.35598 9.48809C4.02508 9.61909 3.75017 9.79431 3.5315 10.0035L4.35607 9.48805ZM4.35607 9.48805C4.6734 9.36236 5.03479 9.2947 5.43493 9.2947C5.43814 9.2947 5.44033 9.29485 5.445 9.29588C5.45081 9.29716 5.46562 9.30102 5.49309 9.31267C5.55383 9.33845 5.64867 9.38998 5.81174 9.49623L5.81176 9.49625M4.35607 9.48805L5.81176 9.49625M5.81176 9.49625C6.02795 9.6371 6.27667 9.79738 6.55092 9.97263L6.55119 9.9728M5.81176 9.49625L6.55119 9.9728M6.55119 9.9728C6.84512 10.1604 7.21691 10.3201 7.63848 10.4562L6.55119 9.9728ZM14.4384 10.0035L14.4383 10.0034C14.2199 9.79445 13.945 9.61918 13.6137 9.48787C13.2963 9.36235 12.9348 9.29484 12.5348 9.29484C12.5316 9.29484 12.5294 9.29499 12.5247 9.29602C12.5189 9.29731 12.5041 9.30117 12.4766 9.31284C12.4157 9.33864 12.3208 9.39021 12.1576 9.49649L14.4384 10.0035ZM14.4384 10.0035C14.6593 10.2148 14.8629 10.4781 15.0401 10.7901L15.0403 10.7904M14.4384 10.0035L15.0403 10.7904M15.0403 10.7904C15.2161 11.0994 15.3572 11.4203 15.4606 11.7432L15.0403 10.7904ZM11.4186 9.97292L11.4192 9.97251L7.63866 10.4563C8.08044 10.5991 8.53343 10.6731 8.98474 10.6731C9.43625 10.6731 9.88924 10.5992 10.3308 10.4563C10.753 10.3199 11.1245 10.1603 11.4186 9.97292ZM15.894 14.9045C15.894 15.708 15.6438 16.3017 15.1926 16.731C14.7406 17.161 14.128 17.4 13.3188 17.4H4.65174C3.84232 17.4 3.22987 17.1611 2.77806 16.7312L15.894 14.9045Z" stroke="#202B3B" stroke-width="1.2"/>
</svg>
