<svg width="39" height="39" viewBox="0 0 39 39" fill="none" xmlns="http://www.w3.org/2000/svg">
<g clip-path="url(#clip0)">
<path d="M38.9248 21.3015C38.5746 17.7794 37.0011 14.4589 34.494 11.9517C32.3514 9.80917 29.7289 8.43235 26.9695 7.82014V5.88474C28.0965 5.60435 28.9343 4.58416 28.9343 3.37156C28.9343 1.94347 27.7725 0.781677 26.3444 0.781677H20.8599C19.4318 0.781677 18.27 1.94347 18.27 3.37156C18.27 4.58408 19.1078 5.60427 20.2348 5.88474V7.82555C17.4838 8.44035 14.87 9.81527 12.7335 11.9518C12.2659 12.4193 11.8348 12.9098 11.4401 13.4195C11.421 13.4181 11.4019 13.4167 11.3824 13.4167H5.95422C5.53359 13.4167 5.19249 13.7577 5.19249 14.1784C5.19249 14.5991 5.53359 14.9401 5.95422 14.9401H10.4036C9.84514 15.8751 9.3948 16.8571 9.05203 17.8679H0.761731C0.341103 17.8679 0 18.2089 0 18.6296C0 19.0503 0.341103 19.3914 0.761731 19.3914H8.62157C8.40204 20.355 8.27605 21.3358 8.24353 22.3192H4.87508C4.45445 22.3192 4.11335 22.6603 4.11335 23.081C4.11335 23.5017 4.45445 23.8427 4.87508 23.8427H8.26783C8.33212 24.8287 8.49063 25.8095 8.74345 26.7706H3.80865C3.38803 26.7706 3.04692 27.1116 3.04692 27.5323C3.04692 27.953 3.38803 28.294 3.80865 28.294H9.22959C9.97684 30.2708 11.1447 32.1235 12.7335 33.7124C15.2431 36.222 18.567 37.7958 22.0927 38.1442C22.5959 38.1938 23.0995 38.2185 23.6024 38.2185C26.5748 38.2185 29.5094 37.3582 31.9995 35.7367C32.3521 35.5071 32.4518 35.0352 32.2222 34.6827C31.9926 34.3301 31.5207 34.2304 31.1682 34.46C25.7175 38.0094 18.4176 37.242 13.8107 32.6351C8.40532 27.2297 8.40532 18.4346 13.8107 13.0291C19.216 7.62377 28.0112 7.62377 33.4167 13.0291C38.0174 17.6299 38.7891 24.9236 35.2514 30.3716C35.0222 30.7245 35.1226 31.1963 35.4753 31.4253C35.8283 31.6545 36.3 31.5541 36.529 31.2013C38.4192 28.2904 39.27 24.7746 38.9248 21.3015ZM19.7935 3.37164C19.7935 2.78358 20.2719 2.30521 20.8599 2.30521H26.3444C26.9324 2.30521 27.4108 2.78358 27.4108 3.37164C27.4108 3.95969 26.9324 4.43806 26.3444 4.43806H26.2077H20.9965H20.8599C20.2719 4.43806 19.7935 3.95962 19.7935 3.37164ZM21.7582 7.56367V5.96152H25.446V7.56093C24.2214 7.41528 22.9826 7.4162 21.7582 7.56367Z" fill="#202B3B"/>
<path d="M33.9557 32.4116C33.7546 32.4116 33.5588 32.4931 33.4172 32.6348C33.2748 32.7765 33.194 32.973 33.194 33.1733C33.194 33.3737 33.2748 33.5702 33.4172 33.7119C33.5588 33.8543 33.7547 33.9351 33.9557 33.9351C34.156 33.9351 34.3518 33.8543 34.4942 33.7119C34.6359 33.5702 34.7174 33.3737 34.7174 33.1733C34.7174 32.973 34.636 32.7765 34.4942 32.6348C34.3518 32.4931 34.1559 32.4116 33.9557 32.4116Z" fill="#202B3B"/>
<path d="M23.6138 11.0153C17.0981 11.0153 11.7971 16.3162 11.7971 22.832C11.7971 29.3478 17.0981 34.6486 23.6138 34.6486C30.1295 34.6486 35.4304 29.3478 35.4304 22.832C35.4304 16.3162 30.1295 11.0153 23.6138 11.0153ZM23.6138 33.1252C17.938 33.1252 13.3206 28.5076 13.3206 22.832C13.3206 17.1563 17.938 12.5388 23.6138 12.5388C29.2895 12.5388 33.907 17.1563 33.907 22.832C33.907 28.5076 29.2895 33.1252 23.6138 33.1252Z" fill="#202B3B"/>
<path d="M28.4321 16.9363L24.6593 20.7091C24.3437 20.5531 23.9889 20.465 23.6137 20.465C23.2385 20.465 22.8837 20.5531 22.5682 20.7091L20.8796 19.0206C20.5821 18.7231 20.0999 18.7231 19.8023 19.0206C19.5049 19.3181 19.5049 19.8004 19.8023 20.0978L21.4908 21.7864C21.3348 22.1019 21.2467 22.4568 21.2467 22.8319C21.2467 24.1371 22.3085 25.1989 23.6137 25.1989C24.9189 25.1989 25.9807 24.1371 25.9807 22.8319C25.9807 22.4568 25.8926 22.1019 25.7366 21.7864L29.3987 18.1243L29.5093 18.0136C29.8068 17.7161 29.8068 17.2338 29.5093 16.9363C29.2119 16.6389 28.7297 16.6389 28.4321 16.9363ZM23.6137 23.6755C23.1486 23.6755 22.7702 23.2971 22.7702 22.832C22.7702 22.3669 23.1486 21.9885 23.6137 21.9885C24.0788 21.9885 24.4572 22.3669 24.4572 22.832C24.4572 23.2971 24.0788 23.6755 23.6137 23.6755Z" fill="#202B3B"/>
<path d="M31.758 22.0795H31.0522C30.6316 22.0795 30.2905 22.4206 30.2905 22.8412C30.2905 23.2619 30.6316 23.603 31.0522 23.603H31.758C32.1786 23.603 32.5197 23.2619 32.5197 22.8412C32.5197 22.4206 32.1786 22.0795 31.758 22.0795Z" fill="#202B3B"/>
<path d="M16.175 22.0609H15.4694C15.0487 22.0609 14.7076 22.4019 14.7076 22.8226C14.7076 23.2433 15.0487 23.5844 15.4694 23.5844H16.175C16.5956 23.5844 16.9367 23.2433 16.9367 22.8226C16.9367 22.4019 16.5956 22.0609 16.175 22.0609Z" fill="#202B3B"/>
<path d="M23.623 16.155C24.0437 16.155 24.3848 15.814 24.3848 15.3933V14.6876C24.3848 14.2669 24.0437 13.9259 23.623 13.9259C23.2024 13.9259 22.8613 14.2669 22.8613 14.6876V15.3933C22.8613 15.814 23.2024 16.155 23.623 16.155Z" fill="#202B3B"/>
<path d="M23.6045 29.5089C23.1839 29.5089 22.8428 29.8499 22.8428 30.2706V30.9763C22.8428 31.397 23.1839 31.738 23.6045 31.738C24.0251 31.738 24.3662 31.397 24.3662 30.9763V30.2706C24.3662 29.8499 24.0251 29.5089 23.6045 29.5089Z" fill="#202B3B"/>
<path d="M0.761719 26.7703C0.561387 26.7703 0.364863 26.8518 0.223184 26.9934C0.0815039 27.1351 0 27.3317 0 27.532C0 27.7331 0.0814277 27.9288 0.223184 28.0705C0.364939 28.2122 0.561387 28.2937 0.761719 28.2937C0.962051 28.2937 1.15857 28.2122 1.30018 28.0705C1.44186 27.9288 1.52344 27.7323 1.52344 27.532C1.52344 27.3317 1.44193 27.1351 1.30018 26.9934C1.15857 26.8518 0.962051 26.7703 0.761719 26.7703Z" fill="#202B3B"/>
</g>
<defs>
<clipPath id="clip0">
<rect width="39" height="39" fill="white"/>
</clipPath>
</defs>
</svg>
