<svg width="60" height="60" viewBox="0 0 60 60" fill="none" xmlns="http://www.w3.org/2000/svg">
<circle cx="30" cy="30" r="30" fill="#5DAAD6"/>
<g clip-path="url(#clip0)">
<path d="M41.0195 30.2286C40.7315 30.2286 40.498 29.9994 40.498 29.716C40.498 29.4327 40.7315 29.2018 41.0195 29.2018C41.3074 29.2018 41.5409 29.4304 41.5409 29.7138V29.7149C41.5409 29.9983 41.3074 30.2286 41.0195 30.2286Z" fill="white"/>
<path d="M37.1956 47.3339H18.9407C16.5448 47.3339 14.5957 45.4156 14.5957 43.0577V19.4299C14.5957 19.2939 14.6506 19.1633 14.7484 19.067L21.6773 12.2478C21.7751 12.1516 21.9077 12.0975 22.046 12.0975H37.1956C39.5916 12.0975 41.5407 14.0158 41.5407 16.3738V24.184C41.5407 24.4673 41.3072 24.6971 41.0193 24.6971C40.7313 24.6971 40.4979 24.4673 40.4979 24.184V16.3738C40.4979 14.5818 39.0165 13.1238 37.1956 13.1238H22.262L15.6385 19.6425V43.0577C15.6385 44.8497 17.1199 46.3076 18.9407 46.3076H37.1956C39.0165 46.3076 40.4979 44.8497 40.4979 43.0577V35.2475C40.4979 34.9641 40.7313 34.7343 41.0193 34.7343C41.3072 34.7343 41.5407 34.9641 41.5407 35.2475V43.0577C41.5407 45.4156 39.5916 47.3339 37.1956 47.3339Z" fill="white"/>
<path d="M22.0467 19.942H15.1181C14.9072 19.942 14.7171 19.817 14.6364 19.6252C14.5557 19.4334 14.6003 19.2128 14.7494 19.066L21.678 12.247C21.827 12.1003 22.0514 12.0561 22.2462 12.1358C22.4411 12.2152 22.5681 12.4023 22.5681 12.6099V19.4289C22.5681 19.7123 22.3347 19.942 22.0467 19.942ZM16.3768 18.9157H21.5253V13.8486L16.3768 18.9157Z" fill="white"/>
<path d="M36.0011 19.7655H28.0683C27.7803 19.7655 27.5469 19.5357 27.5469 19.2523C27.5469 18.9689 27.7803 18.7392 28.0683 18.7392H36.0011C36.2891 18.7392 36.5225 18.9689 36.5225 19.2523C36.5225 19.5357 36.2892 19.7655 36.0011 19.7655Z" fill="white"/>
<path d="M36.0013 24.9968H20.1357C19.8477 24.9968 19.6143 24.767 19.6143 24.4836C19.6143 24.2002 19.8477 23.9705 20.1357 23.9705H36.0013C36.2892 23.9705 36.5227 24.2002 36.5227 24.4836C36.5227 24.767 36.2893 24.9968 36.0013 24.9968Z" fill="white"/>
<path d="M35.3989 30.2281H20.1357C19.8477 30.2281 19.6143 29.9983 19.6143 29.7149C19.6143 29.4315 19.8477 29.2018 20.1357 29.2018H35.3989C35.6868 29.2018 35.9203 29.4315 35.9203 29.7149C35.9203 29.9983 35.6869 30.2281 35.3989 30.2281Z" fill="white"/>
<path d="M36.0013 35.4593H20.1357C19.8477 35.4593 19.6143 35.2296 19.6143 34.9462C19.6143 34.6628 19.8477 34.433 20.1357 34.433H36.0013C36.2892 34.433 36.5227 34.6628 36.5227 34.9462C36.5227 35.2296 36.2893 35.4593 36.0013 35.4593Z" fill="white"/>
<path d="M36.0013 40.6905H20.1357C19.8477 40.6905 19.6143 40.4607 19.6143 40.1774C19.6143 39.894 19.8477 39.6642 20.1357 39.6642H36.0013C36.2892 39.6642 36.5227 39.894 36.5227 40.1774C36.5227 40.4607 36.2893 40.6905 36.0013 40.6905Z" fill="white"/>
<path d="M41.0192 35.76C37.6324 35.76 34.877 33.0482 34.877 29.7149C34.877 26.3816 37.6324 23.6699 41.0192 23.6699C44.406 23.6699 47.1614 26.3816 47.1614 29.7149C47.1614 33.0482 44.406 35.76 41.0192 35.76ZM41.0192 24.6962C38.2073 24.6962 35.9198 26.9476 35.9198 29.7149C35.9198 32.4823 38.2073 34.7337 41.0192 34.7337C43.8311 34.7337 46.1186 32.4823 46.1186 29.7149C46.1186 26.9476 43.8311 24.6962 41.0192 24.6962Z" fill="white"/>
<path d="M42.9597 32.1377C42.8263 32.1377 42.6929 32.0876 42.591 31.9874L38.7103 28.1682C38.5067 27.9678 38.5067 27.6428 38.7103 27.4425C38.914 27.2421 39.244 27.2421 39.4477 27.4425L43.3284 31.2618C43.532 31.4622 43.532 31.787 43.3284 31.9874C43.2266 32.0876 43.0932 32.1377 42.9597 32.1377Z" fill="white"/>
<path d="M39.079 32.1377C38.9455 32.1377 38.8121 32.0876 38.7103 31.9874C38.5067 31.787 38.5067 31.4622 38.7103 31.2618L42.591 27.4425C42.7947 27.2421 43.1247 27.2421 43.3284 27.4425C43.532 27.6428 43.532 27.9678 43.3284 28.1682L39.4477 31.9874C39.346 32.0876 39.2125 32.1377 39.079 32.1377Z" fill="white"/>
</g>
<defs>
<clipPath id="clip0">
<rect width="33.8462" height="35.3846" fill="white" transform="translate(13.8457 12.3077)"/>
</clipPath>
</defs>
</svg>
