<svg width="76" height="76" viewBox="0 0 76 76" fill="none" xmlns="http://www.w3.org/2000/svg">
<circle cx="38" cy="38" r="38" fill="#F4F5F7"/>
<path d="M38 0C44.2491 7.45202e-08 50.4018 1.54117 55.9131 4.48699C61.4243 7.43281 66.124 11.6924 69.5958 16.8883C73.0677 22.0843 75.2045 28.0563 75.817 34.2753C76.4295 40.4944 75.4989 46.7685 73.1074 52.542C70.716 58.3154 66.9376 63.41 62.1069 67.3744C57.2763 71.3388 51.5425 74.0507 45.4134 75.2698C39.2844 76.489 32.9492 76.1778 26.9692 74.3637C20.9891 72.5497 15.5488 69.2889 11.13 64.8701L38 38V0Z" fill="#5DAAD6"/>
<rect x="6" y="6" width="64" height="64" rx="32" fill="white"/>
<g clip-path="url(#clip0)">
<path d="M57.9248 38.3015C57.5746 34.7794 56.0011 31.4589 53.494 28.9517C51.3514 26.8092 48.7289 25.4323 45.9695 24.8201V22.8847C47.0965 22.6043 47.9343 21.5842 47.9343 20.3716C47.9343 18.9435 46.7725 17.7817 45.3444 17.7817H39.8599C38.4318 17.7817 37.27 18.9435 37.27 20.3716C37.27 21.5841 38.1078 22.6043 39.2348 22.8847V24.8256C36.4838 25.4403 33.87 26.8153 31.7335 28.9518C31.2659 29.4193 30.8348 29.9098 30.4401 30.4195C30.421 30.4181 30.4019 30.4167 30.3824 30.4167H24.9542C24.5336 30.4167 24.1925 30.7577 24.1925 31.1784C24.1925 31.5991 24.5336 31.9401 24.9542 31.9401H29.4036C28.8451 32.8751 28.3948 33.8571 28.052 34.8679H19.7617C19.3411 34.8679 19 35.2089 19 35.6296C19 36.0503 19.3411 36.3914 19.7617 36.3914H27.6216C27.402 37.355 27.2761 38.3358 27.2435 39.3192H23.8751C23.4544 39.3192 23.1133 39.6603 23.1133 40.081C23.1133 40.5017 23.4544 40.8427 23.8751 40.8427H27.2678C27.3321 41.8287 27.4906 42.8095 27.7434 43.7706H22.8087C22.388 43.7706 22.0469 44.1116 22.0469 44.5323C22.0469 44.953 22.388 45.294 22.8087 45.294H28.2296C28.9768 47.2708 30.1447 49.1235 31.7335 50.7124C34.2431 53.222 37.567 54.7958 41.0927 55.1442C41.5959 55.1938 42.0995 55.2185 42.6024 55.2185C45.5748 55.2185 48.5094 54.3582 50.9995 52.7367C51.3521 52.5071 51.4518 52.0352 51.2222 51.6827C50.9926 51.3301 50.5207 51.2304 50.1682 51.46C44.7175 55.0094 37.4176 54.242 32.8107 49.6351C27.4053 44.2297 27.4053 35.4346 32.8107 30.0291C38.216 24.6238 47.0112 24.6238 52.4167 30.0291C57.0174 34.6299 57.7891 41.9236 54.2514 47.3716C54.0222 47.7245 54.1226 48.1963 54.4753 48.4253C54.8283 48.6545 55.3 48.5541 55.529 48.2013C57.4192 45.2904 58.27 41.7746 57.9248 38.3015ZM38.7935 20.3716C38.7935 19.7836 39.2719 19.3052 39.8599 19.3052H45.3444C45.9324 19.3052 46.4108 19.7836 46.4108 20.3716C46.4108 20.9597 45.9324 21.4381 45.3444 21.4381H45.2077H39.9965H39.8599C39.2719 21.4381 38.7935 20.9596 38.7935 20.3716ZM40.7582 24.5637V22.9615H44.446V24.5609C43.2214 24.4153 41.9826 24.4162 40.7582 24.5637Z" fill="#202B3B"/>
<path d="M52.9557 49.4117C52.7546 49.4117 52.5588 49.4932 52.4172 49.6348C52.2748 49.7765 52.194 49.973 52.194 50.1734C52.194 50.3737 52.2748 50.5702 52.4172 50.7119C52.5588 50.8543 52.7547 50.9351 52.9557 50.9351C53.156 50.9351 53.3518 50.8543 53.4942 50.7119C53.6359 50.5702 53.7174 50.3737 53.7174 50.1734C53.7174 49.973 53.636 49.7765 53.4942 49.6348C53.3518 49.4932 53.1559 49.4117 52.9557 49.4117Z" fill="#202B3B"/>
<path d="M42.6138 28.0153C36.0981 28.0153 30.7971 33.3162 30.7971 39.832C30.7971 46.3478 36.0981 51.6486 42.6138 51.6486C49.1295 51.6486 54.4304 46.3478 54.4304 39.832C54.4304 33.3162 49.1295 28.0153 42.6138 28.0153ZM42.6138 50.1252C36.938 50.1252 32.3206 45.5076 32.3206 39.832C32.3206 34.1563 36.938 29.5388 42.6138 29.5388C48.2895 29.5388 52.907 34.1563 52.907 39.832C52.907 45.5076 48.2895 50.1252 42.6138 50.1252Z" fill="#202B3B"/>
<path d="M47.4321 33.9363L43.6593 37.7091C43.3437 37.5531 42.9889 37.465 42.6137 37.465C42.2385 37.465 41.8837 37.5531 41.5682 37.7091L39.8796 36.0206C39.5821 35.7231 39.0999 35.7231 38.8023 36.0206C38.5049 36.318 38.5049 36.8004 38.8023 37.0978L40.4908 38.7863C40.3348 39.1018 40.2467 39.4567 40.2467 39.8319C40.2467 41.137 41.3085 42.1989 42.6137 42.1989C43.9189 42.1989 44.9807 41.137 44.9807 39.8319C44.9807 39.4567 44.8926 39.1018 44.7366 38.7863L48.3987 35.1242L48.5093 35.0136C48.8068 34.7161 48.8068 34.2338 48.5093 33.9363C48.2119 33.6389 47.7297 33.6389 47.4321 33.9363ZM42.6137 40.6755C42.1486 40.6755 41.7702 40.2971 41.7702 39.832C41.7702 39.3669 42.1486 38.9884 42.6137 38.9884C43.0788 38.9884 43.4572 39.3669 43.4572 39.832C43.4572 40.2971 43.0788 40.6755 42.6137 40.6755Z" fill="#202B3B"/>
<path d="M50.758 39.0795H50.0522C49.6316 39.0795 49.2905 39.4206 49.2905 39.8412C49.2905 40.2619 49.6316 40.603 50.0522 40.603H50.758C51.1786 40.603 51.5197 40.2619 51.5197 39.8412C51.5197 39.4206 51.1786 39.0795 50.758 39.0795Z" fill="#202B3B"/>
<path d="M35.175 39.0609H34.4694C34.0487 39.0609 33.7076 39.402 33.7076 39.8227C33.7076 40.2434 34.0487 40.5844 34.4694 40.5844H35.175C35.5956 40.5844 35.9367 40.2434 35.9367 39.8227C35.9367 39.402 35.5956 39.0609 35.175 39.0609Z" fill="#202B3B"/>
<path d="M42.623 33.155C43.0437 33.155 43.3848 32.814 43.3848 32.3933V31.6876C43.3848 31.2669 43.0437 30.9259 42.623 30.9259C42.2024 30.9259 41.8613 31.2669 41.8613 31.6876V32.3933C41.8613 32.814 42.2024 33.155 42.623 33.155Z" fill="#202B3B"/>
<path d="M42.6045 46.5089C42.1839 46.5089 41.8428 46.8499 41.8428 47.2706V47.9763C41.8428 48.397 42.1839 48.738 42.6045 48.738C43.0251 48.738 43.3662 48.397 43.3662 47.9763V47.2706C43.3662 46.8499 43.0251 46.5089 42.6045 46.5089Z" fill="#202B3B"/>
<path d="M19.7617 43.7703C19.5614 43.7703 19.3649 43.8518 19.2232 43.9934C19.0815 44.1351 19 44.3317 19 44.532C19 44.7331 19.0814 44.9288 19.2232 45.0705C19.3649 45.2122 19.5614 45.2937 19.7617 45.2937C19.9621 45.2937 20.1586 45.2122 20.3002 45.0705C20.4419 44.9288 20.5234 44.7323 20.5234 44.532C20.5234 44.3317 20.4419 44.1351 20.3002 43.9934C20.1586 43.8518 19.9621 43.7703 19.7617 43.7703Z" fill="#202B3B"/>
</g>
<defs>
<clipPath id="clip0">
<rect width="39" height="39" fill="white" transform="translate(19 17)"/>
</clipPath>
</defs>
</svg>
