<svg width="18" height="18" viewBox="0 0 18 18" fill="none" xmlns="http://www.w3.org/2000/svg">
<path d="M9 17.3C4.4238 17.3 0.7 13.5762 0.7 9C0.7 4.4238 4.4238 0.7 9 0.7C13.5762 0.7 17.3 4.4238 17.3 9C17.3 13.5762 13.5762 17.3 9 17.3Z" stroke="#202B3B" stroke-width="1.4"/>
<path d="M12.9375 13.875C12.7934 13.875 12.6495 13.8202 12.5399 13.71L8.60243 9.77246C8.49669 9.66672 8.4375 9.52348 8.4375 9.37503V4.12494C8.4375 3.81444 8.6895 3.56244 9 3.56244C9.3105 3.56244 9.5625 3.81444 9.5625 4.12494V9.14171L13.3351 12.9143C13.5548 13.134 13.5548 13.4902 13.3351 13.71C13.2255 13.8202 13.0816 13.875 12.9375 13.875Z" fill="#202B3B"/>
</svg>
