<svg width="18" height="18" viewBox="0 0 18 18" fill="none" xmlns="http://www.w3.org/2000/svg">
<g clip-path="url(#clip0)">
<path d="M17.0128 2.58835C16.3799 1.95494 15.5211 1.5992 14.6256 1.5995C13.7306 1.59739 12.8717 1.95302 12.2402 2.58726L7.88242 6.94506C7.02022 7.80862 6.6906 9.06997 7.02015 10.2449C7.11663 10.587 7.47216 10.7861 7.81422 10.6896C8.15628 10.5931 8.35536 10.2376 8.25887 9.89552C8.05572 9.16891 8.25955 8.3892 8.79232 7.855L13.1501 3.49784C13.9648 2.68291 15.2859 2.68276 16.1009 3.49753C16.9158 4.31227 16.9159 5.63338 16.1012 6.4483L11.7434 10.8061C11.4578 11.092 11.0952 11.2886 10.6997 11.3717C10.3517 11.4441 10.1284 11.7849 10.2008 12.1329C10.2631 12.4321 10.5272 12.6461 10.8328 12.6452C10.8778 12.6452 10.9227 12.6405 10.9667 12.6311C11.6058 12.4963 12.1919 12.1783 12.6533 11.716L17.0111 7.35888C18.3289 6.04199 18.3297 3.90618 17.0128 2.58835Z" fill="#202B3B"/>
<path d="M10.961 7.77262C10.8645 7.43056 10.509 7.23147 10.1669 7.32796C9.82485 7.42445 9.62576 7.77997 9.72225 8.12203C9.92541 8.84864 9.72157 9.62835 9.1888 10.1626L4.83099 14.5204C4.01626 15.3353 2.69515 15.3354 1.88023 14.5207C1.06531 13.7059 1.06516 12.3848 1.87989 11.5699L6.2377 7.21145C6.52282 6.92557 6.88509 6.72901 7.28017 6.6458C7.62868 6.57608 7.85468 6.23708 7.78496 5.88861C7.71525 5.54014 7.37624 5.31409 7.02777 5.38381C7.02351 5.38468 7.01929 5.38554 7.01506 5.38649C6.37581 5.52143 5.78957 5.83936 5.3278 6.30155L0.969993 10.6594C-0.337469 11.987 -0.321105 14.1231 1.00653 15.4306C2.31968 16.7238 4.42755 16.7239 5.74089 15.4309L10.0987 11.0725C10.9609 10.2089 11.2905 8.94755 10.961 7.77262Z" fill="#202B3B"/>
</g>
<defs>
<clipPath id="clip0">
<rect width="18" height="18" fill="white"/>
</clipPath>
</defs>
</svg>
