<svg width="39" height="39" viewBox="0 0 39 39" fill="none" xmlns="http://www.w3.org/2000/svg">
<path d="M38.9922 20.988C38.9456 19.908 37.8888 19.0454 35.8452 18.4238C34.26 17.9498 32.2475 17.6623 30.0717 17.6157V9.32456C30.064 9.1847 30.0251 9.0526 29.9552 8.93604C29.7376 7.99581 28.6886 7.23431 26.8314 6.67483C25.0831 6.14644 22.7986 5.85893 20.3975 5.85893C18.0042 5.85893 15.743 6.14644 14.0257 6.67483C12.6192 7.10998 10.9331 7.91811 10.9331 9.30902C10.9331 9.3945 10.9408 9.47997 10.9564 9.56545L11.0418 13.1088C5.99103 12.1452 1.11895 15.4632 0.16318 20.5063C0.0543933 21.0813 0 21.6563 0 22.2391C0 27.3676 4.17274 31.5404 9.30126 31.5404C11.4381 31.5404 13.5051 30.8099 15.1602 29.4579C16.6133 29.7998 18.3228 29.9863 20.1333 30.0018C20.5296 32.1542 25.1919 33.1411 29.5356 33.1411C31.9289 33.1411 34.1901 32.8458 35.9074 32.3096C37.3138 31.8745 39 31.0586 39 29.6677V21.1357C39 21.0891 39 21.0347 38.9922 20.988ZM28.4477 13.6216C28.4477 13.7227 28.0747 14.2588 26.3885 14.7717C24.8111 15.2457 22.6276 15.5254 20.4053 15.5254C18.486 15.5254 16.6055 15.3234 15.1136 14.9426C15.0903 14.9348 15.0747 14.9348 15.0514 14.9271C14.3132 14.3443 13.4973 13.8781 12.6192 13.5517L12.5649 11.3604C13.101 11.6324 13.6605 11.85 14.2433 12.0054C15.9295 12.4949 18.113 12.7591 20.4053 12.7591C22.7986 12.7591 25.0909 12.4716 26.8392 11.9432C27.422 11.7723 27.9892 11.5469 28.5254 11.2672V13.303C28.4399 13.4118 28.4477 13.5129 28.4477 13.6216ZM14.4919 8.17453C16.0616 7.69276 18.1596 7.4208 20.3975 7.4208C22.6198 7.4208 24.8033 7.69276 26.3808 8.17453C28.0669 8.68739 28.4399 9.21578 28.4399 9.31679C28.4399 9.42558 28.0592 9.96174 26.373 10.4668C24.7956 10.9408 22.6198 11.2128 20.3975 11.2128C18.2528 11.2128 16.217 10.9641 14.6707 10.5134C13 10.0317 12.5338 9.50328 12.4949 9.33233C12.4949 9.31679 12.4871 9.31679 12.4871 9.31679C12.4949 9.16915 12.8524 8.67184 14.4919 8.17453ZM14.5152 27.9737C11.3527 30.8488 6.44949 30.6234 3.57442 27.4609C0.699342 24.2983 0.924686 19.3951 4.08727 16.52C5.50926 15.2224 7.37418 14.5075 9.30126 14.5075C10.0783 14.5075 10.8476 14.624 11.5935 14.8494C14.2899 15.6886 16.318 17.9265 16.893 20.685C16.994 21.1979 17.0484 21.7262 17.0484 22.2469C17.0562 24.4304 16.1315 26.5051 14.5152 27.9737ZM16.4889 28.1447C17.1183 27.3754 17.6234 26.5129 17.9809 25.5882C18.6414 25.6426 19.3252 25.6814 20.04 25.6892V25.8291L20.0867 28.4632C18.8822 28.4477 17.6778 28.3389 16.4889 28.1447ZM18.5637 21.3222C19.0143 21.3533 19.4883 21.3688 19.9701 21.3766L20.0167 24.1273C19.4728 24.1195 18.9366 24.0962 18.4238 24.0574C18.5403 23.4591 18.6025 22.8452 18.6025 22.2391C18.6025 21.936 18.587 21.633 18.5637 21.3222ZM20.4752 19.8302C20.4519 19.8302 20.4208 19.8302 20.3975 19.8302C19.6515 19.8302 18.9289 19.7992 18.2606 19.7525C17.9653 18.7113 17.4991 17.7322 16.8697 16.8619C18.0353 17.0096 19.2086 17.0873 20.3897 17.0873C22.7908 17.0873 25.0831 16.7998 26.8314 16.2714C27.4142 16.1004 27.9737 15.8751 28.5099 15.6031V17.639C25.1763 17.7322 21.7496 18.4316 20.4752 19.8302ZM21.5009 21.0658C21.5009 21.058 21.5009 21.0502 21.5087 21.0347C21.5786 20.8249 22.1303 20.312 23.7388 19.8613C25.2463 19.434 27.2122 19.2008 29.2791 19.2008H29.4112C31.6336 19.2008 33.8093 19.4573 35.3945 19.939C37.0496 20.4363 37.4381 20.9492 37.4459 21.0658V21.0735C37.4381 21.1901 37.0496 21.7262 35.3246 22.2391C33.7316 22.7131 31.6336 22.9695 29.419 22.9695C27.2744 22.9695 25.2385 22.7209 23.6922 22.2779C22.0215 21.7962 21.5631 21.26 21.5164 21.0968C21.5009 21.0658 21.5009 21.0658 21.5009 21.0658ZM35.4567 30.8332C33.887 31.3228 31.7812 31.5947 29.5433 31.5947C27.2977 31.5947 25.1996 31.3306 23.6455 30.8566C22.006 30.3515 21.6641 29.8308 21.6641 29.7143C21.6641 29.7065 21.6641 29.7065 21.6641 29.6988L21.6252 27.4453C22.2469 27.7484 22.8918 27.9815 23.5601 28.1524C25.1919 28.5798 27.2666 28.8207 29.3957 28.8207C31.7968 28.8207 34.0735 28.5332 35.8141 28.0048C36.3813 27.8338 36.9253 27.6085 37.4459 27.3443V29.6754H37.4537C37.4537 29.7842 37.0962 30.3204 35.4567 30.8332ZM37.4614 25.1142H37.4537C37.4537 25.1919 37.4071 25.2851 37.4071 25.3706C37.4071 25.4794 37.0418 26.0078 35.3634 26.5206C33.7705 27.0024 31.6491 27.2666 29.4035 27.2666C25.0986 27.2666 22.2002 26.2953 21.5941 25.5415L21.5864 24.8888L21.5553 23.1016C22.0992 23.3736 22.6665 23.5912 23.2493 23.7543C24.9354 24.2439 27.1189 24.5081 29.4112 24.5081C31.7735 24.5081 34.0269 24.2283 35.7597 23.7155C36.3503 23.5523 36.9175 23.327 37.4614 23.0472V25.1142Z" fill="#202B3B"/>
<path d="M12.1298 23.3425C11.7723 22.0759 10.6145 21.2056 9.3013 21.2056C8.53979 21.2056 7.91815 20.5918 7.91815 19.8302C7.92592 19.061 8.53979 18.4471 9.3013 18.4471C10.0628 18.4471 10.6844 19.0687 10.6844 19.8302C10.6844 20.2576 11.0341 20.6073 11.4615 20.6073C11.8889 20.6073 12.2385 20.2576 12.2385 19.8302C12.2385 18.517 11.3682 17.3592 10.1017 17.0018V16.6521C10.1017 16.2247 9.75199 15.8751 9.32461 15.8751C8.89723 15.8751 8.54756 16.2247 8.54756 16.6521V16.9863C6.98569 17.4059 6.05324 19.0143 6.47284 20.5762C6.81474 21.8583 7.97255 22.7519 9.3013 22.7519C10.0628 22.7519 10.6844 23.3658 10.6844 24.1273C10.6844 24.8888 10.0706 25.5105 9.30907 25.5105C8.54756 25.5105 7.92592 24.8966 7.92592 24.1351C7.92592 23.7077 7.57625 23.358 7.14887 23.358C6.7215 23.358 6.37183 23.7077 6.37183 24.1351C6.3796 25.4638 7.26543 26.6216 8.54756 26.9713V27.6473C8.54756 28.0747 8.89723 28.4244 9.32461 28.4244C9.75199 28.4244 10.1017 28.0747 10.1017 27.6473V26.9635C11.6635 26.5206 12.5727 24.9044 12.1298 23.3425Z" fill="#202B3B"/>
</svg>
