<svg width="24" height="24" viewBox="0 0 24 24" fill="none" xmlns="http://www.w3.org/2000/svg">
<g clip-path="url(#clip0)">
<path d="M23.5277 11.1614L19.6735 9.23442L23.5277 7.30722C24.2171 6.96262 24.2178 5.97531 23.5277 5.63015L12.4651 0.0988774C12.2011 -0.0329591 11.8905 -0.0329591 11.6265 0.0988774L0.563952 5.63015C-0.125443 5.97494 -0.126176 6.96225 0.563952 7.30722L4.41816 9.23442L0.563952 11.1614C-0.125443 11.5062 -0.126176 12.4933 0.563952 12.8385L4.41816 14.7657L0.563952 16.6927C-0.125443 17.0375 -0.126176 18.0246 0.563952 18.3698L11.6265 23.901C11.89 24.0327 12.2005 24.0332 12.4651 23.901L23.5277 18.3698C24.2171 18.025 24.2178 17.0379 23.5277 16.6927L19.6735 14.7657L23.5277 12.8385C24.2171 12.4939 24.2178 11.5066 23.5277 11.1614ZM12.0458 1.9856L21.012 6.46878L12.0458 10.9518L3.07965 6.46878L12.0458 1.9856ZM21.012 17.5313L12.0458 22.0143L3.07965 17.5313L6.51454 15.8138L11.6265 18.3698C11.8902 18.5014 12.2005 18.502 12.4651 18.3698L17.5771 15.8138L21.012 17.5313ZM12.0458 16.483L3.07965 12.0001L6.51454 10.2825L11.6265 12.8385C11.8902 12.9701 12.2005 12.9707 12.4651 12.8385L17.5771 10.2825L21.012 12.0001L12.0458 16.483Z" fill="#202B3B"/>
</g>
<defs>
<clipPath id="clip0">
<rect width="24" height="24" fill="white"/>
</clipPath>
</defs>
</svg>
