<svg width="76" height="76" viewBox="0 0 76 76" fill="none" xmlns="http://www.w3.org/2000/svg">
<circle cx="38" cy="38" r="38" fill="#F4F5F7"/>
<path d="M38 0C47.0986 1.085e-07 55.8953 3.26465 62.7909 9.20053C69.6866 15.1364 74.2236 23.3495 75.5771 32.3469C76.9307 41.3443 75.011 50.5287 70.1671 58.2307C65.3231 65.9327 57.8763 71.641 49.1804 74.318C40.4845 76.995 31.1167 76.463 22.7798 72.8188C14.4429 69.1745 7.69028 62.6598 3.7494 54.4589C-0.191491 46.258 -1.05904 36.9153 1.30444 28.129C3.66792 19.3427 9.10553 11.6961 16.6289 6.57906L38 38V0Z" fill="#5DAAD6"/>
<rect x="6" y="6" width="64" height="64" rx="32" fill="white"/>
<path d="M57.9922 39.988C57.9456 38.908 56.8888 38.0454 54.8452 37.4238C53.26 36.9498 51.2475 36.6623 49.0717 36.6157V28.3246C49.064 28.1847 49.0251 28.0526 48.9552 27.936C48.7376 26.9958 47.6886 26.2343 45.8314 25.6748C44.0831 25.1464 41.7986 24.8589 39.3975 24.8589C37.0042 24.8589 34.743 25.1464 33.0257 25.6748C31.6192 26.11 29.9331 26.9181 29.9331 28.309C29.9331 28.3945 29.9408 28.48 29.9564 28.5654L30.0418 32.1088C24.991 31.1452 20.1189 34.4632 19.1632 39.5063C19.0544 40.0813 19 40.6563 19 41.2391C19 46.3676 23.1727 50.5404 28.3013 50.5404C30.4381 50.5404 32.5051 49.8099 34.1602 48.4579C35.6133 48.7998 37.3228 48.9863 39.1333 49.0018C39.5296 51.1542 44.1919 52.1411 48.5356 52.1411C50.9289 52.1411 53.1901 51.8458 54.9074 51.3096C56.3138 50.8745 58 50.0586 58 48.6677V40.1357C58 40.0891 58 40.0347 57.9922 39.988ZM47.4477 32.6216C47.4477 32.7227 47.0747 33.2588 45.3885 33.7717C43.8111 34.2457 41.6276 34.5254 39.4053 34.5254C37.486 34.5254 35.6055 34.3234 34.1136 33.9426C34.0903 33.9348 34.0747 33.9348 34.0514 33.9271C33.3132 33.3443 32.4973 32.8781 31.6192 32.5517L31.5649 30.3604C32.101 30.6324 32.6605 30.85 33.2433 31.0054C34.9295 31.4949 37.113 31.7591 39.4053 31.7591C41.7986 31.7591 44.0909 31.4716 45.8392 30.9432C46.422 30.7723 46.9892 30.5469 47.5254 30.2672V32.303C47.4399 32.4118 47.4477 32.5129 47.4477 32.6216ZM33.4919 27.1745C35.0616 26.6928 37.1596 26.4208 39.3975 26.4208C41.6198 26.4208 43.8033 26.6928 45.3808 27.1745C47.0669 27.6874 47.4399 28.2158 47.4399 28.3168C47.4399 28.4256 47.0592 28.9617 45.373 29.4668C43.7956 29.9408 41.6198 30.2128 39.3975 30.2128C37.2528 30.2128 35.217 29.9641 33.6707 29.5134C32 29.0317 31.5338 28.5033 31.4949 28.3323C31.4949 28.3168 31.4871 28.3168 31.4871 28.3168C31.4949 28.1692 31.8524 27.6718 33.4919 27.1745ZM33.5152 46.9737C30.3527 49.8488 25.4495 49.6234 22.5744 46.4609C19.6993 43.2983 19.9247 38.3951 23.0873 35.52C24.5093 34.2224 26.3742 33.5075 28.3013 33.5075C29.0783 33.5075 29.8476 33.624 30.5935 33.8494C33.2899 34.6886 35.318 36.9265 35.893 39.685C35.994 40.1979 36.0484 40.7262 36.0484 41.2469C36.0562 43.4304 35.1315 45.5051 33.5152 46.9737ZM35.4889 47.1447C36.1183 46.3754 36.6234 45.5129 36.9809 44.5882C37.6414 44.6426 38.3252 44.6814 39.04 44.6892V44.8291L39.0867 47.4632C37.8822 47.4477 36.6778 47.3389 35.4889 47.1447ZM37.5637 40.3222C38.0143 40.3533 38.4883 40.3688 38.9701 40.3766L39.0167 43.1273C38.4728 43.1195 37.9366 43.0962 37.4238 43.0574C37.5403 42.4591 37.6025 41.8452 37.6025 41.2391C37.6025 40.936 37.587 40.633 37.5637 40.3222ZM39.4752 38.8302C39.4519 38.8302 39.4208 38.8302 39.3975 38.8302C38.6515 38.8302 37.9289 38.7992 37.2606 38.7525C36.9653 37.7113 36.4991 36.7322 35.8697 35.8619C37.0353 36.0096 38.2086 36.0873 39.3897 36.0873C41.7908 36.0873 44.0831 35.7998 45.8314 35.2714C46.4142 35.1004 46.9737 34.8751 47.5099 34.6031V36.639C44.1763 36.7322 40.7496 37.4316 39.4752 38.8302ZM40.5009 40.0658C40.5009 40.058 40.5009 40.0502 40.5087 40.0347C40.5786 39.8249 41.1303 39.312 42.7388 38.8613C44.2463 38.434 46.2122 38.2008 48.2791 38.2008H48.4112C50.6336 38.2008 52.8093 38.4573 54.3945 38.939C56.0496 39.4363 56.4381 39.9492 56.4459 40.0658V40.0735C56.4381 40.1901 56.0496 40.7262 54.3246 41.2391C52.7316 41.7131 50.6336 41.9695 48.419 41.9695C46.2744 41.9695 44.2385 41.7209 42.6922 41.2779C41.0215 40.7962 40.5631 40.26 40.5164 40.0968C40.5009 40.0658 40.5009 40.0658 40.5009 40.0658ZM54.4567 49.8332C52.887 50.3228 50.7812 50.5947 48.5433 50.5947C46.2977 50.5947 44.1996 50.3306 42.6455 49.8566C41.006 49.3515 40.6641 48.8308 40.6641 48.7143C40.6641 48.7065 40.6641 48.7065 40.6641 48.6988L40.6252 46.4453C41.2469 46.7484 41.8918 46.9815 42.5601 47.1524C44.1919 47.5798 46.2666 47.8207 48.3957 47.8207C50.7968 47.8207 53.0735 47.5332 54.8141 47.0048C55.3813 46.8338 55.9253 46.6085 56.4459 46.3443V48.6754H56.4537C56.4537 48.7842 56.0962 49.3204 54.4567 49.8332ZM56.4614 44.1142H56.4537C56.4537 44.1919 56.4071 44.2851 56.4071 44.3706C56.4071 44.4794 56.0418 45.0078 54.3634 45.5206C52.7705 46.0024 50.6491 46.2666 48.4035 46.2666C44.0986 46.2666 41.2002 45.2953 40.5941 44.5415L40.5864 43.8888L40.5553 42.1016C41.0992 42.3736 41.6665 42.5912 42.2493 42.7543C43.9354 43.2439 46.1189 43.5081 48.4112 43.5081C50.7735 43.5081 53.0269 43.2283 54.7597 42.7155C55.3503 42.5523 55.9175 42.327 56.4614 42.0472V44.1142Z" fill="#202B3B"/>
<path d="M31.1298 42.3425C30.7723 41.0759 29.6145 40.2056 28.3013 40.2056C27.5398 40.2056 26.9182 39.5918 26.9182 38.8302C26.9259 38.061 27.5398 37.4471 28.3013 37.4471C29.0628 37.4471 29.6844 38.0687 29.6844 38.8302C29.6844 39.2576 30.0341 39.6073 30.4615 39.6073C30.8889 39.6073 31.2385 39.2576 31.2385 38.8302C31.2385 37.517 30.3682 36.3592 29.1017 36.0018V35.6521C29.1017 35.2247 28.752 34.8751 28.3246 34.8751C27.8972 34.8751 27.5476 35.2247 27.5476 35.6521V35.9863C25.9857 36.4059 25.0532 38.0143 25.4728 39.5762C25.8147 40.8583 26.9725 41.7519 28.3013 41.7519C29.0628 41.7519 29.6844 42.3658 29.6844 43.1273C29.6844 43.8888 29.0706 44.5105 28.3091 44.5105C27.5476 44.5105 26.9259 43.8966 26.9259 43.1351C26.9259 42.7077 26.5763 42.358 26.1489 42.358C25.7215 42.358 25.3718 42.7077 25.3718 43.1351C25.3796 44.4638 26.2654 45.6216 27.5476 45.9713V46.6473C27.5476 47.0747 27.8972 47.4244 28.3246 47.4244C28.752 47.4244 29.1017 47.0747 29.1017 46.6473V45.9635C30.6635 45.5206 31.5727 43.9044 31.1298 42.3425Z" fill="#202B3B"/>
</svg>
