<svg xmlns="http://www.w3.org/2000/svg" width="13.438" height="26.82" viewBox="0 0 13.438 26.82">
  <defs>
    <style>
      .cls-1 {
        fill: #fff;
        fill-rule: evenodd;
      }
    </style>
  </defs>
  <path id="Shape_327_1" data-name="Shape 327 1" class="cls-1" d="M233.1,1729.29h-2.174c-1.5,0-1.772.63-1.772,1.87v2.58h3.794a0.5,0.5,0,0,1,.359.16,0.565,0.565,0,0,1,.149.39l0,4.4a0.526,0.526,0,0,1-.507.55h-3.793v11.12a0.523,0.523,0,0,1-.507.54h-4.233a0.523,0.523,0,0,1-.507-0.54v-11.12H220.66a0.526,0.526,0,0,1-.507-0.55v-4.4a0.525,0.525,0,0,1,.507-0.55H223.9v-3.04c0-4.01,2.342-6.6,5.967-6.6l3.227,0.01a0.531,0.531,0,0,1,.506.55v4.09A0.523,0.523,0,0,1,233.1,1729.29Z" transform="translate(-220.156 -1724.09)"/>
</svg>
