<svg xmlns="http://www.w3.org/2000/svg" width="27.312" height="27.32" viewBox="0 0 27.312 27.32">
  <defs>
    <style>
      .cls-1 {
        fill: #fff;
        fill-rule: evenodd;
      }
    </style>
  </defs>
  <path id="Shape_326_1" data-name="Shape 326 1" class="cls-1" d="M285.375,1751.65H268.618a5.285,5.285,0,0,1-5.278-5.28v-16.74a5.277,5.277,0,0,1,5.278-5.27h16.756a5.278,5.278,0,0,1,5.279,5.27v16.74A5.286,5.286,0,0,1,285.375,1751.65Zm-4.481-16.45a4.79,4.79,0,1,0,.911,2.8A4.8,4.8,0,0,0,280.894,1735.2Zm6.6-7.1v-0.6h-0.6l-4.027.02,0.016,4.62,4.615-.01v-4.03Zm0.5,7.1h-4.078a7.467,7.467,0,1,1-13.835,0H266v11.17a2.617,2.617,0,0,0,2.617,2.62h16.756a2.617,2.617,0,0,0,2.617-2.62V1735.2Z" transform="translate(-263.344 -1724.34)"/>
</svg>
