<svg xmlns="http://www.w3.org/2000/svg" width="26.781" height="30.5" viewBox="0 0 26.781 30.5">
  <defs>
    <style>
      .cls-1 {
        fill: #fff;
        fill-rule: evenodd;
      }
    </style>
  </defs>
  <path class="cls-1" d="M406.79,1729.02a7.712,7.712,0,0,1-7.568-6.19,7.814,7.814,0,0,1-.148-1.44h-4.982v13.59l-0.006,7.45a4.52,4.52,0,0,1-3.1,4.28,4.636,4.636,0,0,1-1.674.22,4.5,4.5,0,0,1,.252-9,4.465,4.465,0,0,1,1.422.23v-5.05a9.794,9.794,0,0,0-1.437-.11,9.532,9.532,0,0,0-7.178,3.21,9.337,9.337,0,0,0,.422,12.89,11.662,11.662,0,0,0,.9.79,9.569,9.569,0,0,0,5.856,1.97,9.791,9.791,0,0,0,1.437-.1,9.568,9.568,0,0,0,5.319-2.66,9.3,9.3,0,0,0,2.8-6.63l-0.026-11.12a12.82,12.82,0,0,0,2.8,1.63,12.589,12.589,0,0,0,4.926.99v-4.95H406.79Z" transform="translate(-380.031 -1721.38)"/>
</svg>
