<svg xmlns="http://www.w3.org/2000/svg" width="28.969" height="35" viewBox="0 0 28.969 35">
  <defs>
    <style>
      .cls-1 {
        fill: #fff;
        fill-rule: evenodd;
      }
    </style>
  </defs>
  <path id="Shape_329_1" data-name="Shape 329 1" class="cls-1" d="M348.338,1750.68a3.441,3.441,0,0,1-2,.9,143.769,143.769,0,0,1-21.7,0,3.483,3.483,0,0,1-2-.9,3.591,3.591,0,0,1-1.125-1.93,33.158,33.158,0,0,1-.508-6.84,33.781,33.781,0,0,1,.508-6.83,3.7,3.7,0,0,1,1.134-1.93,3.55,3.55,0,0,1,2.014-.92q3.577-.39,10.83-0.39t10.85,0.39a3.677,3.677,0,0,1,3.129,2.85,33.184,33.184,0,0,1,.508,6.83,33.826,33.826,0,0,1-.508,6.84A3.734,3.734,0,0,1,348.338,1750.68Zm-19.061-15.46h-6.1v1.83h2.053v11.11h1.955v-11.11h2.092v-1.83Zm5.278,3.3h-1.74v7.38a1.575,1.575,0,0,1-1.114.82,0.4,0.4,0,0,1-.411-0.41,5.626,5.626,0,0,1-.019-0.69v-7.1h-1.74v7.63a4.772,4.772,0,0,0,.156,1.42,1.051,1.051,0,0,0,1.134.73,2.873,2.873,0,0,0,1.994-1.19v1.05h1.74v-9.64Zm6.647,2.9a6.99,6.99,0,0,0-.175-1.93,1.355,1.355,0,0,0-1.389-1.09,2.358,2.358,0,0,0-1.818,1.05v-4.23h-1.74v12.94h1.74v-0.94a2.425,2.425,0,0,0,1.818,1.08,1.355,1.355,0,0,0,1.389-1.08,7.164,7.164,0,0,0,.175-1.95v-3.85Zm6.608,3.4h-1.779a9.7,9.7,0,0,1-.039,1.19,0.753,0.753,0,0,1-.782.71q-0.9,0-.9-1.35v-1.7h3.5v-2.01a3.9,3.9,0,0,0-.528-2.27,2.684,2.684,0,0,0-4.164,0,3.794,3.794,0,0,0-.548,2.27v3.38a3.64,3.64,0,0,0,.568,2.26,2.522,2.522,0,0,0,2.111,1,2.386,2.386,0,0,0,2.111-1.04,2.351,2.351,0,0,0,.411-1.05,8.676,8.676,0,0,0,.039-1.13v-0.26Zm-3.5-3.51c0-.89.293-1.33,0.879-1.33s0.88,0.44.88,1.33v0.9h-1.759v-0.9Zm-5.611,5.41a1.283,1.283,0,0,1-.88-0.43v-5.88a1.242,1.242,0,0,1,.88-0.43c0.508,0,.762.44,0.762,1.31v4.12C339.462,1746.28,339.208,1746.72,338.7,1746.72Zm3.773-17.71a2.838,2.838,0,0,1-2.014,1.21,1.086,1.086,0,0,1-1.153-.72,5.07,5.07,0,0,1-.157-1.47v-7.69h1.779v7.16a5.046,5.046,0,0,0,.02.69,0.412,0.412,0,0,0,.41.43,1.558,1.558,0,0,0,1.115-.84v-7.44h1.779v9.74h-1.779v-1.07Zm-7.39,1.21a2.408,2.408,0,0,1-2.053-1,3.878,3.878,0,0,1-.547-2.3v-3.42a3.8,3.8,0,0,1,.547-2.28,2.627,2.627,0,0,1,4.125,0,3.787,3.787,0,0,1,.548,2.28v3.42a3.835,3.835,0,0,1-.548,2.3A2.394,2.394,0,0,1,335.083,1730.22Zm0.841-7.07q0-1.35-.841-1.35t-0.841,1.35v4.1c0,0.91.281,1.37,0.841,1.37s0.841-.46.841-1.37v-4.1Zm-5.826,6.93h-1.955v-5.29a33.365,33.365,0,0,0-1.192-4.14c-0.482-1.34-.906-2.56-1.271-3.65h2.072l1.389,5.14,1.329-5.14h1.994l-2.366,7.79v5.29Z" transform="translate(-321 -1717)"/>
</svg>
