<?xml version="1.0"?>
<svg width="50" height="25" viewBox="0 0 50 25" fill="none" xmlns="http://www.w3.org/2000/svg">
    <path d="M10.6927 5.51636C11.2343 4.83897 11.6018 3.92944 11.5049 3C10.7121 3.03942 9.74467 3.52303 9.18457 4.20095C8.68166 4.78149 8.23654 5.7291 8.35258 6.61958C9.24252 6.69677 10.1316 6.17475 10.6927 5.51636Z" fill="black" />
<path d="M11.4958 6.79373C10.2034 6.71675 9.10457 7.52724 8.48737 7.52724C7.86984 7.52724 6.92472 6.83252 5.90249 6.85125C4.57199 6.87079 3.33744 7.62306 2.66227 8.81953C1.27356 11.2131 2.29579 14.7635 3.64624 16.7129C4.30205 17.6773 5.09241 18.7392 6.13383 18.7011C7.1178 18.6625 7.50347 18.0639 8.69953 18.0639C9.8947 18.0639 10.2421 18.7011 11.2837 18.6818C12.3639 18.6624 13.0391 17.7169 13.6949 16.7515C14.4473 15.6521 14.7553 14.5905 14.7746 14.5323C14.7553 14.513 12.6918 13.7214 12.6727 11.3477C12.6532 9.36026 14.2927 8.41491 14.3699 8.35628C13.444 6.98693 11.9974 6.83252 11.4958 6.79373Z" fill="black" />
<path d="M22.7499 4.10401C25.559 4.10401 27.515 6.0403 27.515 8.8594C27.515 11.6886 25.5187 13.6349 22.6795 13.6349H19.5693V18.5809H17.3223V4.104H22.7499V4.10401ZM19.5693 11.7487H22.1477C24.1041 11.7487 25.2176 10.6955 25.2176 8.86946C25.2176 7.04367 24.1041 6.00024 22.1578 6.00024H19.5693V11.7487Z" fill="black" />
<path d="M28.1016 15.5806C28.1016 13.7345 29.5161 12.6009 32.0245 12.4604L34.9136 12.2899V11.4774C34.9136 10.3035 34.121 9.60126 32.797 9.60126C31.5426 9.60126 30.76 10.2031 30.5696 11.1463H28.523C28.6434 9.23997 30.2685 7.83545 32.8771 7.83545C35.4353 7.83545 37.0705 9.18985 37.0705 11.3067V18.5803H34.9937V16.8447H34.9438C34.3319 18.0185 32.9975 18.7608 31.6131 18.7608C29.5463 18.7608 28.1016 17.4767 28.1016 15.5806ZM34.9136 14.6276V13.7949L32.3151 13.9553C31.0209 14.0457 30.2887 14.6175 30.2887 15.5204C30.2887 16.4433 31.0511 17.0453 32.2149 17.0453C33.7297 17.0453 34.9136 16.0019 34.9136 14.6276Z" fill="black" />
<path d="M39.0317 22.4627V20.707C39.1919 20.7471 39.553 20.7471 39.7338 20.7471C40.7369 20.7471 41.2788 20.3258 41.6097 19.2423C41.6097 19.2222 41.8005 18.6002 41.8005 18.5902L37.9883 8.02588H40.3356L43.0045 16.6138H43.0444L45.7133 8.02588H48.0007L44.0476 19.1318C43.145 21.6902 42.1016 22.5129 39.9145 22.5129C39.7338 22.5129 39.1919 22.4927 39.0317 22.4627Z" fill="black" />
</svg>