<svg width="20" height="20" viewBox="0 0 20 20" fill="none" xmlns="http://www.w3.org/2000/svg">
<g clip-path="url(#clip0)">
<path d="M3.66064 3.88928L5.42344 1.24668L5.99723 1.62944L4.23444 4.27204L3.66064 3.88928Z" fill="#8D8D8D"/>
<path d="M14.0034 1.62378L14.5772 1.24102L16.34 3.88363L15.7662 4.26639L14.0034 1.62378Z" fill="#8D8D8D"/>
<path d="M2.06897 3.79309H17.931C19.0737 3.79309 20 4.7194 20 5.86206V17.5862C20 18.348 19.3825 18.9655 18.6207 18.9655H1.37931C0.617538 18.9655 0 18.348 0 17.5862V5.86206C0 4.7194 0.926307 3.79309 2.06897 3.79309Z" fill="#7C7C7C"/>
<path d="M19.0825 4.14483C18.7877 4.40483 18.6193 4.77933 18.6204 5.17242V11.3793C18.6193 11.7597 18.3112 12.0678 17.9308 12.069H2.06872C1.6883 12.0678 1.3802 11.7597 1.37906 11.3793V5.17242C1.3802 4.77933 1.21181 4.40483 0.916992 4.14483C1.2567 3.91425 1.65814 3.79165 2.06872 3.7931H17.9308C18.3414 3.79165 18.7428 3.91425 19.0825 4.14483Z" fill="#A2A2A2"/>
<path d="M14.1379 1.03442H5.86202C5.48113 1.03442 5.17236 1.34319 5.17236 1.72408C5.17236 2.10496 5.48113 2.41373 5.86202 2.41373H14.1379C14.5188 2.41373 14.8275 2.10496 14.8275 1.72408C14.8275 1.34319 14.5188 1.03442 14.1379 1.03442Z" fill="#6B6B6B"/>
<path d="M8.96553 13.4483V13.1034C8.96553 12.0689 8.27588 11.7241 8.27588 10.3448C8.27579 9.86773 8.47339 9.41193 8.82167 9.08587C9.16995 8.75981 9.63776 8.59264 10.1138 8.62412C11.0855 8.73084 11.7961 9.59114 11.7173 10.5655C11.6483 11.7655 11.0345 12.1276 11.0345 13.1034V13.4483H8.96553Z" fill="#C4C2BE"/>
<path d="M8.96582 13.1034V11.7241C8.96582 11.3432 9.27459 11.0344 9.65548 11.0344H10.3451C10.726 11.0344 11.0348 11.3432 11.0348 11.7241V16.5517C11.0348 17.123 10.5716 17.5862 10.0003 17.5862C9.42897 17.5862 8.96582 17.123 8.96582 16.5517V13.1034Z" fill="#F3C550"/>
<path d="M11.0344 13.4482H8.96543C8.77499 13.4482 8.62061 13.6026 8.62061 13.7931V14.4827C8.62061 14.6732 8.77499 14.8276 8.96543 14.8276H11.0344C11.2248 14.8276 11.3792 14.6732 11.3792 14.4827V13.7931C11.3792 13.6026 11.2248 13.4482 11.0344 13.4482Z" fill="#FFDF70"/>
</g>
<defs>
<clipPath id="clip0">
<rect width="20" height="20" fill="white"/>
</clipPath>
</defs>
</svg>
