<svg width="20" height="20" viewBox="0 0 20 20" fill="none" xmlns="http://www.w3.org/2000/svg">
<g clip-path="url(#clip0)">
<path d="M18.8097 13.556L19.9822 6.06969C20.1041 5.31 19.5872 4.5952 18.8274 4.47293L3.0067 1.93364C2.24701 1.81173 1.53225 2.32864 1.41033 3.08833L0.848145 6.58938V13.5124L18.8097 13.556Z" fill="#146AA8"/>
<path d="M1.39332 6.24103H17.4164C18.1859 6.24103 18.8097 6.86489 18.8097 7.63435V16.6909C18.8097 17.4603 18.1859 18.0842 17.4164 18.0842H1.39332C0.623866 18.0842 0 17.4603 0 16.6909V7.63435C0 6.86489 0.623866 6.24103 1.39332 6.24103Z" fill="#4398D1"/>
<path d="M15.3266 16.3425C16.2885 16.3425 17.0682 15.5628 17.0682 14.6009C17.0682 13.639 16.2885 12.8593 15.3266 12.8593C14.3647 12.8593 13.585 13.639 13.585 14.6009C13.585 15.5628 14.3647 16.3425 15.3266 16.3425Z" fill="#EFAF44"/>
<path d="M13.2363 16.3425C14.1981 16.3425 14.9779 15.5628 14.9779 14.6009C14.9779 13.639 14.1981 12.8593 13.2363 12.8593C12.2744 12.8593 11.4946 13.639 11.4946 14.6009C11.4946 15.5628 12.2744 16.3425 13.2363 16.3425Z" fill="#97433D"/>
<path d="M3.48351 13.2076H1.39355V13.9042H3.48351V13.2076Z" fill="white" fill-opacity="0.7"/>
<path d="M6.96691 13.2076H4.87695V13.9042H6.96691V13.2076Z" fill="white" fill-opacity="0.7"/>
<path d="M10.4503 13.2076H8.36035V13.9042H10.4503V13.2076Z" fill="white" fill-opacity="0.7"/>
<path d="M10.4501 15.2975H1.39355V15.9942H10.4501V15.2975Z" fill="white" fill-opacity="0.7"/>
</g>
<defs>
<clipPath id="clip0">
<rect width="20" height="20" fill="white"/>
</clipPath>
</defs>
</svg>
