<svg width="123" height="12" viewBox="0 0 123 12" fill="none" xmlns="http://www.w3.org/2000/svg">
<ellipse cx="63.3" cy="6" rx="5.7" ry="6" fill="#F4D569"/>
<ellipse cx="55.7" cy="6" rx="5.7" ry="6" fill="#ED827A"/>
<mask id="mask0" mask-type="alpha" maskUnits="userSpaceOnUse" x="57" y="0" width="12" height="12">
<ellipse cx="63.3" cy="6" rx="5.7" ry="6" fill="#EFAF44"/>
</mask>
<g mask="url(#mask0)">
<ellipse cx="55.7" cy="6" rx="5.7" ry="6" fill="#EFAF44"/>
</g>
<path d="M28.9848 11.8499C28.3268 11.8499 27.6751 11.8566 27.0234 11.8363C26.9538 11.8363 26.8463 11.7009 26.8209 11.6061C26.7387 11.2945 26.6754 10.9694 26.6311 10.6511C26.6058 10.4683 26.5426 10.4073 26.3654 10.4073C25.4986 10.4141 24.6381 10.4005 23.7712 10.4208C23.6763 10.4208 23.5371 10.5428 23.4928 10.6443C23.3536 10.9694 23.2651 11.3216 23.1322 11.6535C23.1006 11.7347 22.993 11.8363 22.9234 11.8363C22.1768 11.8499 21.4302 11.8431 20.6393 11.8431C20.9177 11.1117 21.1834 10.4276 21.4492 9.74359C22.3286 7.50185 23.2081 5.25335 24.0876 3.01161C24.328 2.39531 24.6507 2.16504 25.2834 2.16504C25.8213 2.16504 26.3591 2.17181 26.8969 2.16504C27.0551 2.16504 27.1436 2.20567 27.1753 2.38854C27.7764 5.51071 28.3901 8.63288 28.9975 11.7483C29.0038 11.7686 28.9975 11.7821 28.9848 11.8499ZM26.1946 8.41615C25.9604 7.23095 25.739 6.07283 25.5112 4.92149C25.4859 4.92149 25.4543 4.92149 25.429 4.92149C25.0367 6.07961 24.6444 7.24449 24.2458 8.42293C24.9228 8.41615 25.5365 8.41615 26.1946 8.41615Z" fill="#1A1F71"/>
<path d="M0 2.36798C0.0949079 2.29348 0.170834 2.17835 0.253088 2.17835C1.53751 2.16481 2.82193 2.15803 4.11267 2.17835C4.65049 2.18512 5.03644 2.59148 5.14401 3.18747C5.36546 4.41331 5.57426 5.64592 5.78938 6.87854C5.89694 7.47453 6.0045 8.06375 6.16901 8.66651C6.45373 7.90798 6.73213 7.14267 7.01685 6.38414C7.50405 5.07703 7.99124 3.76991 8.46578 2.45603C8.54171 2.24608 8.63662 2.16481 8.85807 2.17158C9.56039 2.18512 10.2627 2.17835 11.022 2.17835C10.8448 2.63889 10.6866 3.03847 10.5284 3.43806C9.46548 6.1471 8.39618 8.86291 7.33954 11.5787C7.25729 11.7887 7.16238 11.87 6.94726 11.8632C6.32719 11.8496 5.7008 11.8429 5.08073 11.8632C4.81499 11.8767 4.72008 11.7751 4.65681 11.511C4.08104 9.04577 3.47995 6.60086 2.89785 4.14241C2.79029 3.6751 2.57517 3.33647 2.15124 3.17392C1.46791 2.90979 0.784572 2.65921 0 2.36798Z" fill="#1A1F71"/>
<path d="M21.1644 2.44926C21.0252 3.12652 20.8987 3.77669 20.7785 4.37268C20.1837 4.25077 19.6206 4.10177 19.0512 4.03405C18.7348 3.99341 18.3995 4.05437 18.0831 4.13564C17.7667 4.21691 17.501 4.43363 17.4567 4.8129C17.4124 5.16507 17.6528 5.37502 17.8996 5.53079C18.4311 5.8762 18.9752 6.18774 19.513 6.53314C21.4365 7.75898 20.8418 10.2648 19.5194 11.1859C18.6146 11.8158 17.6212 12.019 16.5709 11.9986C15.7231 11.9783 14.8942 11.8564 14.0717 11.4975C14.2109 10.7931 14.3501 10.1091 14.4893 9.38441C15.2548 9.79754 16.0331 10.0346 16.8556 9.98717C17.1846 9.96685 17.5326 9.89913 17.83 9.75013C18.4058 9.46568 18.4627 8.80874 17.9629 8.38883C17.6971 8.17211 17.3871 8.01634 17.1024 7.83348C16.7417 7.60321 16.3621 7.40003 16.0268 7.1359C14.5778 5.99133 14.9132 4.19659 15.7927 3.23488C16.4507 2.51698 17.2795 2.17835 18.1843 2.05645C19.1334 1.92777 20.0762 2.01581 20.9873 2.35444C21.0316 2.38153 21.0885 2.41539 21.1644 2.44926Z" fill="#1A1F71"/>
<path d="M10.1108 11.8498C10.326 10.7797 10.5284 9.74348 10.7372 8.71404C11.1485 6.66194 11.5598 4.61662 11.9584 2.56452C12.0217 2.23943 12.1419 2.15816 12.4392 2.16493C13.0593 2.19202 13.6794 2.17171 14.3311 2.17171C14.3247 2.29361 14.3311 2.38843 14.3184 2.48325C13.7173 5.49028 13.1099 8.49732 12.5152 11.5044C12.4582 11.782 12.3633 11.8633 12.0976 11.8565C11.4459 11.8362 10.7942 11.8498 10.1108 11.8498Z" fill="#1A1F71"/>
<path d="M108.824 2.95405L106.804 7.33145H106.602V2H103.728V11.0242H106.164C106.804 11.0242 107.387 10.6538 107.657 10.0701L109.677 5.69273H109.879V11.0242H112.752V2H110.317C109.666 2 109.093 2.3704 108.824 2.95405Z" fill="#327351"/>
<path d="M98.0487 3.18976L96.8478 7.34268H96.6457L95.4447 3.18976C95.2427 2.48264 94.6029 2 93.8734 2H91V11.0242H93.8734V5.69273H94.0754L95.7141 11.0242H97.7681L99.4069 5.69273H99.6089V11.0242H102.482V2H99.6201C98.8905 2 98.2508 2.48264 98.0487 3.18976Z" fill="#327351"/>
<path d="M113.976 6.1079V11.0353H116.838V8.15069H119.924C121.26 8.15069 122.405 7.29766 122.82 6.09668H113.976V6.1079Z" fill="#327351"/>
<path d="M119.936 2H113.572C113.953 4.09891 115.794 5.69273 118.005 5.69273H122.944C122.989 5.4907 123 5.28866 123 5.07541C123.011 3.38057 121.631 2 119.936 2Z" fill="url(#paint0_linear)"/>
<defs>
<linearGradient id="paint0_linear" x1="113.569" y1="3.84683" x2="123.008" y2="3.84683" gradientUnits="userSpaceOnUse">
<stop offset="0.00985222" stop-color="#00A7E3"/>
<stop offset="0.3366" stop-color="#009EDC"/>
<stop offset="0.8748" stop-color="#0085C9"/>
<stop offset="1" stop-color="#007EC4"/>
</linearGradient>
</defs>
</svg>
