<svg width="48" height="14" viewBox="0 0 48 14" fill="none" xmlns="http://www.w3.org/2000/svg">
<path d="M39.0344 2.45499C37.8069 2.45499 36.8249 2.78233 36.0065 2.94599L35.761 4.82815C36.1702 4.66449 37.3159 4.33716 38.2979 4.25532C39.2799 4.25532 39.8527 4.41899 39.689 5.31915C36.743 5.31915 34.779 5.89198 34.3699 7.85598C33.7971 11.1293 37.3977 11.2111 38.7889 9.73814L38.6252 10.6383H41.2439L42.3895 5.31915C42.7987 3.10966 40.8347 2.37316 39.0344 2.45499ZM39.198 7.93781C39.0344 8.59247 38.4615 8.83797 37.8069 8.91981C37.234 8.91981 36.743 8.59247 37.0704 7.93781C37.3977 7.44681 38.1342 7.44681 38.707 7.44681C38.8707 7.44681 39.1162 7.44681 39.3617 7.44681C39.2799 7.36498 39.198 7.69231 39.198 7.93781Z" fill="#32A6CE"/>
<path d="M35.761 4.82815C36.1702 4.66449 37.3159 4.33715 38.2979 4.25532C39.2799 4.25532 39.8527 4.41899 39.689 5.31915C36.743 5.31915 34.779 5.89198 34.3699 7.85598C33.7971 11.1293 37.3977 11.2111 38.7889 9.73814L38.6252 10.6383H41.2439L42.3895 5.31915C42.8805 3.10966 40.8347 2.53683 39.0344 2.53683L35.761 4.82815ZM39.198 7.93781C39.0344 8.59247 38.4615 8.83797 37.8069 8.91981C37.234 8.91981 36.743 8.59247 37.0704 7.93781C37.3977 7.44681 38.1342 7.44681 38.707 7.44681C38.8707 7.44681 39.1162 7.44681 39.3617 7.44681C39.2799 7.36498 39.198 7.69231 39.198 7.93781Z" fill="#1A80AD"/>
<path d="M44.599 0L42.4714 10.6383H45.09L47.2995 0H44.599Z" fill="#32A6CE"/>
<path d="M46.4812 0L42.4714 10.6383H45.09L47.2995 0H44.599H46.4812Z" fill="#1A80AD"/>
<path d="M32.4059 0H27.5777L25.4501 10.6383H28.3142L29.0507 7.36498H31.0966C33.0606 7.36498 34.6972 6.21931 35.1064 4.17349C35.5155 1.80033 33.7971 0 32.4059 0ZM32.3241 3.68249C32.1604 4.41899 31.4239 4.90998 30.6874 4.90998H29.3781L29.9509 2.45499H31.3421C32.0786 2.45499 32.4877 2.94599 32.3241 3.68249Z" fill="#32A6CE"/>
<path d="M32.4059 0H29.1326L25.3682 10.6383H28.2324L28.9689 7.36498H31.0147C32.9787 7.36498 34.6154 6.21931 35.0245 4.17349C35.5155 1.80033 33.7971 0 32.4059 0ZM32.3241 3.68249C32.1604 4.41899 31.4239 4.90998 30.6874 4.90998H29.3781L29.9509 2.45499H31.3421C32.0786 2.45499 32.4877 2.94599 32.3241 3.68249Z" fill="#1A80AD"/>
<path d="M13.5025 2.45499C12.275 2.45499 11.293 2.78233 10.5565 2.94599L10.311 4.82815C10.6383 4.66449 11.8658 4.33716 12.8478 4.25532C13.8298 4.25532 14.4026 4.41899 14.239 5.31915C11.3748 5.31915 9.4108 5.89198 9.00163 7.85598C8.4288 11.1293 11.9476 11.2111 13.3388 9.73814L13.1751 10.6383H15.7938L16.9394 5.31915C17.3486 3.10966 15.3028 2.37316 13.5025 2.45499ZM13.748 7.93781C13.5843 8.59247 13.0115 8.83797 12.3568 8.91981C11.784 8.91981 11.293 8.59247 11.7021 7.93781C12.0295 7.44681 12.766 7.44681 13.257 7.44681C13.5025 7.44681 13.6661 7.44681 13.9116 7.44681C13.8298 7.36498 13.748 7.69231 13.748 7.93781Z" fill="#21789E"/>
<path d="M10.3928 4.82815C10.7201 4.66449 11.9476 4.33715 12.9296 4.25532C13.9116 4.25532 14.4845 4.41899 14.3208 5.31915C11.4566 5.31915 9.49264 5.89198 9.08347 7.85598C8.51064 11.1293 12.0295 11.2111 13.4206 9.73814L13.1751 10.6383H15.7938L16.9394 5.31915C17.4304 3.10966 15.3846 2.53683 13.5843 2.53683L10.3928 4.82815ZM13.748 7.93781C13.5843 8.59247 13.0115 8.83797 12.3568 8.91981C11.784 8.91981 11.293 8.59247 11.7021 7.93781C12.0295 7.44681 12.766 7.44681 13.257 7.44681C13.5025 7.44681 13.6661 7.44681 13.9116 7.44681C13.8298 7.36498 13.748 7.69231 13.748 7.93781Z" fill="#1A5B80"/>
<path d="M18.0033 2.45499H20.6219L21.0311 7.03765L23.6498 2.45499H26.3502L20.1309 13.9116H17.1849L19.0671 10.4746L18.0033 2.45499Z" fill="#21789E"/>
<path d="M20.6219 2.61866L21.0311 7.11948L23.6498 2.45499H26.3502L20.1309 13.9116H17.1849L19.0671 10.5565" fill="#1A5B80"/>
<path d="M7.03764 0H2.12766L0 10.6383H2.86416L3.60065 7.36498H5.64648C7.61047 7.36498 9.24714 6.21931 9.6563 4.17349C10.1473 1.80033 8.42881 0 7.03764 0ZM6.95581 3.68249C6.79214 4.41899 6.05565 4.90998 5.31915 4.90998H4.00982L4.58265 2.45499H5.97381C6.71031 2.45499 7.11948 2.94599 6.95581 3.68249Z" fill="#21789E"/>
<path d="M7.03764 0H4.82815L0 10.6383H2.86416L3.60065 7.36498H5.64648C7.61047 7.36498 9.24714 6.21931 9.6563 4.17349C10.1473 1.80033 8.42881 0 7.03764 0ZM6.95581 3.68249C6.79214 4.41899 6.05565 4.90998 5.31915 4.90998H4.00982L4.58265 2.45499H5.97381C6.71031 2.45499 7.11948 2.94599 6.95581 3.68249Z" fill="#1A5B80"/>
</svg>
