<svg width="20" height="23" viewBox="0 0 20 23" fill="none" xmlns="http://www.w3.org/2000/svg">
<path d="M11.8309 0C11.4688 0 11.1468 0.0398292 10.8249 0.119488C10.503 0.0398292 10.181 0 9.81888 0C7.88729 0 6.31787 1.39402 6.31787 3.06685H6.80077C6.80077 1.633 8.16898 0.477951 9.81888 0.477951C9.85912 0.477951 9.89936 0.477951 9.9396 0.477951C8.97381 1.03556 8.2897 1.99146 8.2897 3.06685H8.7726C8.7726 1.95163 9.61767 0.995731 10.7847 0.637268C11.9517 0.995731 12.7967 1.95163 12.7967 3.06685H13.2796C13.2796 1.99146 12.6358 1.03556 11.6297 0.477951C11.67 0.477951 11.7102 0.477951 11.7505 0.477951C13.4004 0.477951 14.7686 1.633 14.7686 3.06685H15.2515C15.332 1.35419 13.7625 0 11.8309 0Z" fill="#3A3F4C"/>
<path d="M0 22.1053L1.60966 3.62451H19.0744L20 14.2191L0 22.1053Z" fill="#3A3F4C"/>
<path d="M13.5211 9.16064L13.1187 16.8477L18.7525 22.1051H0L13.5211 9.16064Z" fill="#01BF62"/>
</svg>
