<svg width="32" height="28" viewBox="0 0 32 28" fill="none" xmlns="http://www.w3.org/2000/svg">
<path d="M30.9473 13.108L31.3352 11.7895L29.9778 11.8282C29.8615 11.8282 29.0471 11.7895 28.2327 11.2078C28.3102 11.2078 28.349 11.2078 28.4266 11.2078C29.241 11.2078 30.0554 10.7036 30.3656 10.0055L30.9473 8.72576C30.2105 8.72576 29.5512 8.6482 29.5512 8.6482C29.5512 8.6482 29.0083 8.57063 28.4266 7.95013C28 7.52354 27.457 7.29085 26.8753 7.29085C26.6039 7.29085 26.41 7.32964 26.216 7.4072C26.2548 7.29086 26.2936 7.21329 26.2936 7.09695C26.4875 5.89473 25.7119 4.96399 25.7119 4.96399L24.7036 3.72299L24.0831 5.19667C24.0831 5.19667 23.928 5.5457 23.6565 5.70083C23.5789 5.27424 23.3462 4.77008 22.9197 4.30471C22.0665 3.41274 21.0582 3.2964 20.5152 3.2964C20.2825 3.2964 20.0886 3.33518 20.0498 3.33518L18.8089 3.56787C18.8864 3.2964 19.0415 2.83102 19.313 2.40443L19.9723 1.35734L18.2271 1.55125L17.6842 0.387811L16.6371 0.930748L15.6676 0L14.7368 0.969529L13.6897 0.426593L13.1468 1.59003L11.4404 1.39612L12.0997 2.44321C12.3712 2.8698 12.5263 3.33518 12.6039 3.60665L11.4404 3.37396H11.4017C11.3241 3.37396 11.169 3.33518 10.8975 3.33518C10.3546 3.33518 9.34625 3.45152 8.49307 4.34349C8.02769 4.80886 7.83379 5.31302 7.75623 5.73961C7.48476 5.58449 7.32963 5.23545 7.32963 5.23545L6.70914 3.76177L5.66205 5.04155C5.5457 5.19667 4.9252 6.04986 5.08033 7.13573C5.08033 7.25207 5.11911 7.32964 5.15789 7.44598C4.96399 7.36842 4.7313 7.32964 4.49861 7.32964C3.91689 7.32964 3.37396 7.56232 2.94737 7.98892C2.32687 8.60941 1.82271 8.68698 1.82271 8.68698C1.82271 8.68698 1.27978 8.80332 0.426592 8.76454L1.00831 10.0443C1.31856 10.7424 2.13296 11.2465 2.94737 11.2465C3.02493 11.2465 3.06371 11.2465 3.14127 11.2465C2.32687 11.8282 1.51246 11.867 1.39612 11.867L0 11.7895L0.426592 13.108C0.620498 13.7673 1.31856 14.892 2.6759 15.0083C2.52077 15.6288 2.21052 16.2881 1.51246 16.5983L0.504155 17.0249L1.04709 17.9945C1.35734 18.4986 2.09418 19.1191 3.14127 19.1191C3.37396 19.1191 3.60665 19.0803 3.80055 19.0415C3.83933 19.2742 3.91689 19.5069 3.99446 19.7396C4.30471 20.6704 4.03324 21.3296 4.03324 21.3296L3.52908 22.3767L4.65374 22.687C4.65374 22.687 5.00277 22.8033 5.42936 22.8033C5.62326 22.8033 5.81717 22.7645 5.97229 22.7257C6.08864 22.687 6.24376 22.6482 6.36011 22.6094C6.51523 22.8809 6.67036 23.1136 6.90304 23.3075C7.63988 24.0443 8.64819 24.4321 9.92797 24.4321H10.8587L8.95844 25.2077L10.3933 25.9058C10.9363 26.1773 11.5568 26.4487 12.1773 26.6814L11.9834 27.1856L12.4875 27.4183C12.5263 27.4571 13.4958 27.8836 15.0859 27.9612C15.0859 27.9612 15.4737 27.9612 15.6676 27.9612C15.8615 27.9612 16.2493 27.9612 16.2493 27.9612C17.8393 27.8836 18.8089 27.4571 18.8476 27.4183L19.3518 27.1856L19.1579 26.6814C19.8172 26.4487 20.4764 26.1385 20.9806 25.867L22.4155 25.169L20.5152 24.3933H21.446C22.7257 24.3933 23.7728 24.0055 24.4709 23.2687C24.6648 23.0748 24.8587 22.8033 25.0138 22.5706C25.1302 22.6094 25.2465 22.6482 25.4016 22.687C25.5568 22.7258 25.7507 22.7645 25.9446 22.7645C26.3712 22.7645 26.7202 22.687 26.7202 22.687L27.8449 22.3767L27.3407 21.3296C27.3407 21.2908 27.0692 20.6704 27.3795 19.7396C27.457 19.5069 27.5346 19.2742 27.5734 19.0415C27.7673 19.0803 28 19.1191 28.2327 19.1191C29.59 19.1191 30.2105 18.1884 30.3268 17.9557L30.8698 16.9861L29.8615 16.5595C29.1634 16.2493 28.8144 15.59 28.698 14.9695C30.0166 14.892 30.7534 13.7673 30.9473 13.108Z" fill="white"/>
<path d="M15.6677 3.99446C14.5818 3.99446 13.7674 4.34349 13.6123 4.77008L15.6677 5.58449L17.7231 4.77008C17.568 4.34349 16.7536 3.99446 15.6677 3.99446Z" fill="white"/>
<path d="M15.7063 25.5956H15.6675C15.0082 25.5956 14.1163 25.4792 13.6897 25.3241L13.1467 26.759C13.4958 26.8754 14.6592 27.108 15.6675 27.108C16.6758 27.108 17.878 26.8754 18.1883 26.759L17.6841 25.3629C17.2575 25.4792 16.3656 25.5956 15.7063 25.5956Z" fill="white"/>
<path d="M19.6621 24.1995C19.2743 24.4321 18.4211 24.7424 17.917 24.8975L18.3436 26.0609C19.1192 25.8283 19.7785 25.5956 20.3214 25.3241L19.3907 25.0526L19.6621 24.1995Z" fill="white"/>
<path d="M11.7118 24.1995L11.9833 25.0526L11.0913 25.3629C11.6342 25.6344 12.2547 25.867 13.0691 26.0997L13.4957 24.9363C12.9528 24.7424 12.0996 24.4321 11.7118 24.1995Z" fill="white"/>
<path d="M15.6675 2.63712C16.4819 2.63712 17.2964 2.83102 17.9169 3.18006C17.9556 2.98615 18.0332 2.75346 18.1495 2.52078L17.9169 2.55956L17.6842 2.59834L17.5678 2.36565L17.2576 1.70637L16.6759 2.01662L16.4432 2.13296L16.288 1.93906L15.6675 1.31856L15.0858 1.93906L14.8919 2.09418L14.6592 1.97784L14.0775 1.66759L13.7673 2.32687L13.6509 2.55956L13.4182 2.52078L13.1855 2.48199C13.3019 2.71468 13.3795 2.94737 13.4182 3.14127C14.0775 2.83103 14.8531 2.63712 15.6675 2.63712Z" fill="white"/>
<path d="M28.1163 10.2382C28.2326 10.277 28.3102 10.277 28.4266 10.277C28.8919 10.277 29.3185 9.96677 29.4736 9.65652C29.4736 9.65652 28.6205 9.61774 27.7285 8.68699C27.457 8.37674 27.1468 8.29918 26.8753 8.29918C26.4487 8.29918 26.1772 8.53187 26.1772 8.53187C27.3019 9.0748 27.4958 10.0056 28.1163 10.2382Z" fill="white"/>
<path d="M2.90866 10.277C3.02501 10.277 3.14135 10.277 3.21891 10.2382C3.83941 10.0443 4.0721 9.0748 5.15797 8.49308C5.15797 8.49308 4.84772 8.26039 4.45991 8.26039C4.18844 8.26039 3.87819 8.33795 3.60672 8.6482C2.71476 9.57895 1.86157 9.61773 1.86157 9.61773C2.0167 9.96676 2.44329 10.277 2.90866 10.277Z" fill="white"/>
<path d="M28.4265 14.0388H28.4653C29.6287 14.0388 30.0165 12.7978 30.0165 12.7978H29.9777C29.7838 12.7978 28.0387 12.759 26.8364 11.2077C26.022 10.1994 25.4015 9.30747 24.083 8.95844L23.9666 8.91966L23.9279 8.80332C23.8891 8.60941 24.0442 8.4155 24.3157 8.2216C26.0996 7.05816 24.8974 5.58448 24.8974 5.58448C24.8974 5.58448 24.3932 6.7867 23.2686 6.7867C23.2298 6.7867 23.2298 6.7867 23.191 6.7867C23.0747 6.7867 22.9195 6.7867 22.8032 6.74792L22.6093 6.70913C22.6093 6.70913 22.9195 5.81717 22.1439 5.00276C21.5622 4.38226 20.8254 4.3047 20.4376 4.3047C20.2436 4.3047 20.0885 4.34348 20.0885 4.34348C20.4763 4.84764 20.7478 5.70082 20.3212 6.24376C19.9334 6.70913 18.9639 6.70913 18.9639 7.40719C18.9639 7.67866 19.2353 8.02769 19.7007 8.33794C21.1356 9.22991 22.5705 10.4321 23.1522 12.0609C23.8891 14.0776 23.0747 15.3961 21.8725 16.1717C21.8725 16.1717 22.2603 16.5208 22.8032 16.5595C22.9195 16.5595 23.0359 16.5595 23.1135 16.5595C24.2769 16.5595 24.8586 16.0166 24.8586 16.0166C24.8586 16.0166 24.7423 16.7535 24.1605 17.4515C23.6176 18.072 22.8808 18.4598 21.7949 18.4598C21.7949 18.4598 21.7561 18.964 22.2603 19.4294C22.5705 19.7008 23.3074 19.8172 23.3074 19.8172C23.3074 19.8172 21.95 20.0886 21.7949 22.0665C21.7173 23.1523 21.4459 23.5402 21.4459 23.5402H21.4846C24.6259 23.5402 24.5484 20.8643 24.5484 20.8643C24.5484 20.8643 24.781 21.6787 25.6342 21.8726C25.7506 21.9113 25.8669 21.9113 25.9445 21.9113C26.2159 21.9113 26.4874 21.8338 26.4874 21.8338C26.4874 21.8338 26.022 20.8643 26.4874 19.5069C26.8752 18.3823 26.7977 17.5679 26.7977 17.5679C26.7977 17.5679 27.2243 18.1884 28.2714 18.2271C29.1245 18.2271 29.5123 17.5679 29.5123 17.5679C27.4182 16.7147 27.6121 13.8836 27.6121 13.8836C27.6121 13.8836 27.8835 14.0388 28.4265 14.0388ZM27.806 16.9474C26.9528 16.5208 26.4099 15.4349 26.2935 15.0083C26.1384 17.2188 25.0913 18.7313 23.8115 20.205C23.1522 20.9806 22.9195 21.7174 22.9195 21.7174C22.9195 21.7174 23.0359 20.8643 23.6176 20.205C24.781 18.8089 25.9057 17.0249 25.9833 15.0083C26.022 13.5734 25.673 12.4487 25.0913 11.4792C25.4015 12.4487 25.3628 13.6897 24.2769 14.8144C24.2769 14.8144 26.4099 12.2548 23.4237 9.57894C22.2215 8.57063 20.9029 7.95013 20.2436 7.52354C22.6869 8.33794 23.8891 7.44598 23.8891 7.44598C23.1135 8.10526 22.1051 8.10526 21.4846 8.02769C21.6398 8.10526 21.8337 8.18282 22.0276 8.29916C24.083 9.42381 25.9445 11.2853 26.2547 13.8061V13.7673C26.7201 16.3269 27.806 16.9474 27.806 16.9474Z" fill="white"/>
<path d="M8.06656 19.7396C8.06656 19.7396 8.80341 19.662 9.11366 19.3518C9.61781 18.9252 9.57903 18.3823 9.57903 18.3823C8.49316 18.3823 7.75631 17.9945 7.21338 17.374C6.63166 16.6759 6.51532 15.9391 6.51532 15.9391C6.51532 15.9391 7.09703 16.482 8.26047 16.482C8.37681 16.482 8.45438 16.482 8.57072 16.482C9.11366 16.4432 9.50147 16.0942 9.50147 16.0942C8.29925 15.3186 7.48485 14 8.22169 11.9834C8.80341 10.3546 10.2383 9.15235 11.6732 8.26038C12.1386 7.95013 12.4101 7.63988 12.4101 7.32964C12.4101 6.67036 11.4405 6.63157 11.0527 6.1662C10.5873 5.62326 10.8976 4.77008 11.2854 4.26592C11.2854 4.26592 11.1691 4.22714 10.9364 4.22714C10.5098 4.22714 9.81172 4.34349 9.23 4.9252C8.45437 5.73961 8.76462 6.63157 8.76462 6.63157L8.53194 6.74792C8.41559 6.7867 8.29925 6.7867 8.14413 6.7867C8.10534 6.7867 8.10534 6.7867 8.06656 6.7867C6.94191 6.7867 6.43775 5.58448 6.43775 5.58448C6.43775 5.58448 5.23554 7.05817 7.01947 8.2216C7.32972 8.41551 7.44606 8.60941 7.40728 8.80332L7.3685 8.95844L7.25216 8.99723C5.97238 9.34626 5.3131 10.2382 4.4987 11.2465C3.29648 12.7978 1.59011 12.8366 1.35742 12.8366C1.35742 12.8366 1.74523 14.0776 2.90867 14.0776H2.94745C3.49039 14.0776 3.76185 13.8449 3.76185 13.8449C3.76185 13.8449 3.95576 16.6371 1.86158 17.5291C1.86158 17.5291 2.24939 18.1884 3.10257 18.1884C4.14967 18.1884 4.57626 17.5291 4.57626 17.5291C4.57626 17.5291 4.4987 18.3435 4.88651 19.4681C5.35188 20.8255 4.88651 21.795 4.88651 21.795C4.88651 21.795 5.11919 21.8726 5.42944 21.8726C5.54579 21.8726 5.66213 21.8726 5.73969 21.8338C6.63166 21.6399 6.82557 20.8255 6.82557 20.8255C6.82557 20.8255 6.748 23.5014 9.88928 23.5014H9.92806C9.92806 23.5014 9.65659 23.1136 9.57903 22.0277C9.4239 20.0499 8.06656 19.7396 8.06656 19.7396ZM7.56241 20.2438C6.32141 18.7701 5.23554 17.2576 5.08041 15.0471C4.96407 15.4349 4.42113 16.5596 3.56795 16.9861C3.56795 16.9861 4.65382 16.3269 5.11919 13.8449V13.8837C5.42944 11.3241 7.29094 9.50138 9.34634 8.37673C9.54025 8.26038 9.69537 8.18282 9.88928 8.10526C9.26878 8.2216 8.26047 8.2216 7.48485 7.52354C7.48485 7.52354 8.68706 8.41551 11.1303 7.6011C10.471 8.0277 9.15244 8.64819 7.95022 9.65651C4.92529 12.2936 7.09703 14.892 7.09703 14.892C6.01116 13.7673 5.97238 12.5651 6.28263 11.5568C5.70091 12.4875 5.35188 13.651 5.39066 15.0859C5.46823 17.0637 6.59288 18.8089 7.75631 20.2438C8.33803 20.9418 8.45437 21.7562 8.45437 21.7562C8.45437 21.7562 8.22169 21.0194 7.56241 20.2438Z" fill="white"/>
<path d="M13.3796 9.92798C13.4183 9.96676 13.4959 10.0443 13.5347 10.1219L13.5735 10.1607C13.6122 10.2382 13.651 10.277 13.6898 10.3546C13.6898 10.3546 13.6898 10.3934 13.7286 10.3934C13.7674 10.4709 13.8449 10.5485 13.8837 10.626C14.3491 11.4017 15.0471 11.867 15.7064 11.867C16.3657 11.867 17.0638 11.4017 17.5291 10.626C17.5679 10.5485 17.6455 10.4709 17.6843 10.3934C17.6843 10.3934 17.6843 10.3546 17.723 10.3546C17.7618 10.277 17.8006 10.2382 17.8782 10.1607L17.917 10.1219C17.9557 10.0443 18.0333 10.0055 18.0721 9.92798C18.0721 9.92798 18.0721 9.92798 18.1109 9.8892C18.3435 9.65651 18.615 9.46261 18.964 9.38505L18.7314 9.30748L18.1109 8.91967L17.4516 8.53186L15.7064 9.50139L13.9613 8.53186L13.302 8.91967L12.6815 9.30748L12.5264 9.38505C12.8366 9.50139 13.1081 9.65651 13.3796 9.92798C13.3408 9.92798 13.3408 9.92798 13.3796 9.92798ZM14.9696 9.85042H15.7064H16.4433V10.3546C16.2881 10.1607 15.9391 10.1994 15.9391 10.1994V10.9363C15.9391 10.9363 15.9391 11.2853 16.0942 11.4404H15.7452H15.3962C15.5125 11.2853 15.5513 10.9363 15.5513 10.9363V10.1994C15.5513 10.1994 15.2023 10.1607 15.0471 10.3546V9.85042H14.9696Z" fill="white"/>
<path d="M15.5512 8.88089V5.89474L13.6509 5.23546L14.155 8.10526L15.5512 8.88089ZM15.1246 6.63158V7.09695L15.047 7.05817C15.047 7.05817 14.8919 7.01939 14.6592 6.82549C14.2714 6.51524 14.2714 6.24377 14.2714 6.24377L15.1246 6.63158Z" fill="white"/>
<path d="M17.2189 8.14405L17.723 5.27425L15.8228 5.93353V8.91967L17.2189 8.14405ZM16.2493 6.63159L17.1025 6.28256C17.1025 6.28256 17.1025 6.55402 16.7147 6.86427C16.482 7.05818 16.3657 7.09696 16.3269 7.09696L16.2493 7.13574V6.63159Z" fill="white"/>
<path d="M12.8754 15.7452C13.0693 15.8227 13.2632 15.8227 13.3796 15.8227V15.7839C13.3796 15.7452 13.4183 15.7064 13.4183 15.6676C13.4571 15.5125 13.4571 15.3186 13.4571 15.2022C13.3796 15.1634 13.2632 15.0859 13.2244 14.9307C13.1469 14.7756 13.0693 14.6981 12.9142 14.6981C12.7203 14.6981 12.5264 14.8144 12.4488 14.8532C12.3713 15.3186 12.6427 15.6676 12.8754 15.7452Z" fill="white"/>
<path d="M17.0248 14.1939C16.6758 14.5817 15.9778 15.241 15.939 15.2798L15.9002 15.3186L13.7284 15.2798C13.7284 15.5125 13.6897 15.6676 13.6509 15.8227C13.6509 15.8615 13.6509 15.8615 13.6509 15.9003L16.2492 16.3657C16.5207 16.1718 17.2575 15.6288 17.529 15.4349C17.3351 15.1247 17.2963 14.7756 17.3351 14.5042C17.2188 14.3878 17.1024 14.2715 17.0248 14.1939Z" fill="white"/>
<path d="M17.3351 11.5568C16.831 12.0609 16.3656 12.2548 15.939 12.2936C15.8614 12.2936 15.7839 12.2936 15.7063 12.2936C15.6287 12.2936 15.5512 12.2936 15.4736 12.2936C15.3961 12.2936 15.3185 12.2936 15.2409 12.2548C15.2021 12.3712 15.1634 12.6039 15.2797 12.8366C15.3573 13.0305 15.5512 13.1856 15.8226 13.3019L15.9002 13.3407V13.4571C15.9002 13.4958 15.939 14.1163 16.5983 14.3103C16.7146 14.1939 16.831 14.0776 16.8697 14C16.7146 13.651 16.7922 13.3407 17.0249 13.1468C17.0249 13.1856 16.9085 14 17.6066 14.3103L17.7229 14.349L17.6841 14.4654C17.6841 14.5042 17.4515 15.3186 18.2659 15.59L18.421 15.6288L18.3434 15.7839C18.3434 15.8227 18.0332 16.5596 18.77 16.9474H20.3988V15.6676C19.8171 15.59 19.5844 15.1247 19.5069 14.8144C19.2354 14.7756 19.0415 14.6593 18.8864 14.4654C18.5373 14.0388 18.8476 13.6122 18.8476 13.5734C18.8476 13.5734 18.8476 14 19.119 14.2715C19.2354 14.3878 19.3905 14.5042 19.662 14.5042H19.7783V14.6205C19.7783 14.6593 19.8559 15.241 20.3988 15.3186V12.7202C20.3988 12.3324 20.5152 11.9058 20.6703 11.518H17.3351V11.5568Z" fill="white"/>
<path d="M12.9917 12.759L12.9529 14.4266L13.1468 14.4654L13.6122 12.8753L13.3795 12.3712L12.9917 12.759Z" fill="white"/>
<path d="M18.1109 20.3989H18.1497C18.4212 20.4764 18.4987 21.5235 19.0029 21.6011C19.0417 21.6011 19.0804 21.6011 19.1192 21.6011C19.2744 21.6011 19.3519 21.5235 19.4295 21.446C19.4295 21.446 19.158 21.0582 19.0029 20.7867C18.7314 20.4377 18.5375 20.0111 18.0721 20.0111H18.0334C17.8782 20.0111 17.8007 20.0886 17.8007 20.0886C17.6068 19.9723 17.4516 19.9335 17.2577 19.9335C16.9475 19.9335 16.7536 20.0498 16.6372 20.0498L15.5901 19.9335C15.435 19.9335 15.2799 19.7396 15.2411 19.7008V19.662C15.2411 19.6233 15.2411 19.6233 15.2411 19.5845C15.2023 18.7313 14.5431 18.3435 14.3104 18.3435C14.3104 18.3435 14.3491 18.1884 14.2716 18.1108L14.0389 18.3823L13.2633 17.9944L13.8062 18.6149L13.3408 19.1191C13.3021 19.1967 13.3021 19.2742 13.3021 19.2742L13.496 19.4681L13.7286 19.313C13.7286 19.313 13.7674 19.313 13.8062 19.313C13.8838 19.313 13.9613 19.313 14.0777 19.313C14.194 19.313 14.2716 19.2742 14.2716 19.1967C14.2328 19.5069 13.9613 20.0498 14.1552 20.5152L14.3104 20.8255L13.3796 20.7091L12.953 21.446C12.8367 21.6787 12.7979 21.9501 12.9142 22.1053L13.0694 22.2992C13.0694 22.2992 13.3021 22.0665 13.3408 21.9113L13.2633 21.8338C13.1857 21.7562 13.1857 21.7174 13.2245 21.6399L13.496 21.1745L14.5818 21.446L14.6206 21.3296C14.6982 21.2133 14.8145 21.1745 14.9309 21.1745C14.9696 21.1745 15.0472 21.1745 15.086 21.1745C15.2799 21.2133 15.6289 21.2521 15.9392 21.2521C16.2882 21.2521 16.676 21.1745 16.8699 20.9806C17.2577 21.5623 18.0721 21.6787 17.9946 21.9501L17.8007 22.9584C17.9558 22.9584 18.0721 22.9584 18.1885 22.9197L18.3824 21.8726C18.4212 21.7562 18.4212 21.6011 18.4212 21.6011C18.3436 21.5235 18.1497 21.3684 18.0334 21.1357C17.8782 20.8643 17.9558 20.7091 17.8394 20.3601C17.9558 20.4764 17.9946 20.3989 18.1109 20.3989ZM14.0001 18.9252C13.9613 18.9252 13.9226 18.8864 13.9226 18.8089C13.9226 18.7701 13.9613 18.7313 14.0389 18.7313C14.0777 18.7313 14.1165 18.7701 14.1165 18.8476C14.0777 18.8864 14.0389 18.9252 14.0001 18.9252Z" fill="white"/>
<path d="M12.4874 21.3296C12.4874 21.3296 12.8364 21.1745 12.8752 21.0582L12.8364 20.9418C12.7977 20.8643 12.7977 20.7867 12.8752 20.7479L13.263 20.4764L13.9223 20.5928C13.9223 20.5928 13.806 20.4377 13.806 20.2438L13.1855 20.1274L12.6038 20.4764C12.3323 20.6704 12.3323 20.9806 12.4099 21.1745L12.4874 21.3296Z" fill="white"/>
<path d="M17.1414 23.036C17.2577 23.036 17.374 23.036 17.5292 23.036C17.5292 23.036 17.8782 22.0665 17.8782 22.0277C17.6843 21.9501 17.2965 21.7175 17.1414 21.6399C17.2577 21.795 17.4904 21.9501 17.4516 22.1053L17.1414 23.036Z" fill="white"/>
<path d="M20.3214 17.2188H11.0139V20.7091C11.0139 22.144 12.061 23.036 13.5735 23.036C14.8532 23.036 15.2023 23.0748 15.6677 23.5402C15.9779 23.2299 16.2494 23.0748 16.8311 23.036V22.9972L17.1413 22.1053C17.1413 22.0665 16.6372 21.5235 16.6372 21.5235C16.4433 21.6011 16.2882 21.6011 16.0167 21.6011C15.7452 21.6011 15.435 21.5623 15.0859 21.5235C15.0472 21.5235 15.0084 21.5235 14.9696 21.5235C14.9308 21.5235 14.9308 21.5235 14.9308 21.5623L14.892 21.6399L14.7757 21.8338L14.5818 21.795L13.6898 21.6011L13.5735 21.7562V21.795L13.6898 21.9114L13.651 22.0665C13.5735 22.2604 13.3796 22.4931 13.302 22.5706L13.0693 22.8033L12.8754 22.5319L12.7203 22.338C12.5652 22.144 12.5264 21.8726 12.6039 21.6011L12.3713 21.7175L12.2549 21.4848L12.1774 21.3296C12.0222 21.0194 12.0998 20.5928 12.4488 20.3213L13.1857 19.9335L13.8837 20.0499C13.8837 19.9723 13.9225 19.7396 13.9613 19.7008H13.9225L13.5347 19.856L13.1469 19.5845C13.1469 19.5845 12.9918 19.4294 13.1469 19.313L13.4959 18.7701L12.5652 17.6066L14.0001 18.1884L14.0776 18.072L14.2715 17.8393L14.5042 18.0332C14.5818 18.1108 14.6206 18.1496 14.6206 18.2271C15.0084 18.3823 15.7064 18.8476 15.784 19.5845H15.5125C15.5513 19.662 15.5901 19.662 15.6289 19.662L16.6372 19.7784C16.676 19.7784 16.676 19.7784 16.7147 19.7396C16.8311 19.7008 17.025 19.6233 17.2577 19.6233C17.4516 19.6233 17.6067 19.662 17.8006 19.7396C17.8782 19.7008 17.9557 19.7008 18.0333 19.7008H18.0721C18.615 19.7008 18.8865 20.1274 19.1192 20.4377C19.158 20.4765 19.1967 20.554 19.2355 20.5928C19.4294 20.8643 19.6621 21.2521 19.7009 21.2909L19.8172 21.4848L19.6621 21.6399C19.5458 21.7562 19.3906 21.9114 19.1192 21.9114C19.0804 21.9114 19.0028 21.9114 18.9253 21.9114C18.8865 21.9114 18.8089 21.8726 18.7701 21.8726C18.7701 21.9114 18.7701 21.9889 18.7314 22.0277L18.5375 22.9585C19.6233 22.687 20.2826 21.8726 20.2826 20.7091L20.3214 17.2188Z" fill="#FFE64A"/>
<path d="M11.0139 16.9474H18.266C17.917 16.5596 17.917 16.0942 17.9945 15.7839C17.8782 15.7452 17.8006 15.6676 17.7231 15.59C17.4516 15.7839 16.5596 16.4432 16.3657 16.5983L16.327 16.6371L13.4959 16.133H13.4572C13.3796 16.133 13.302 16.133 13.1857 16.133C13.1469 16.2493 13.0306 16.3657 12.9142 16.3657H12.8754C12.7979 16.3657 12.7203 16.3269 12.6815 16.2493C12.6427 16.1717 12.604 16.133 12.6427 16.0554V15.9778C12.3325 15.7839 12.061 15.3186 12.2162 14.8144V14.7756L12.2549 14.7368C12.2549 14.7368 12.2937 14.6981 12.3713 14.6593L12.1774 14.6205C12.0998 14.6205 12.061 14.5429 12.061 14.4654C12.061 14.3878 12.1386 14.349 12.2162 14.349L12.7203 14.4266L12.7591 12.6814L13.4959 11.9058L13.9613 12.8753L13.4959 14.5429L13.9225 14.6205C14.0001 14.6205 14.0389 14.6981 14.0389 14.7756C14.0389 14.8532 13.9613 14.892 13.8837 14.892C13.8837 14.892 13.8837 14.892 13.845 14.892L13.4959 14.8532C13.4959 14.8532 13.4959 14.8532 13.4959 14.892C13.5347 14.9695 13.6123 15.0083 13.6511 15.0471L15.8228 15.0859C15.9004 15.0083 16.1331 14.7756 16.3657 14.5429C15.8228 14.349 15.6289 13.8837 15.5901 13.5734C15.2799 13.4571 15.086 13.2632 14.9696 12.9917C14.8145 12.6814 14.8921 12.3712 14.9308 12.2161C14.6594 12.0997 14.3491 11.9058 14.0389 11.5956H10.7812C10.9364 11.9834 11.0527 12.3712 11.0527 12.7978V16.9474H11.0139Z" fill="#FFE64A"/>
<path d="M13.9999 18.7313C13.9611 18.7313 13.8835 18.7701 13.8835 18.8089C13.8835 18.8476 13.9223 18.9252 13.9611 18.9252C13.9999 18.9252 14.0775 18.8864 14.0775 18.8476C14.1162 18.7701 14.0775 18.7313 13.9999 18.7313Z" fill="black"/>
<path d="M20.3214 25.0914L19.7785 24.8587L19.9336 24.3158L20.0887 23.6953C20.0887 23.6953 19.158 24.1995 17.8006 24.5873C17.4128 24.7036 17.1413 24.7424 17.1413 24.7424V25.2078C17.1413 25.2078 16.4433 25.3241 15.7064 25.3241C14.9696 25.3241 14.2715 25.2078 14.2715 25.2078V24.7812C14.2715 24.7812 14.0001 24.7424 13.6123 24.626C12.2549 24.2382 11.3242 23.7341 11.3242 23.7341L11.4793 24.3546L11.6344 24.8975L11.0915 25.0914L10.5098 25.3241C11.2078 25.6731 12.1386 26.1385 12.9918 26.3712L12.7979 26.9141C12.7979 26.9141 13.8837 27.4183 15.7452 27.4183C17.5679 27.4183 18.6926 26.9141 18.6926 26.9141L18.4987 26.3712C19.3519 26.1385 20.3214 25.6344 20.9807 25.3241L20.3214 25.0914ZM11.0915 25.3241L11.9834 25.0139L11.712 24.1607C12.0998 24.3934 12.953 24.7036 13.4571 24.8587L13.0305 26.0222C12.2549 25.867 11.6344 25.5956 11.0915 25.3241ZM15.6677 27.108C14.6593 27.108 13.4571 26.8754 13.1469 26.759L13.651 25.3241C14.0776 25.4405 14.9696 25.5956 15.6289 25.5956H15.6677C16.3269 25.5956 17.2189 25.4792 17.6455 25.3241L18.2272 26.759C17.8782 26.8754 16.7148 27.108 15.6677 27.108ZM18.3436 26.0609L17.917 24.8975C18.4211 24.7424 19.2743 24.3934 19.7009 24.1995L19.3906 25.0526L20.2826 25.3629C19.7397 25.5956 19.1192 25.867 18.3436 26.0609Z" fill="black"/>
<path d="M15.6675 2.98616C16.7533 2.98616 17.6453 3.33519 18.1107 3.723C18.1107 3.723 18.2658 2.86982 18.7312 2.09419L17.8392 2.21054L17.3738 1.24101L16.4819 1.70638L15.6287 0.853195L14.7755 1.70638L13.9611 1.24101L13.4957 2.21054L12.6038 2.09419C13.1079 2.86982 13.2243 3.723 13.2243 3.723C13.7284 3.33519 14.5816 2.98616 15.6675 2.98616ZM13.4569 2.55957L13.6896 2.59835L13.806 2.36566L14.1162 1.70638L14.6979 2.01663L14.9306 2.13297L15.0858 1.93907L15.7063 1.31857L16.288 1.93907L16.4819 2.09419L16.7146 1.97785L17.2963 1.6676L17.6065 2.32688L17.7229 2.55957L17.9556 2.52079L18.1882 2.482C18.0719 2.71469 17.9943 2.94738 17.9556 3.14128C17.3351 2.79225 16.5594 2.59835 15.7063 2.59835C14.8918 2.59835 14.0774 2.79225 13.4957 3.14128C13.4569 2.94738 13.3794 2.71469 13.263 2.482L13.4569 2.55957Z" fill="black"/>
<path d="M28.4654 14.4266C29.8616 14.4266 30.3657 12.9917 30.3657 12.9141L30.5208 12.41H29.9779C29.784 12.41 28.2327 12.3712 27.1469 10.9751L27.0693 10.8587C26.3325 9.92797 25.6732 9.07479 24.4322 8.68698C24.471 8.6482 24.5098 8.60941 24.5873 8.57063C25.2466 8.14404 25.5956 7.63989 25.712 7.01939C25.8671 6.12742 25.2854 5.39058 25.2466 5.3518L24.8588 4.84764L24.6261 5.42936C24.6261 5.46814 24.1995 6.39889 23.3463 6.39889H23.2688C23.1912 6.39889 23.1524 6.39889 23.1136 6.39889C23.1524 5.97229 23.0749 5.3518 22.4931 4.77008C21.7951 4.03324 20.9419 3.95567 20.5153 3.95567C20.2826 3.95567 20.1275 3.99445 20.0887 3.99445L19.507 4.1108L19.856 4.57617C20.1275 4.96398 20.399 5.62326 20.0887 6.01108C19.9724 6.12742 19.7785 6.20498 19.5846 6.32132C19.1967 6.51523 18.6538 6.74792 18.6538 7.4072C18.6538 7.83379 18.9641 8.26038 19.5846 8.6482C21.3297 9.73407 22.4156 10.8975 22.881 12.1773C23.6178 14.1163 22.6483 15.241 21.7563 15.8227L21.3297 16.0942L21.6787 16.4432C21.7175 16.482 22.1829 16.8698 22.8034 16.9474C22.9197 16.9474 23.0361 16.9474 23.1524 16.9474C23.579 16.9474 23.928 16.8698 24.1995 16.7922C24.1219 16.9474 24.0056 17.0637 23.8893 17.2188C23.3463 17.8393 22.7258 18.1108 21.7951 18.1108H21.4461L21.4073 18.4598C21.4073 18.5374 21.3685 19.1579 21.989 19.7008C22.0665 19.7784 22.1829 19.856 22.2992 19.8947C21.8726 20.2825 21.4848 20.903 21.4073 22.0277C21.3297 22.9584 21.1358 23.3075 21.097 23.3075L20.7092 23.8892H21.4073C22.5319 23.8892 23.4239 23.5789 24.0056 22.9584C24.3546 22.6094 24.5485 22.1828 24.7037 21.795C24.8976 21.9501 25.169 22.1053 25.4793 22.1828C25.5956 22.2216 25.7508 22.2216 25.9059 22.2216C26.2161 22.2216 26.4876 22.144 26.5264 22.144L26.953 22.0277L26.7591 21.6011C26.7591 21.5623 26.3713 20.7479 26.7591 19.5845C26.9142 19.0803 27.0305 18.615 27.0693 18.2659C27.3408 18.4211 27.7286 18.5374 28.194 18.5374C29.2798 18.5374 29.7452 17.723 29.784 17.6842L30.0167 17.2964L29.6289 17.1413C28.3491 16.5983 28.0388 15.1634 28.0001 14.3878C28.1164 14.4266 28.2327 14.4266 28.3879 14.4266H28.4654ZM29.5125 17.4903C29.5125 17.4903 29.1247 18.1496 28.2715 18.1496C27.2244 18.1496 26.7978 17.4903 26.7978 17.4903C26.7978 17.4903 26.8754 18.3047 26.4876 19.4294C26.0222 20.7867 26.4876 21.7562 26.4876 21.7562C26.4876 21.7562 26.2549 21.8338 25.9447 21.8338C25.8283 21.8338 25.712 21.8338 25.6344 21.795C24.7424 21.6011 24.5485 20.7867 24.5485 20.7867C24.5485 20.7867 24.6261 23.4626 21.4848 23.4626H21.4461C21.4461 23.4626 21.7175 23.0748 21.7951 21.9889C21.9502 20.0111 23.3075 19.7396 23.3075 19.7396C23.3075 19.7396 22.5707 19.662 22.2605 19.3518C21.7563 18.9252 21.7951 18.3823 21.7951 18.3823C22.881 18.3823 23.6178 17.9945 24.1607 17.374C24.7424 16.6759 24.8588 15.9391 24.8588 15.9391C24.8588 15.9391 24.2771 16.482 23.1136 16.482C22.9973 16.482 22.9197 16.482 22.8034 16.482C22.2605 16.4432 21.8726 16.0942 21.8726 16.0942C23.0749 15.3186 23.8893 14 23.1524 11.9834C22.5707 10.3546 21.1358 9.15235 19.7009 8.26038C19.2743 7.98891 19.0028 7.63988 19.0028 7.36842C19.0028 6.70914 19.9724 6.67036 20.3602 6.20498C20.8256 5.66205 20.5153 4.80886 20.1275 4.3047C20.1275 4.3047 20.2438 4.26592 20.4765 4.26592C20.9031 4.26592 21.6012 4.38227 22.1829 4.96398C22.9585 5.77839 22.6483 6.67036 22.6483 6.67036L22.8422 6.70914C22.9585 6.74792 23.0749 6.74792 23.23 6.74792C23.2688 6.74792 23.2688 6.74792 23.3075 6.74792C24.4322 6.74792 24.9364 5.5457 24.9364 5.5457C24.9364 5.5457 26.1386 7.01939 24.3546 8.18282C24.0444 8.37673 23.928 8.57063 23.9668 8.76454L24.0056 8.88088L24.1219 8.91966C25.4017 9.26869 26.061 10.1607 26.8754 11.169C28.0776 12.7202 29.784 12.759 30.0167 12.759H30.0555C30.0555 12.759 29.6677 14 28.5042 14H28.4654C27.9225 14 27.651 13.7673 27.651 13.7673C27.651 13.7673 27.4183 16.6371 29.5125 17.4903Z" fill="black"/>
<path d="M26.0222 8.84209C26.5651 9.11355 26.8366 9.50137 27.1081 9.8504C27.3795 10.1606 27.6122 10.4709 28 10.626C28.1552 10.6648 28.2715 10.7036 28.4266 10.7036C29.0084 10.7036 29.5901 10.3546 29.8228 9.8504L30.0554 9.34624L29.5125 9.30746C29.4737 9.30746 28.7757 9.2299 28 8.45427C27.6898 8.14402 27.302 7.95012 26.8754 7.95012C26.3712 7.95012 25.9834 8.22159 25.9446 8.22159L25.4792 8.53184L26.0222 8.84209ZM26.9142 8.26037C27.1856 8.26037 27.4959 8.33793 27.7673 8.64818C28.6593 9.57893 29.5125 9.61771 29.5125 9.61771C29.3574 9.96674 28.9308 10.2382 28.4654 10.2382C28.3491 10.2382 28.2327 10.2382 28.1552 10.1994C27.5347 10.0055 27.302 9.03599 26.2161 8.45427C26.1773 8.49305 26.4876 8.26037 26.9142 8.26037Z" fill="black"/>
<path d="M26.2547 13.8061C25.9445 11.2853 24.083 9.42382 22.0276 8.29917C21.8337 8.18283 21.6786 8.10526 21.4846 8.0277C22.1051 8.14404 23.1135 8.14404 23.8891 7.44598C23.8891 7.44598 22.6869 8.33795 20.2437 7.52355C20.9029 7.95014 22.2215 8.57064 23.4237 9.57895C26.4486 12.2161 24.2769 14.8144 24.2769 14.8144C25.3628 13.6898 25.4015 12.4875 25.0913 11.4792C25.673 12.41 26.022 13.5734 25.9832 15.0083C25.9057 17.0249 24.781 18.8089 23.6176 20.205C23.0359 20.903 22.9195 21.7175 22.9195 21.7175C22.9195 21.7175 23.1522 20.9806 23.8115 20.205C25.0525 18.7313 26.1384 17.2188 26.2935 15.0083C26.4098 15.3961 26.9528 16.5208 27.806 16.9474C27.806 16.9474 26.7201 16.3269 26.2547 13.8061Z" fill="black"/>
<path d="M10.2383 23.2687C10.2383 23.2687 10.0056 22.9197 9.96681 21.9889C9.88925 20.8643 9.46265 20.2438 9.03606 19.856C9.1524 19.8172 9.26875 19.7396 9.34631 19.6621C9.96681 19.1191 9.92803 18.4598 9.92803 18.4211L9.88925 18.072H9.54022C8.60947 18.072 7.95019 17.7618 7.44603 17.1801C7.32969 17.0249 7.21335 16.9086 7.13578 16.7535C7.40725 16.831 7.79506 16.9086 8.18288 16.9086C8.29922 16.9086 8.41556 16.9086 8.53191 16.9086C9.19119 16.8698 9.61778 16.482 9.65656 16.4044L10.0056 16.0554L9.579 15.7839C8.64825 15.2022 7.7175 14.0776 8.45434 12.1385C8.91972 10.8587 10.0056 9.69529 11.7507 8.60942C12.3325 8.22161 12.6815 7.79502 12.6815 7.36842C12.6815 6.70914 12.1386 6.47646 11.7507 6.28255C11.5568 6.20499 11.3629 6.08865 11.2466 5.9723C10.9363 5.62327 11.2078 4.92521 11.4793 4.5374L11.8671 4.07203L11.2854 3.95568C11.2854 3.95568 11.1302 3.9169 10.8588 3.9169C10.4322 3.9169 9.579 4.03324 8.88094 4.7313C8.29922 5.31302 8.22166 5.9723 8.26044 6.36011C8.22166 6.36011 8.14409 6.36011 8.10531 6.36011H8.02775C7.17457 6.36011 6.74797 5.42937 6.74797 5.39058L6.51529 4.80887L6.12747 5.31302C6.08869 5.3518 5.50698 6.04986 5.6621 6.98061C5.73966 7.60111 6.12747 8.10527 6.78675 8.53186C6.86432 8.57064 6.9031 8.60942 6.94188 8.6482C5.70088 9.03601 5.0416 9.92798 4.30476 10.8199L4.18842 10.9363C3.10254 12.41 1.5513 12.4488 1.35739 12.4488H0.814453L0.969578 12.9529C0.969578 13.0305 1.47373 14.4654 2.86986 14.4654H2.94742C3.10254 14.4654 3.21889 14.4266 3.33523 14.4266C3.25767 15.2022 2.9862 16.6371 1.70642 17.1801L1.31861 17.3352L1.5513 17.723C1.5513 17.723 2.01667 18.5374 3.10254 18.5374C3.56792 18.5374 3.95573 18.4211 4.2272 18.2659C4.26598 18.615 4.34354 19.0803 4.53745 19.5845C4.92526 20.7479 4.57623 21.6011 4.53745 21.6011L4.34354 22.0277L4.77013 22.144C4.80891 22.144 5.08038 22.2216 5.39063 22.2216C5.54576 22.2216 5.6621 22.2216 5.81722 22.1828C6.16625 22.1053 6.39894 21.9501 6.59285 21.795C6.70919 22.144 6.9031 22.5706 7.29091 22.9584C7.91141 23.5789 8.76459 23.8892 9.88925 23.8892H10.5873L10.2383 23.2687ZM9.88925 23.4626C6.74797 23.4626 6.82553 20.7867 6.82553 20.7867C6.82553 20.7867 6.59285 21.6011 5.73966 21.795C5.62332 21.8338 5.50697 21.8338 5.42941 21.8338C5.15794 21.8338 4.88648 21.7562 4.88648 21.7562C4.88648 21.7562 5.35185 20.7867 4.88648 19.4294C4.49866 18.3047 4.57623 17.4903 4.57623 17.4903C4.57623 17.4903 4.14963 18.1108 3.10254 18.1496C2.24936 18.1496 1.86154 17.4903 1.86154 17.4903C3.95573 16.6371 3.76182 13.8061 3.76182 13.8061C3.76182 13.8061 3.49035 14 2.94742 14.0388H2.90864C1.7452 14.0388 1.35739 12.7978 1.35739 12.7978H1.39617C1.59008 12.7978 3.33523 12.759 4.53745 11.2078C5.35185 10.1994 5.97235 9.30748 7.29091 8.95845L7.40725 8.91967L7.44603 8.80333C7.48481 8.60942 7.32969 8.41551 7.05822 8.22161C5.27429 7.05817 6.4765 5.58449 6.4765 5.58449C6.4765 5.58449 6.98066 6.78671 8.10531 6.78671C8.14409 6.78671 8.14409 6.78671 8.18288 6.78671C8.29922 6.78671 8.45434 6.78671 8.57069 6.74792L8.76459 6.70914C8.76459 6.70914 8.45434 5.81718 9.22997 5.00277C9.81168 4.38227 10.5485 4.30471 10.9363 4.30471C11.1302 4.30471 11.2854 4.34349 11.2854 4.34349C10.8976 4.84765 10.6261 5.70083 11.0527 6.24377C11.4405 6.70914 12.41 6.70914 12.41 7.4072C12.41 7.67867 12.1386 8.0277 11.6732 8.33795C10.2383 9.22992 8.80337 10.4321 8.22166 12.0609C7.48481 14.0776 8.29922 15.3961 9.50144 16.1717C9.50144 16.1717 9.11362 16.5208 8.57069 16.5596C8.45434 16.5596 8.338 16.5596 8.26044 16.5596C7.097 16.5596 6.51529 16.0166 6.51529 16.0166C6.51529 16.0166 6.63163 16.7535 7.21335 17.4515C7.75628 18.072 8.49313 18.4598 9.579 18.4598C9.579 18.4598 9.61778 18.964 9.11362 19.4294C8.80337 19.7008 8.06653 19.8172 8.06653 19.8172C8.06653 19.8172 9.42387 20.0886 9.579 22.0665C9.65656 23.1136 9.92803 23.4626 9.88925 23.4626Z" fill="black"/>
<path d="M2.90859 10.6648C3.06372 10.6648 3.21884 10.626 3.33519 10.5873C3.723 10.4709 3.99447 10.1607 4.22715 9.81164C4.49862 9.46261 4.80887 9.11358 5.31302 8.80333L5.85596 8.53186L5.35181 8.18283C5.31302 8.14405 4.92521 7.91136 4.42106 7.91136C3.99447 7.91136 3.60665 8.06649 3.2964 8.41552C2.52078 9.22992 1.82272 9.2687 1.78394 9.2687L1.27979 9.30748L1.51247 9.81164C1.74516 10.277 2.32688 10.6648 2.90859 10.6648ZM3.60665 8.68699C3.87812 8.37674 4.18837 8.29917 4.45984 8.29917C4.84765 8.29917 5.1579 8.53186 5.1579 8.53186C4.07203 9.11358 3.83934 10.0443 3.21884 10.277C3.1025 10.3158 3.02494 10.3158 2.90859 10.3158C2.44322 10.3158 2.01663 10.0055 1.8615 9.6953C1.8615 9.65651 2.71469 9.57895 3.60665 8.68699Z" fill="black"/>
<path d="M5.39059 15.0083C5.31302 13.5734 5.70083 12.4488 6.28255 11.4792C5.9723 12.4488 6.01108 13.6897 7.09696 14.8144C7.09696 14.8144 4.96399 12.2548 7.95014 9.57895C9.15236 8.57064 10.4709 7.95014 11.1302 7.52355C8.68698 8.33795 7.48477 7.44598 7.48477 7.44598C8.26039 8.10526 9.2687 8.10526 9.8892 8.0277C9.73407 8.10526 9.54017 8.18283 9.34626 8.29917C7.29086 9.42382 5.42937 11.2853 5.11912 13.8061V13.7673C4.65374 16.2881 3.56787 16.9086 3.56787 16.9086C4.42106 16.482 4.96399 15.3961 5.08034 14.9695C5.23546 17.1801 6.28255 18.6925 7.56233 20.1662C8.22161 20.9418 8.4543 21.6787 8.4543 21.6787C8.4543 21.6787 8.33795 20.8255 7.75624 20.1662C6.5928 18.8089 5.46815 17.0637 5.39059 15.0083Z" fill="black"/>
<path d="M14.9695 9.85042V10.3546C15.1634 10.1607 15.4736 10.1994 15.4736 10.1994V10.9363C15.4736 10.9363 15.4736 11.2853 15.3185 11.4404H15.6675H16.0166C15.9002 11.2853 15.8615 10.9363 15.8615 10.9363V10.1994C15.8615 10.1994 16.2105 10.1607 16.3656 10.3546V9.85042H15.6288H14.9695Z" fill="black"/>
<path d="M14.6593 6.86427C14.892 7.05817 15.0471 7.09696 15.0471 7.09696L15.1247 7.13574V6.67036L14.2715 6.32133C14.2715 6.28255 14.2715 6.55402 14.6593 6.86427Z" fill="black"/>
<path d="M16.7146 6.86428C17.1025 6.55403 17.1025 6.28256 17.1025 6.28256L16.2493 6.63159V7.09697L16.3268 7.05819C16.3268 7.05819 16.482 7.0194 16.7146 6.86428Z" fill="black"/>
<path d="M18.266 4.92521C18.266 4.18837 17.0637 3.56787 15.7064 3.56787C14.3491 3.56787 13.1468 4.22715 13.1468 4.92521L13.1856 5.11912L13.7286 8.22161L13.1856 8.53186L11.7507 9.30748C11.7507 9.30748 11.4405 9.46261 11.2854 9.57895C10.7424 9.96676 10.6261 10.4709 10.9363 10.7036C11.0139 10.277 11.3629 9.81164 12.0222 9.81164C12.4876 9.81164 12.8366 10.0443 13.1468 10.4321C13.2244 10.5097 13.302 10.626 13.3408 10.7424C13.4183 10.8587 13.4959 10.9751 13.5734 11.0914H9.9668C10.2383 11.6344 10.471 12.1773 10.471 12.7978V20.7479C10.471 22.687 11.9446 23.579 13.5734 23.579C14.8144 23.579 14.9696 23.5402 15.6676 24.1995C16.3657 23.5014 16.5208 23.579 17.7618 23.579C19.3518 23.579 20.8643 22.6482 20.8643 20.7479V12.759C20.8643 12.1385 21.097 11.5956 21.3684 11.0526H17.7618C17.8394 10.9363 17.9169 10.82 17.9945 10.7036C18.0721 10.5873 18.1496 10.5097 18.1884 10.3934C18.4599 10.0443 18.8477 9.77286 19.313 9.77286C19.9723 9.77286 20.3214 10.2382 20.3989 10.6648C20.7092 10.4321 20.5928 9.8892 20.0499 9.54017C19.8948 9.42383 19.5845 9.2687 19.5845 9.2687L18.2272 8.49308L17.6842 8.18283L18.2272 5.08034L18.266 4.92521ZM13.651 5.27424L15.5513 5.93352V8.91967L14.1552 8.14405L13.651 5.27424ZM14.0388 11.5568C14.3491 11.867 14.6593 12.0609 14.9308 12.1773C14.892 12.3324 14.8532 12.6427 14.9696 12.9529C15.0859 13.1856 15.2798 13.3795 15.5901 13.5346C15.6288 13.8449 15.8227 14.3103 16.3657 14.5042C16.133 14.7368 15.9003 14.9695 15.8227 15.0471L13.651 15.0083C13.6122 14.9695 13.5347 14.9308 13.4959 14.8532C13.4959 14.8532 13.4959 14.8532 13.4959 14.8144L13.8449 14.8532C13.8449 14.8532 13.8449 14.8532 13.8837 14.8532C13.9613 14.8532 14 14.8144 14.0388 14.7368C14.0388 14.6593 14 14.5817 13.9225 14.5817L13.4959 14.5042L13.9613 12.8366L13.4959 11.867L12.759 12.6427L12.7203 14.3878L12.2161 14.3103C12.1385 14.3103 12.061 14.349 12.061 14.4266C12.061 14.5042 12.0998 14.5817 12.1773 14.5817L12.3712 14.6205C12.2937 14.6593 12.2549 14.6981 12.2549 14.6981L12.1773 14.7368V14.7756C12.061 15.2798 12.3324 15.7064 12.6039 15.9391V16.0166C12.6039 16.0942 12.6039 16.1718 12.6427 16.2105C12.6815 16.2881 12.759 16.3269 12.8366 16.3269H12.8754C12.9917 16.3269 13.1081 16.2493 13.1468 16.0942C13.2632 16.0942 13.3408 16.0942 13.4183 16.0942H13.4571L16.2881 16.5983L16.3269 16.5596C16.5596 16.4044 17.4128 15.7839 17.6842 15.5513C17.7618 15.6288 17.8394 15.6676 17.9557 15.7452C17.8781 16.0554 17.8394 16.5208 18.2272 16.9086H11.0139V12.759C11.0139 12.3712 10.8975 11.9446 10.7424 11.5568H14.0388ZM17.5291 15.3961C17.2576 15.59 16.5208 16.133 16.2493 16.3269L13.651 15.8615C13.651 15.8227 13.651 15.8227 13.651 15.7839C13.6898 15.6676 13.7286 15.4737 13.7286 15.241L15.9003 15.2798L15.9391 15.241C15.9779 15.2022 16.6759 14.5429 17.025 14.1551C17.1025 14.2715 17.2189 14.349 17.3352 14.4654C17.3352 14.7368 17.3352 15.0859 17.5291 15.3961ZM13.2244 14.9308C13.302 15.0471 13.3795 15.1247 13.4571 15.2022C13.4571 15.3186 13.4571 15.5125 13.4183 15.6676C13.4183 15.7064 13.4183 15.7452 13.3795 15.7839C13.3795 15.8227 13.3795 15.8227 13.3795 15.8227C13.2632 15.8227 13.0305 15.8227 12.8754 15.7452C12.6815 15.6676 12.3712 15.2798 12.4488 14.892C12.5264 14.8532 12.759 14.7368 12.9142 14.7368C13.0693 14.7368 13.1468 14.7756 13.2244 14.9308ZM12.9529 14.4266L12.9917 12.759L13.3795 12.3712L13.6122 12.8754L13.1468 14.4654L12.9529 14.4266ZM17.5291 23.036C17.374 23.036 17.2576 23.036 17.1413 23.036L17.4516 22.1053C17.4903 21.9889 17.2576 21.795 17.1413 21.6399C17.2964 21.7175 17.6842 21.9501 17.8781 22.0277C17.8394 22.0665 17.5291 23.036 17.5291 23.036ZM18.4986 21.9501L18.3047 22.9972C18.1884 22.9972 18.0333 23.036 17.9169 23.036L18.1108 22.0277C18.1884 21.7175 17.374 21.6399 16.9862 21.0582C16.7923 21.2909 16.4432 21.3296 16.0554 21.3296C15.7064 21.3296 15.3962 21.2909 15.2022 21.2521C15.1635 21.2521 15.0859 21.2521 15.0471 21.2521C14.9308 21.2521 14.8144 21.2909 14.7369 21.4072L14.6981 21.5236L13.5734 21.2133L13.302 21.6787C13.2632 21.7562 13.2632 21.795 13.3408 21.8726L13.4183 21.9501C13.3795 22.1053 13.1468 22.338 13.1468 22.338L12.9917 22.1441C12.8754 21.9889 12.8754 21.7175 13.0305 21.4848L13.4571 20.7479L14.3878 20.8643L14.2327 20.554C14.0388 20.1274 14.3491 19.5845 14.3491 19.2355C14.3491 19.313 14.2327 19.3518 14.1552 19.3518C14.0776 19.3518 13.9613 19.3518 13.8837 19.3518C13.8449 19.3518 13.8449 19.3518 13.8061 19.3518L13.5734 19.5069L13.3795 19.313C13.3408 19.2742 13.3408 19.1967 13.4183 19.1579L13.8837 18.6537L13.3408 18.0332L14.1164 18.4211L14.3491 18.1496C14.4266 18.2272 14.3878 18.3823 14.3878 18.3823C14.6205 18.3823 15.2798 18.7701 15.3186 19.6233C15.3186 19.6621 15.3186 19.6621 15.3186 19.7008C15.3186 19.7008 15.3186 19.7008 15.3186 19.7396C15.3574 19.8172 15.5125 19.9723 15.6676 19.9723L16.7147 20.0886C16.8311 20.0886 17.0637 19.9723 17.3352 19.9723C17.4903 19.9723 17.6842 20.0111 17.8781 20.1274C17.8781 20.1274 17.9557 20.0499 18.1108 20.0499H18.1496C18.615 20.0499 18.8089 20.4765 19.0804 20.8255C19.2743 21.097 19.507 21.4848 19.507 21.4848C19.4294 21.6011 19.313 21.6399 19.1967 21.6399C19.1579 21.6399 19.1191 21.6399 19.0804 21.6399C18.5762 21.5623 18.4986 20.5152 18.2272 20.4377H18.1884C18.1108 20.4377 18.0721 20.5152 18.0721 20.5152C18.1884 20.8643 18.1108 21.0194 18.266 21.2909C18.3823 21.4848 18.5762 21.6399 18.6538 21.7562C18.5374 21.6787 18.4986 21.8338 18.4986 21.9501ZM12.8366 20.9806L12.8754 21.097C12.8366 21.2133 12.4876 21.3684 12.4876 21.3684L12.41 21.1745C12.3324 20.9806 12.3324 20.6704 12.6039 20.4765L13.1856 20.1274L13.8061 20.2438C13.8061 20.4377 13.9225 20.5928 13.9225 20.5928L13.2632 20.4765L12.8754 20.7479C12.8366 20.7867 12.8366 20.9031 12.8366 20.9806ZM18.5762 22.9585L18.7701 22.0277C18.7701 21.9889 18.8089 21.9114 18.8089 21.8726C18.8477 21.9114 18.9252 21.9114 18.964 21.9114C19.0416 21.9114 19.0804 21.9114 19.1579 21.9114C19.4294 21.9114 19.5845 21.7562 19.7009 21.6399L19.856 21.4848L19.7396 21.2909C19.7396 21.2909 19.4682 20.8643 19.2743 20.5928C19.2355 20.554 19.1967 20.4765 19.1579 20.4377C18.9252 20.1274 18.6538 19.7008 18.1108 19.7008H18.0721C17.9945 19.7008 17.9169 19.7396 17.8394 19.7396C17.6842 19.6621 17.4903 19.6233 17.2964 19.6233C17.0637 19.6233 16.8698 19.7008 16.7535 19.7396C16.7147 19.7784 16.6759 19.7784 16.6372 19.7784L15.6288 19.6621C15.6288 19.6621 15.5901 19.6233 15.5125 19.5845L15.7452 19.5069C15.6676 18.7701 14.9696 18.3047 14.5818 18.1496C14.5818 18.072 14.543 17.9945 14.4654 17.9557L14.2327 17.7618L14.0388 17.9945L13.9613 18.072L12.5264 17.4903L13.4571 18.6537L13.1081 19.1967C12.9917 19.3518 13.1081 19.4682 13.1081 19.4682L13.4959 19.7396L13.8837 19.5845H13.9225C13.9225 19.6621 13.8837 19.8947 13.8449 19.9335L13.1856 19.856L12.4488 20.2438C12.061 20.5152 12.0222 20.9806 12.1773 21.2521L12.2549 21.4072L12.3712 21.6399L12.6039 21.5236C12.5264 21.795 12.5651 22.1053 12.7203 22.2604L12.8754 22.4543L13.0693 22.7258L13.302 22.4931C13.3795 22.4155 13.5734 22.1828 13.651 21.9889L13.6898 21.8338L13.5734 21.7175V21.6787L13.6898 21.4848L14.5818 21.6787L14.7757 21.7175L14.892 21.5236L14.9308 21.446C14.9308 21.4072 14.9308 21.4072 14.9696 21.4072C15.0083 21.4072 15.0471 21.4072 15.0859 21.4072C15.4349 21.4848 15.7452 21.4848 16.0167 21.4848C16.2881 21.4848 16.4432 21.4848 16.6372 21.4072C16.6372 21.4072 17.1025 21.9501 17.1413 21.9889L16.8311 22.8809V22.9197C16.2881 22.9585 16.0167 23.0748 15.6676 23.4238C15.2022 22.9585 14.8532 22.9197 13.5734 22.9197C12.061 22.9197 11.0139 22.0277 11.0139 20.5928V17.1025H20.3214V20.5928C20.3214 21.8726 19.6621 22.687 18.5762 22.9585ZM20.5928 11.5568C20.4377 11.9446 20.3214 12.3324 20.3214 12.759V15.3573C19.7784 15.2798 19.7009 14.6593 19.7009 14.6593V14.5429H19.5845C19.3518 14.5042 19.1967 14.4266 19.0416 14.3103C18.7701 14.0388 18.7701 13.6122 18.7701 13.6122C18.7701 13.651 18.4599 14.0388 18.8089 14.5042C18.964 14.6981 19.1579 14.8144 19.4294 14.8532C19.507 15.1634 19.7396 15.6288 20.3214 15.7064V16.9862H18.6926C17.9557 16.5596 18.266 15.8615 18.266 15.8227L18.3435 15.6676L18.2272 15.5513C17.4128 15.241 17.6455 14.4654 17.6455 14.4266L17.6842 14.3103L17.5679 14.2715C16.9086 13.9612 16.9862 13.1468 16.9862 13.108C16.7923 13.2632 16.7147 13.6122 16.8311 13.9612C16.7535 14.0388 16.6372 14.1551 16.5596 14.2715C15.9003 14.0776 15.9003 13.4183 15.9003 13.4183V13.3019L15.8227 13.2632C15.5513 13.1468 15.3574 13.0305 15.2798 12.7978C15.1635 12.5651 15.2022 12.3324 15.241 12.2161C15.3186 12.2161 15.3962 12.2549 15.4737 12.2549C15.5513 12.2549 15.6288 12.2549 15.7064 12.2549C15.784 12.2549 15.8615 12.2549 15.9391 12.2549C16.3657 12.2161 16.8311 12.0222 17.3352 11.518H20.5928V11.5568ZM18.0721 8.91967L18.6926 9.30748L18.8477 9.38505C18.4986 9.50139 18.2272 9.65651 17.9945 9.8892C17.9945 9.8892 17.9945 9.8892 17.9557 9.92798C17.9169 9.96676 17.8394 10.0443 17.8006 10.1219C17.8006 10.1219 17.8006 10.1607 17.7618 10.1607C17.723 10.2382 17.6842 10.277 17.6067 10.3546C17.6067 10.3546 17.6067 10.3934 17.5679 10.3934C17.5291 10.4709 17.4516 10.5485 17.4128 10.626C16.9474 11.4017 16.2493 11.867 15.5901 11.867C14.9308 11.867 14.2327 11.4017 13.7673 10.626C13.7286 10.5485 13.651 10.4709 13.6122 10.3934L13.5734 10.3546C13.5347 10.277 13.4959 10.2382 13.4571 10.1607L13.4183 10.1219C13.3795 10.0443 13.302 10.0055 13.2632 9.92798C13.2632 9.92798 13.2632 9.92798 13.2244 9.8892C12.9917 9.65651 12.7203 9.46261 12.3712 9.38505L12.5264 9.30748L13.1468 8.91967L13.8061 8.53186L15.5513 9.50139L17.2964 8.53186L18.0721 8.91967ZM17.2189 8.14405L15.8227 8.88089V5.89474L17.723 5.23546L17.2189 8.14405ZM15.6676 5.58449L13.6122 4.77009C13.8061 4.34349 14.5818 3.99446 15.6676 3.99446C16.7535 3.99446 17.5679 4.34349 17.723 4.77009L15.6676 5.58449Z" fill="black"/>
</svg>
