<svg width="22" height="22" viewBox="0 0 22 22" fill="none" xmlns="http://www.w3.org/2000/svg">
<g clip-path="url(#clip0)">
<path d="M20.2347 14.4405C18.8878 14.4405 17.5653 14.2298 16.312 13.8157C15.6872 13.6026 14.9758 13.7679 14.5682 14.1833L12.0945 16.0507C9.22573 14.5193 7.45863 12.7528 5.94819 9.90556L7.76061 7.49633C8.23149 7.02608 8.40039 6.33915 8.19804 5.69462C7.7821 4.43478 7.57081 3.11289 7.57081 1.76539C7.57086 0.791943 6.77892 0 5.80554 0H1.76527C0.791943 0 0 0.791943 0 1.76527C0 12.9229 9.07718 22 20.2347 22C21.2081 22 22.0001 21.2081 22.0001 20.2347V16.2058C22 15.2324 21.2081 14.4405 20.2347 14.4405ZM20.7778 20.2347C20.7778 20.5343 20.5343 20.7778 20.2347 20.7778C9.75093 20.7778 1.22226 12.2491 1.22226 1.76533C1.22226 1.46575 1.46575 1.22226 1.76533 1.22226H5.80559C6.10517 1.22226 6.34866 1.46575 6.34866 1.76533C6.34866 3.24357 6.58081 4.69436 7.03496 6.06879C7.09821 6.27172 7.04687 6.48175 6.8416 6.69545L4.74089 9.47759C4.60006 9.66436 4.57795 9.91444 4.68359 10.1227C6.39816 13.4928 8.48157 15.5762 11.8755 17.3152C12.082 17.4232 12.335 17.4006 12.5224 17.2591L15.3685 15.1029C15.5123 14.9591 15.7278 14.9078 15.9223 14.974C17.3063 15.4312 18.7571 15.6627 20.2347 15.6627C20.5343 15.6627 20.7778 15.9062 20.7778 16.2058V20.2347Z" fill="#FFB800"/>
</g>
<defs>
<clipPath id="clip0">
<rect width="22" height="22" fill="white"/>
</clipPath>
</defs>
</svg>
