<svg width="56" height="56" viewBox="0 0 56 56" fill="none" xmlns="http://www.w3.org/2000/svg">
<rect width="56" height="56" rx="28" fill="black"/>
<path d="M36.1015 19.545C37.1925 20.6351 37.7372 22.0661 37.7372 23.497C37.7372 24.928 37.1917 26.3598 36.1015 27.4499C33.9202 29.6293 30.371 29.6293 28.1899 27.4499C26.0087 25.2705 26.0086 21.7243 28.1899 19.5449C30.371 17.3657 33.9202 17.3657 36.1015 19.545ZM30.4665 25.1761C29.5401 24.2505 29.5393 22.7453 30.4665 21.8197C30.7967 21.4906 30.7967 20.9557 30.4665 20.6267C30.1364 20.2968 29.6027 20.2968 29.2725 20.6267C28.4804 21.4182 28.0843 22.4577 28.0843 23.4979C28.0843 24.5382 28.4804 25.5778 29.2725 26.3692C30.8567 27.9519 33.4347 27.9519 35.019 26.3692C36.6032 24.7863 36.6032 22.2095 35.019 20.6266C34.6888 20.2967 34.1551 20.2967 33.825 20.6266C33.4948 20.9557 33.4948 21.4906 33.825 21.8196C34.7514 22.7453 34.7505 24.2504 33.825 25.176C32.8985 26.1009 31.3928 26.1009 30.4665 25.1761Z" fill="#FFB800"/>
<path d="M49.8573 5.03015C50.2686 5.06475 50.5946 5.39038 50.6292 5.80133C50.641 5.94734 51.1722 13.584 47.1999 22.5622L33.0814 8.45576C42.0672 4.48683 49.7113 5.01749 49.8573 5.03015Z" fill="#FFB800"/>
<path d="M31.4551 9.21759L46.4365 24.1863C43.6473 29.8023 39.0189 35.7811 31.407 40.6991L31.8487 47.3234C31.885 47.6912 31.657 48.0312 31.3141 48.1654L18.2251 53.2827C17.8737 53.4202 17.4735 53.308 17.2455 53.0076C17.1306 52.8566 17.0732 52.6769 17.0732 52.4972C17.0732 52.3191 17.1289 52.1411 17.2421 51.9909L20.4299 47.7435L19.9848 45.5211L16.6299 42.1689L14.9731 43.0903C15.5228 44.2066 15.6646 45.4974 15.3446 46.7606C14.9155 48.4505 13.7613 49.8326 12.1779 50.5515L1.19412 55.5397C0.874047 55.6849 0.496584 55.6173 0.24745 55.3684C0.085285 55.2063 9.38128e-09 54.9904 0 54.7709C-5.62877e-09 54.6528 0.024436 54.5339 0.0759843 54.4217L5.06925 43.4472C5.78875 41.8661 7.17106 40.7126 8.86256 40.2841C10.1664 39.9533 11.5015 40.1154 12.6432 40.7102L13.5957 39.1366L10.103 35.6469L7.87799 35.2023L3.62788 38.3873C3.3264 38.6134 2.91005 38.6126 2.60948 38.3839C2.39497 38.2211 2.27594 37.9696 2.27594 37.7123C2.27594 37.6094 2.29455 37.5057 2.33422 37.4052L7.45571 24.3272C7.58998 23.9847 7.93033 23.7687 8.29849 23.7931L14.9292 24.2344C19.8515 16.6298 25.8344 12.0045 31.4551 9.21759ZM9.2789 41.9192C8.08736 42.2212 7.11378 43.0329 6.60709 44.145L2.54615 53.0718L11.4804 49.0142C12.5934 48.508 13.4058 47.5351 13.7081 46.3447C13.7874 46.0317 13.8264 45.7169 13.8264 45.4064C13.8264 44.8841 13.7148 44.3745 13.5004 43.9089C13.1576 44.0995 12.8139 44.2903 12.4711 44.4809C12.0041 44.7408 11.4307 45.0133 11.0068 44.4928C10.6285 44.0271 10.9333 43.5335 11.1782 43.1006C11.3615 42.7774 11.544 42.4542 11.7272 42.1311C10.9822 41.7842 10.1217 41.7057 9.2789 41.9192ZM28.7123 42.3259C28.5215 42.4331 28.3349 42.5419 28.1406 42.6474C27.6053 42.9377 27.058 43.2186 26.5057 43.4945C26.3225 43.5864 26.1477 43.6818 25.9611 43.7721C25.2349 44.1256 24.4943 44.4665 23.7418 44.7956C23.5274 44.8892 23.301 44.9779 23.0832 45.0698C22.6339 45.2596 22.1881 45.452 21.7304 45.6326L22.1601 47.7825C22.2074 48.017 22.1517 48.2617 22.0073 48.4541L20.374 50.63L30.1224 46.818L29.7821 41.7244C29.4326 41.931 29.0696 42.1267 28.7123 42.3259ZM14.0281 41.6838L16.2135 40.4688C16.2574 40.4309 16.2894 40.382 16.341 40.3533L23.6456 36.3329V31.9893H19.8988L14.0281 41.6838ZM4.9899 35.2587L7.1677 33.6269C7.36023 33.4826 7.60432 33.4278 7.8399 33.4741L9.98897 33.9036C10.1731 33.4387 10.369 32.9856 10.5624 32.5292C10.651 32.3199 10.7363 32.1031 10.8259 31.8971C11.156 31.142 11.498 30.3995 11.8536 29.6713C11.9397 29.495 12.0309 29.328 12.1179 29.1541C12.399 28.593 12.6845 28.0378 12.9793 27.4953C13.0831 27.3055 13.1895 27.1232 13.2943 26.9359C13.4969 26.5757 13.6945 26.2094 13.9022 25.8576L8.80428 25.5184L4.9899 35.2587ZM24.8658 23.4979C24.8658 25.3608 25.5751 27.2246 26.9955 28.6437C29.8354 31.4812 34.4553 31.4812 37.2953 28.6437C40.1352 25.8062 40.1352 21.1893 37.2953 18.3527C34.4553 15.5152 29.8354 15.5152 26.9955 18.3527C25.5752 19.7711 24.8658 21.6348 24.8658 23.4979Z" fill="#FFB800"/>
</svg>
