<svg width="40" height="40" viewBox="0 0 40 40" fill="none" xmlns="http://www.w3.org/2000/svg">
<path d="M19.1871 28.6813C19.5264 29.0208 20.0768 29.0208 20.4166 28.6813C20.7561 28.342 20.7561 27.7913 20.4166 27.4518L13.8318 20.867L31.3274 20.867C31.809 20.867 32.1996 20.4764 32.1996 19.9948C32.1996 19.5129 31.809 19.1226 31.3274 19.1226L13.8405 19.1226L20.4253 12.5378C20.5887 12.375 20.6805 12.1534 20.6805 11.9229C20.6805 11.6921 20.5887 11.4711 20.4253 11.308C20.262 11.1433 20.0383 11.0521 19.8061 11.0551C19.5747 11.0562 19.3526 11.1468 19.1871 11.308L11.1196 19.3752C10.9554 19.5397 10.8639 19.7629 10.8664 19.9948C10.868 20.2261 10.9587 20.4474 11.1196 20.6138L19.1871 28.6813Z" fill="#8C8A8A"/>
<path d="M19.9894 38.7462C27.5737 38.7475 34.4117 34.1792 37.314 27.1721C40.2158 20.1647 38.6107 12.0994 33.2461 6.73809C25.9244 -0.583692 14.0539 -0.583693 6.73241 6.73809C-0.589102 14.0593 -0.589103 25.9298 6.73241 33.2515C10.2406 36.7797 15.0141 38.7582 19.9894 38.7462ZM19.9894 2.9876C29.3651 2.98761 36.9964 10.6191 36.9963 19.9948C36.9963 29.3705 29.3651 37.0018 19.9894 37.0018C10.6137 37.0018 2.98219 29.3705 2.98219 19.9948C2.9822 10.6191 10.6137 2.9876 19.9894 2.9876Z" fill="#8C8A8A"/>
</svg>
