<svg width="56" height="56" viewBox="0 0 56 56" fill="none" xmlns="http://www.w3.org/2000/svg">
<g clip-path="url(#clip0)">
<path d="M39.6942 16.0925C40.8938 17.2986 41.4927 18.8817 41.4927 20.4649C41.4927 22.0481 40.8928 23.6322 39.6942 24.8383C37.2958 27.2495 33.3934 27.2495 30.9951 24.8383C28.5969 22.4271 28.5968 18.5036 30.9951 16.0924C33.3934 13.6814 37.2958 13.6814 39.6942 16.0925ZM33.4984 22.3226C32.4798 21.2986 32.4789 19.6332 33.4984 18.6092C33.8614 18.2451 33.8614 17.6533 33.4984 17.2893C33.1353 16.9243 32.5485 16.9243 32.1855 17.2893C31.3145 18.1649 30.8791 19.315 30.8791 20.4659C30.8791 21.6168 31.3145 22.767 32.1855 23.6425C33.9273 25.3937 36.762 25.3937 38.5039 23.6425C40.2457 21.8914 40.2457 19.0404 38.5039 17.2892C38.1409 16.9242 37.5541 16.9242 37.1911 17.2892C36.828 17.6533 36.828 18.2451 37.1911 18.6091C38.2097 19.6331 38.2087 21.2984 37.1911 22.3225C36.1724 23.3458 34.5168 23.3458 33.4984 22.3226Z" fill="#737070"/>
<path d="M54.8195 0.0337067C55.2716 0.0719872 55.6301 0.432262 55.6681 0.886925C55.6812 1.04847 56.2652 9.49742 51.8975 19.4307L36.3739 3.8237C46.254 -0.567405 54.6588 0.0197087 54.8195 0.0337067Z" fill="#737070"/>
<path d="M34.5856 4.66664L51.0581 21.2277C47.9912 27.4409 42.9021 34.0557 34.5327 39.4969L35.0183 46.8257C35.0583 47.2327 34.8076 47.6089 34.4306 47.7574L20.0388 53.4189C19.6525 53.5711 19.2125 53.4469 18.9617 53.1147C18.8354 52.9475 18.7723 52.7487 18.7723 52.5499C18.7723 52.3529 18.8336 52.1559 18.958 51.9898L22.4631 47.2906L21.9737 44.8317L18.2848 41.123L16.4632 42.1424C17.0676 43.3774 17.2236 44.8056 16.8717 46.2031C16.4 48.0728 15.1307 49.6019 13.3898 50.3972L1.31285 55.916C0.960918 56.0766 0.545887 56.0019 0.271957 55.7265C0.0936546 55.5472 -0.000118286 55.3082 -0.000118296 55.0655C-0.000118302 54.9348 0.0267486 54.8033 0.0834274 54.6791L5.57365 42.5373C6.36476 40.788 7.88465 39.5118 9.74449 39.0377C11.1781 38.6718 12.6461 38.851 13.9014 39.5091L14.9487 37.7681L11.1085 33.9073L8.66194 33.4153L3.98883 36.9392C3.65735 37.1893 3.19957 37.1884 2.86907 36.9355C2.63321 36.7553 2.50234 36.4771 2.50234 36.1924C2.50234 36.0785 2.52279 35.9637 2.56642 35.8526L8.19763 21.3835C8.34526 21.0045 8.71949 20.7656 9.12429 20.7926L16.4149 21.2808C21.8271 12.8673 28.4055 7.74997 34.5856 4.66664ZM10.2023 40.8467C8.89214 41.1809 7.82166 42.0789 7.26455 43.3093L2.79944 53.1855L12.6229 48.6964C13.8467 48.1363 14.74 47.06 15.0723 45.7429C15.1595 45.3967 15.2023 45.0484 15.2023 44.7049C15.2023 44.1271 15.0797 43.5632 14.844 43.048C14.467 43.259 14.0891 43.4699 13.7121 43.6809C13.1986 43.9685 12.5682 44.27 12.1022 43.694C11.6861 43.1788 12.0213 42.6327 12.2907 42.1537C12.4922 41.7962 12.6928 41.4387 12.8942 41.0811C12.0751 40.6973 11.1289 40.6105 10.2023 40.8467ZM31.5699 41.2967C31.36 41.4153 31.1548 41.5357 30.9413 41.6524C30.3526 41.9735 29.7509 42.2843 29.1437 42.5896C28.9422 42.6913 28.7499 42.7969 28.5448 42.8967C27.7463 43.2878 26.932 43.665 26.1046 44.0291C25.8688 44.1326 25.62 44.2307 25.3804 44.3325C24.8864 44.5425 24.3962 44.7553 23.893 44.9551L24.3656 47.3336C24.4176 47.5932 24.3563 47.8639 24.1975 48.0767L22.4017 50.4841L33.1203 46.2666L32.7461 40.6312C32.3618 40.8598 31.9626 41.0763 31.5699 41.2967ZM15.4241 40.5863L17.827 39.2421C17.8753 39.2001 17.9106 39.146 17.9673 39.1143L25.9988 34.6662L25.9988 29.8606L21.8791 29.8606L15.4241 40.5863ZM5.48641 33.4777L7.88095 31.6723C8.09265 31.5128 8.36103 31.4521 8.62006 31.5033L10.9831 31.9785C11.1855 31.4641 11.4009 30.9628 11.6135 30.4579C11.711 30.2263 11.8047 29.9865 11.9032 29.7586C12.2662 28.9231 12.6423 28.1017 13.0332 27.2961C13.1279 27.101 13.2281 26.9161 13.3237 26.7239C13.6329 26.1031 13.9468 25.4888 14.2709 24.8886C14.3851 24.6786 14.502 24.4769 14.6172 24.2696C14.84 23.8711 15.0573 23.4659 15.2857 23.0766L9.68042 22.7014L5.48641 33.4777ZM27.3405 20.4659C27.3405 22.527 28.1204 24.5891 29.6822 26.1592C32.8047 29.2985 37.8845 29.2985 41.007 26.1592C44.1296 23.0198 44.1296 17.9118 41.007 14.7735C37.8845 11.6341 32.8047 11.6341 29.6822 14.7735C28.1205 16.3427 27.3405 18.4047 27.3405 20.4659Z" fill="#737070"/>
</g>
<defs>
<clipPath id="clip0">
<rect width="56" height="55.7008" fill="white" transform="matrix(-4.34778e-08 -1 -1 4.39462e-08 55.7008 56)"/>
</clipPath>
</defs>
</svg>
