<svg width="153" height="65" viewBox="0 0 153 65" fill="none" xmlns="http://www.w3.org/2000/svg">
<g clip-path="url(#clip0)">
<path d="M73.4785 30.0926H83.7524V26.8185H77.218V16.6111H73.4785V30.0926ZM88.1321 30.3237C89.5006 30.3237 90.4837 29.8037 91.1969 29.0141V30.0926H94.8207V24.103C94.8207 22.6393 94.493 21.5607 93.7027 20.7904C92.8739 19.9622 91.6017 19.5193 89.7319 19.5193C87.9393 19.5193 86.6864 19.8467 85.5106 20.3281L86.2623 22.9089C87.1876 22.543 88.0357 22.3311 89.1344 22.3311C90.5415 22.3311 91.2162 22.9474 91.2162 24.0259V24.1993C90.6186 23.9874 89.6741 23.7948 88.7103 23.7948C86.2623 23.7948 84.6239 24.9118 84.6239 27.0689C84.6239 29.1874 86.1467 30.3237 88.1321 30.3237ZM89.4428 28.0318C88.6911 28.0318 88.1513 27.6081 88.1513 26.8955C88.1513 26.0867 88.7682 25.5667 89.8283 25.5667C90.368 25.5667 90.8885 25.6822 91.2547 25.8363V26.3178C91.2547 27.3578 90.503 28.0318 89.4428 28.0318ZM96.6833 30.0926H100.346V24.4496C100.346 23.3133 101.001 22.697 101.888 22.697C102.755 22.697 103.353 23.3133 103.353 24.4496V30.0926H107.015V23.2748C107.015 20.9059 105.685 19.4422 103.468 19.4422C101.984 19.4422 101.02 20.2704 100.346 21.137V19.6733H96.6833V30.0926ZM113.121 30.3237C114.683 30.3237 115.589 29.5726 116.302 28.7059V30.0926H119.964V16.0333H116.302V20.9444C115.608 20.1548 114.683 19.4422 113.102 19.4422C110.635 19.4422 108.514 21.503 108.514 24.8926C108.514 28.263 110.654 30.3237 113.121 30.3237ZM114.239 27.2615C113.063 27.2615 112.1 26.2793 112.1 24.8926C112.1 23.4674 113.063 22.5044 114.239 22.5044C115.415 22.5044 116.36 23.4867 116.36 24.8541C116.36 26.2793 115.415 27.2615 114.239 27.2615ZM122.004 30.0926H125.666V19.6733H122.004V30.0926ZM121.927 18.7296H125.743V16.0333H121.927V18.7296ZM127.706 30.0926H131.368V24.4496C131.368 23.3133 132.023 22.697 132.91 22.697C133.777 22.697 134.375 23.3133 134.375 24.4496V30.0926H138.037V23.2748C138.037 20.9059 136.707 19.4422 134.491 19.4422C133.006 19.4422 132.043 20.2704 131.368 21.137V19.6733H127.706V30.0926ZM145.049 33.2126C147.227 33.2126 148.692 32.6926 149.636 31.7489C150.562 30.8244 150.986 29.4955 150.986 27.5889V19.6733H147.323V20.9059C146.533 20.0778 145.608 19.4422 144.046 19.4422C141.637 19.4422 139.536 21.2911 139.536 24.2955C139.536 27.3193 141.598 29.1681 144.162 29.1681C145.685 29.1681 146.649 28.4555 147.381 27.6081V28.0126C147.381 29.6689 146.475 30.5741 144.644 30.5741C143.237 30.5741 142.119 30.2081 141.001 29.5918L139.825 32.0185C141.329 32.7889 143.025 33.2126 145.049 33.2126ZM145.261 26.3563C144.008 26.3563 143.121 25.5089 143.121 24.3533C143.121 23.1593 144.008 22.2926 145.261 22.2926C146.494 22.2926 147.381 23.14 147.381 24.2955C147.381 25.4896 146.494 26.3563 145.261 26.3563ZM78.7793 54.3978C82.0562 54.3978 84.2343 52.7607 84.2343 50.0067C84.2343 47.4452 82.3067 46.4437 79.2034 45.7696C77.3336 45.3459 76.871 45.0763 76.871 44.46C76.871 43.94 77.3144 43.5548 78.2203 43.5548C79.4154 43.5548 80.7647 44.017 81.9983 44.8837L83.8681 42.2452C82.4031 41.0704 80.6105 40.4541 78.3167 40.4541C75.0784 40.4541 73.093 42.2644 73.093 44.7681C73.093 47.58 75.3097 48.3889 78.1818 49.0437C80.0129 49.4674 80.4563 49.7756 80.4563 50.3341C80.4563 50.9504 79.9166 51.297 78.9142 51.297C77.3529 51.297 75.8687 50.7385 74.5387 49.6793L72.4569 52.1637C74.1146 53.6467 76.3891 54.3978 78.7793 54.3978ZM92.6881 54.3785C93.7097 54.3785 94.5771 54.1474 95.2326 53.7815V50.9118C94.7892 51.1237 94.3265 51.2585 93.8446 51.2585C93.17 51.2585 92.8423 50.9504 92.8423 50.2185V46.6941H95.271V43.7474H92.8423V41.1089H89.1799V43.7474H87.9463V46.6941H89.1799V50.9311C89.1799 53.4156 90.4907 54.3785 92.6881 54.3785ZM103.206 54.3978C104.69 54.3978 105.654 53.6081 106.329 52.7415V54.1667H109.991V43.7474H106.329V49.3904C106.329 50.5267 105.673 51.143 104.806 51.143C103.919 51.143 103.322 50.5267 103.322 49.3904V43.7474H99.6595V50.5652C99.6595 52.9341 100.989 54.3978 103.206 54.3978ZM119.066 54.3978C120.628 54.3978 121.534 53.6467 122.247 52.78V54.1667H125.909V40.1074H122.247V45.0185C121.553 44.2289 120.628 43.5163 119.047 43.5163C116.579 43.5163 114.459 45.577 114.459 48.9667C114.459 52.337 116.599 54.3978 119.066 54.3978ZM120.184 51.3355C119.008 51.3355 118.044 50.3533 118.044 48.9667C118.044 47.5415 119.008 46.5785 120.184 46.5785C121.36 46.5785 122.305 47.5607 122.305 48.9281C122.305 50.3533 121.36 51.3355 120.184 51.3355ZM130.839 54.1667H134.501V43.7474H130.839V54.1667ZM130.762 42.8037H134.579V40.1074H130.762V42.8037ZM144.752 54.417C148.106 54.417 150.535 51.9326 150.535 48.9667C150.535 45.9622 148.126 43.5163 144.791 43.5163C141.437 43.5163 139.008 46.0007 139.008 48.9667C139.008 51.9711 141.418 54.417 144.752 54.417ZM144.791 51.3163C143.5 51.3163 142.574 50.2378 142.574 48.9667C142.574 47.6763 143.422 46.617 144.752 46.617C146.044 46.617 146.969 47.6955 146.969 48.9667C146.969 50.257 146.121 51.3163 144.791 51.3163Z" fill="#FFB800"/>
<path d="M46.3606 18.6789C47.7616 20.0788 48.4611 21.9163 48.4611 23.7539C48.4611 25.5916 47.7605 27.4303 46.3606 28.8302C43.5594 31.6289 39.0016 31.6289 36.2006 28.8302C33.3996 26.0315 33.3995 21.4775 36.2006 18.6787C39.0016 15.8803 43.5594 15.8803 46.3606 18.6789ZM39.1242 25.9102C37.9345 24.7216 37.9336 22.7887 39.1242 21.6C39.5483 21.1774 39.5483 20.4904 39.1242 20.0679C38.7003 19.6444 38.0149 19.6444 37.5908 20.0679C36.5737 21.0844 36.065 22.4193 36.065 23.7551C36.065 25.091 36.5737 26.426 37.5908 27.4423C39.6252 29.4749 42.936 29.4749 44.9704 27.4423C47.0048 25.4096 47.0048 22.1005 44.9704 20.0678C44.5464 19.6442 43.8611 19.6442 43.4371 20.0678C43.0131 20.4904 43.0131 21.1774 43.4371 21.5999C44.6268 22.7886 44.6256 24.7215 43.4371 25.9101C42.2473 27.0978 40.3137 27.0978 39.1242 25.9102Z" fill="#FFB800"/>
<path d="M64.0257 0.0392622C64.5539 0.083695 64.9725 0.50187 65.017 1.0296C65.0322 1.21711 65.7143 11.0239 60.6131 22.5536L42.4824 4.43836C54.0218 -0.658458 63.8382 0.0230126 64.0257 0.0392622Z" fill="#FFB800"/>
<path d="M40.3938 5.41675L59.6327 24.6393C56.0508 31.8512 50.107 39.529 40.332 45.8447L40.8992 54.3514C40.9458 54.8237 40.6531 55.2605 40.2128 55.4327L23.4041 62.0042C22.9529 62.1808 22.439 62.0367 22.1461 61.651C21.9985 61.4571 21.9249 61.2262 21.9249 60.9955C21.9249 60.7668 21.9964 60.5382 22.1418 60.3454L26.2354 54.8909L25.6639 52.0369L21.3556 47.7321L19.2279 48.9154C19.9339 50.3489 20.116 52.0066 19.705 53.6287C19.1541 55.7989 17.6718 57.5737 15.6384 58.4969L1.53329 64.9026C1.12225 65.0891 0.63752 65.0023 0.317587 64.6827C0.109338 64.4746 -0.000183093 64.1972 -0.000183105 63.9154C-0.000183113 63.7638 0.031197 63.611 0.0973944 63.4669L6.50964 49.3737C7.43362 47.3433 9.20874 45.8621 11.3809 45.3117C13.0553 44.8869 14.7698 45.0951 16.236 45.8589L17.4591 43.8382L12.9739 39.3568L10.1166 38.7857L4.65867 42.8759C4.27152 43.1662 3.73685 43.1653 3.35085 42.8716C3.07539 42.6625 2.92254 42.3395 2.92254 42.0091C2.92254 41.877 2.94643 41.7437 2.99737 41.6147L9.57429 24.8202C9.74671 24.3804 10.1838 24.1029 10.6566 24.1344L19.1715 24.7011C25.4927 14.9354 33.1758 8.99561 40.3938 5.41675ZM11.9156 47.4115C10.3854 47.7993 9.13518 48.8417 8.48451 50.2698L3.26953 61.7334L14.7427 56.5228C16.172 55.8727 17.2153 54.6233 17.6035 53.0946C17.7054 52.6927 17.7554 52.2884 17.7554 51.8897C17.7554 51.219 17.6121 50.5646 17.3367 49.9666C16.8965 50.2114 16.4551 50.4564 16.0149 50.7012C15.4152 51.035 14.6789 51.3849 14.1346 50.7165C13.6487 50.1184 14.0401 49.4845 14.3547 48.9286C14.5901 48.5136 14.8244 48.0985 15.0597 47.6836C14.1029 47.2381 12.9979 47.1373 11.9156 47.4115ZM36.8716 47.9338C36.6265 48.0715 36.3869 48.2112 36.1374 48.3466C35.45 48.7194 34.7472 49.0802 34.0379 49.4344C33.8027 49.5525 33.5781 49.675 33.3385 49.7909C32.4059 50.2449 31.4549 50.6826 30.4886 51.1053C30.2132 51.2255 29.9225 51.3394 29.6427 51.4575C29.0658 51.7012 28.4933 51.9482 27.9055 52.1802L28.4574 54.941C28.5181 55.2422 28.4466 55.5564 28.2612 55.8034L26.1637 58.5977L38.6824 53.7024L38.2453 47.1613C37.7966 47.4266 37.3303 47.678 36.8716 47.9338ZM18.0144 47.1092L20.8209 45.549C20.8773 45.5002 20.9184 45.4374 20.9846 45.4006L30.365 40.2376V34.6597H25.5534L18.0144 47.1092ZM6.40774 38.8582L9.20443 36.7627C9.45167 36.5774 9.76513 36.507 10.0676 36.5665L12.8274 37.118C13.0639 36.521 13.3155 35.9391 13.5638 35.353C13.6776 35.0842 13.7871 34.8058 13.9022 34.5413C14.3261 33.5716 14.7654 32.6182 15.222 31.683C15.3325 31.4566 15.4496 31.2421 15.5613 31.0188C15.9224 30.2983 16.289 29.5853 16.6675 28.8886C16.8009 28.6449 16.9375 28.4108 17.0721 28.1703C17.3323 27.7077 17.586 27.2373 17.8527 26.7855L11.3061 26.3499L6.40774 38.8582ZM31.932 23.7552C31.932 26.1476 32.8429 28.541 34.6669 30.3634C38.3139 34.0073 44.2467 34.0073 47.8937 30.3634C51.5407 26.7196 51.5407 20.7906 47.8937 17.1478C44.2467 13.504 38.3139 13.504 34.6669 17.1478C32.843 18.9694 31.932 21.3627 31.932 23.7552Z" fill="#FFB800"/>
</g>
<defs>
<clipPath id="clip0">
<rect width="153" height="65" fill="white"/>
</clipPath>
</defs>
</svg>
