<svg width="47" height="47" viewBox="0 0 47 47" fill="none" xmlns="http://www.w3.org/2000/svg">
<path d="M33.494 13.4945C34.5062 14.5058 35.0115 15.8334 35.0115 17.161C35.0115 18.4887 34.5054 19.817 33.494 20.8284C31.4703 22.8504 28.1774 22.8504 26.1538 20.8284C24.1302 18.8064 24.1301 15.5163 26.1538 13.4944C28.1774 11.4726 31.4703 11.4726 33.494 13.4945ZM28.266 18.7188C27.4065 17.8601 27.4058 16.4636 28.266 15.6049C28.5724 15.2995 28.5724 14.8033 28.266 14.498C27.9597 14.192 27.4646 14.192 27.1582 14.498C26.4233 15.2323 26.0559 16.1967 26.0559 17.1619C26.0559 18.127 26.4233 19.0915 27.1582 19.8257C28.628 21.2942 31.0198 21.2942 32.4896 19.8257C33.9594 18.3572 33.9594 15.9665 32.4896 14.4979C32.1833 14.1919 31.6882 14.1919 31.3819 14.4979C31.0755 14.8032 31.0755 15.2995 31.3819 15.6048C32.2414 16.4635 32.2405 17.86 31.3819 18.7188C30.5223 19.5768 29.1254 19.5768 28.266 18.7188Z" fill="#FFB800"/>
<path d="M46.2563 0.0279686C46.6379 0.0600696 46.9403 0.362185 46.9724 0.743453C46.9834 0.878915 47.4762 7.96398 43.7908 16.2937L30.692 3.20615C39.0288 -0.476108 46.1208 0.0162289 46.2563 0.0279686Z" fill="#FFB800"/>
<path d="M29.1831 3.91302L43.0825 17.8006C40.4947 23.0109 36.2006 28.5578 29.1385 33.1207L29.5483 39.2665C29.5819 39.6077 29.3704 39.9232 29.0523 40.0477L16.9087 44.7953C16.5827 44.9229 16.2114 44.8188 15.9999 44.5402C15.8932 44.4001 15.8401 44.2333 15.8401 44.0666C15.8401 43.9013 15.8917 43.7362 15.9967 43.5969L18.9542 39.6562L18.5413 37.5943L15.4287 34.4843L13.8916 35.3391C14.4016 36.3748 14.5332 37.5724 14.2362 38.7443C13.8382 40.3122 12.7673 41.5945 11.2983 42.2614L1.10787 46.8893C0.810916 47.024 0.460716 46.9613 0.229577 46.7304C0.079125 46.5801 8.70368e-09 46.3797 0 46.1761C-5.22221e-09 46.0665 0.022671 45.9562 0.070496 45.8521L4.7031 35.6703C5.37064 34.2034 6.6531 33.1332 8.22243 32.7356C9.43206 32.4287 10.6708 32.5791 11.73 33.131L12.6137 31.671L9.37331 28.4334L7.30897 28.0208L3.36584 30.9759C3.08614 31.1856 2.69986 31.1849 2.421 30.9727C2.22199 30.8217 2.11155 30.5883 2.11155 30.3496C2.11155 30.2541 2.12881 30.1579 2.16562 30.0647L6.9172 17.9313C7.04176 17.6135 7.35753 17.4131 7.6991 17.4358L13.8508 17.8452C18.4177 10.7899 23.9684 6.49862 29.1831 3.91302ZM8.60869 34.2526C7.50321 34.5328 6.59995 35.2859 6.12987 36.3176L2.36225 44.5997L10.6512 40.8352C11.6838 40.3655 12.4375 39.4629 12.718 38.3585C12.7916 38.0681 12.8277 37.776 12.8277 37.488C12.8277 37.0034 12.7242 36.5306 12.5253 36.0986C12.2072 36.2755 11.8883 36.4524 11.5703 36.6293C11.137 36.8705 10.6051 37.1233 10.2118 36.6404C9.86081 36.2082 10.1436 35.7503 10.3708 35.3487C10.5409 35.0489 10.7102 34.749 10.8802 34.4492C10.1889 34.1274 9.39063 34.0545 8.60869 34.2526ZM26.6385 34.63C26.4614 34.7294 26.2883 34.8304 26.1081 34.9282C25.6114 35.1976 25.1036 35.4582 24.5913 35.7141C24.4213 35.7994 24.259 35.888 24.0859 35.9717C23.4122 36.2996 22.7251 36.6159 22.027 36.9213C21.828 37.0081 21.618 37.0904 21.4159 37.1757C20.9991 37.3518 20.5855 37.5303 20.1608 37.6978L20.5595 39.6924C20.6034 39.91 20.5517 40.1371 20.4178 40.3155L18.9024 42.3343L27.9467 38.7976L27.6309 34.0719C27.3067 34.2636 26.9699 34.4452 26.6385 34.63ZM13.0148 34.0343L15.0425 32.907C15.0832 32.8718 15.1129 32.8264 15.1607 32.7998L21.9377 29.0698V25.0399H18.4615L13.0148 34.0343ZM4.62949 28.0732L6.64998 26.5593C6.82861 26.4254 7.05507 26.3745 7.27363 26.4175L9.26748 26.816C9.43833 26.3846 9.62006 25.9643 9.79944 25.5408C9.88169 25.3466 9.96081 25.1455 10.0439 24.9544C10.3502 24.2539 10.6675 23.565 10.9974 22.8894C11.0773 22.7258 11.1619 22.5709 11.2426 22.4096C11.5035 21.889 11.7683 21.3739 12.0418 20.8706C12.1381 20.6945 12.2368 20.5253 12.334 20.3516C12.522 20.0174 12.7053 19.6775 12.898 19.3512L8.16836 19.0364L4.62949 28.0732ZM23.0698 17.1619C23.0698 18.8903 23.7279 20.6194 25.0457 21.936C27.6805 24.5686 31.9667 24.5686 34.6015 21.936C37.2363 19.3035 37.2363 15.02 34.6015 12.3883C31.9667 9.75574 27.6805 9.75574 25.0457 12.3883C23.7279 13.7043 23.0698 15.4334 23.0698 17.1619Z" fill="#FFB800"/>
</svg>
