<svg width="16" height="15" viewBox="0 0 16 15" fill="none" xmlns="http://www.w3.org/2000/svg">
<path fill-rule="evenodd" clip-rule="evenodd" d="M8.32637 0.624637C8.44077 0.591251 8.56233 0.591267 8.67672 0.624682L14.1843 2.23355C14.4508 2.31141 14.634 2.5558 14.634 2.83348V6.13288C14.634 9.86984 12.2425 13.1874 8.6972 14.3687C8.56897 14.4115 8.43035 14.4115 8.30211 14.3687C4.75587 13.1875 2.36363 9.86918 2.36363 6.13135V2.83348C2.36363 2.55574 2.54692 2.31132 2.81354 2.23351L8.32637 0.624637ZM3.61363 3.30215V6.13135C3.61363 9.26114 5.57295 12.0473 8.4996 13.1139C11.4254 12.0473 13.384 9.26184 13.384 6.13288V3.30202L8.50138 1.87571L3.61363 3.30215ZM12.002 5.06838C12.2461 5.31246 12.2461 5.70819 12.002 5.95226L8.32853 9.62573C8.21132 9.74294 8.05235 9.80879 7.88659 9.80879C7.72083 9.80879 7.56186 9.74294 7.44465 9.62573L5.30179 7.48288C5.05771 7.2388 5.05771 6.84307 5.30179 6.59899C5.54587 6.35492 5.9416 6.35492 6.18568 6.59899L7.88659 8.29991L11.1181 5.06838C11.3622 4.8243 11.7579 4.8243 12.002 5.06838Z" fill="black" fill-opacity="0.85"/>
</svg>
