<svg width="40" height="41" viewBox="0 0 40 41" fill="none" xmlns="http://www.w3.org/2000/svg">
<path d="M20.8129 11.5687C20.4736 11.2292 19.9232 11.2292 19.5834 11.5687C19.2439 11.908 19.2439 12.4587 19.5834 12.7982L26.1682 19.383L8.67255 19.383C8.19097 19.383 7.80035 19.7736 7.80035 20.2552C7.80035 20.7371 8.19097 21.1274 8.67255 21.1274L26.1595 21.1274L19.5747 27.7122C19.4113 27.875 19.3195 28.0966 19.3195 28.3271C19.3195 28.5579 19.4113 28.7789 19.5747 28.942C19.738 29.1067 19.9617 29.1979 20.1939 29.1949C20.4253 29.1938 20.6474 29.1032 20.8129 28.942L28.8804 20.8748C29.0446 20.7103 29.1361 20.4871 29.1336 20.2552C29.132 20.0239 29.0413 19.8026 28.8804 19.6362L20.8129 11.5687Z" fill="#8C8A8A"/>
<path d="M20.0106 1.50005C12.4263 1.49869 5.58829 6.06702 2.68597 13.0741C-0.215812 20.0815 1.38928 28.1468 6.75387 33.5081C14.0756 40.8299 25.9461 40.8299 33.2676 33.5081C40.5891 26.1869 40.5891 14.3164 33.2676 6.99467C29.7594 3.46653 24.9859 1.48804 20.0106 1.50005ZM20.0106 37.2586C10.6349 37.2586 3.00365 29.6271 3.00365 20.2514C3.00365 10.8757 10.6349 3.24445 20.0106 3.24445C29.3863 3.24445 37.0178 10.8757 37.0178 20.2514C37.0178 29.6271 29.3863 37.2586 20.0106 37.2586Z" fill="#8C8A8A"/>
</svg>
