<svg width="35" height="35" viewBox="0 0 35 35" fill="none" xmlns="http://www.w3.org/2000/svg">
<path d="M17.5 35C7.83502 35 0 27.165 0 17.5C0 7.83502 7.83502 0 17.5 0C27.165 0 35 7.83502 35 17.5C35 27.165 27.165 35 17.5 35Z" fill="#039BE5"/>
<path d="M26.9923 17.1209L10.1194 10.6153C9.33623 10.3323 8.65228 10.8063 8.90603 11.9905L8.90457 11.989L11.7775 25.5238C11.9904 26.4834 12.5606 26.7167 13.3583 26.2646L17.7333 23.0403L19.8435 25.0732C20.0769 25.3065 20.2737 25.5034 20.7258 25.5034L20.4152 21.0511L12.3069 13.7259C11.9539 13.4153 12.3856 13.2403 12.8508 13.5494L22.871 19.8582L27.1906 18.5107C28.1283 18.2132 28.1487 17.573 26.9923 17.1209Z" fill="white"/>
</svg>
