<svg width="55" height="55" viewBox="0 0 55 55" fill="none" xmlns="http://www.w3.org/2000/svg">
<path d="M15.5633 26.3822C15.0964 26.8487 15.0964 27.6056 15.5633 28.0728C16.0298 28.5397 16.787 28.5397 17.2538 28.0728L26.3079 19.0187L26.3079 43.0752C26.3079 43.7374 26.845 44.2745 27.5072 44.2745C28.1698 44.2745 28.7065 43.7374 28.7065 43.0752L28.7065 19.0307L37.7606 28.0848C37.9844 28.3094 38.289 28.4356 38.606 28.4356C38.9234 28.4356 39.2273 28.3094 39.4515 28.0848C39.678 27.8602 39.8034 27.5526 39.7993 27.2333C39.7978 26.9152 39.6731 26.6098 39.4515 26.3822L28.3591 15.2894C28.1329 15.0637 27.8261 14.9378 27.5072 14.9412C27.1891 14.9435 26.8848 15.0682 26.6561 15.2894L15.5633 26.3822Z" fill="#CBCBCB"/>
<path d="M1.72407 27.4854C1.7222 37.9138 8.00365 47.3161 17.6384 51.3068C27.2736 55.2967 38.3634 53.0897 45.7352 45.7134C55.8026 35.646 55.8026 19.3241 45.7352 9.25704C35.6685 -0.81003 19.3466 -0.810029 9.27917 9.25704C4.42798 14.0808 1.70755 20.6443 1.72407 27.4854ZM50.8921 27.4854C50.8921 40.377 40.3987 50.87 27.5072 50.87C14.6156 50.87 4.12262 40.377 4.12262 27.4854C4.12262 14.5939 14.6156 4.1005 27.5072 4.1005C40.3987 4.1005 50.8921 14.5939 50.8921 27.4854Z" fill="#CBCBCB"/>
</svg>
