<svg width="40" height="40" viewBox="0 0 40 40" fill="none" xmlns="http://www.w3.org/2000/svg">
<mask id="mask0" mask-type="alpha" maskUnits="userSpaceOnUse" x="0" y="0" width="40" height="40">
<circle cx="20" cy="20" r="20" fill="#C4C4C4"/>
</mask>
<g mask="url(#mask0)">
<path d="M25.9869 9.2494C22.0144 8.49369 17.9857 8.49369 14.0123 9.2494C12.2744 9.63647 10.0881 11.7316 9.66062 13.4168C8.94967 16.6775 8.94967 19.9829 9.66062 23.2436C10.0881 24.9288 12.2744 27.0239 14.0123 27.411C14.0127 27.4111 14.0132 27.4112 14.0136 27.4113C14.091 27.4264 14.1475 27.4935 14.1475 27.5724V32.3491C14.1475 32.5878 14.4389 32.7054 14.6048 32.5325L16.8736 30.204C16.8736 30.204 18.6816 28.3479 19.0067 28.0142C19.0385 27.9816 19.0824 27.9639 19.1279 27.9652C21.4186 28.0286 23.7118 27.8436 25.9869 27.4111C27.7248 27.024 29.912 24.9289 30.3386 23.2437C31.0504 19.983 31.0504 16.6776 30.3386 13.4169C29.912 11.7316 27.7257 9.63647 25.9869 9.2494ZM26.0475 23.4868C25.6999 24.2248 25.1942 24.8388 24.4646 25.2307C24.2588 25.3413 24.0128 25.377 23.7804 25.4485C23.5133 25.3674 23.2586 25.3129 23.0222 25.2148C20.572 24.1982 18.317 22.8867 16.5307 20.8763C15.515 19.7331 14.7198 18.4425 14.0479 17.0766C13.7292 16.4288 13.4606 15.7557 13.1868 15.087C12.9371 14.4771 13.3049 13.8471 13.692 13.3876C14.0553 12.9564 14.5228 12.6264 15.029 12.3832C15.4242 12.1933 15.814 12.3028 16.1026 12.6377C16.7265 13.3618 17.2995 14.123 17.7636 14.9623C18.0489 15.4786 17.9706 16.1097 17.4535 16.461C17.3278 16.5464 17.2132 16.6467 17.0961 16.7431C16.9935 16.8276 16.8968 16.913 16.8264 17.0275C16.6978 17.2368 16.6916 17.4839 16.7745 17.7116C17.4122 19.4642 18.4871 20.827 20.2512 21.561C20.5335 21.6785 20.8169 21.8152 21.1421 21.7773C21.6867 21.7137 21.8631 21.1163 22.2447 20.8042C22.6177 20.4992 23.0944 20.4952 23.4962 20.7494C23.8981 21.0038 24.2878 21.2768 24.675 21.5528C25.0551 21.8237 25.4336 22.0886 25.7843 22.3974C26.1212 22.6943 26.2373 23.0838 26.0475 23.4868ZM22.8839 17.7757C22.7317 17.7784 22.7915 17.7754 22.8494 17.7737C22.6042 17.7651 22.4709 17.6208 22.4446 17.3862C22.4253 17.2148 22.4102 17.0411 22.3693 16.8743C22.2887 16.5459 22.1141 16.2415 21.8379 16.0402C21.7075 15.9452 21.5597 15.8759 21.4048 15.8313C21.2081 15.7745 21.0039 15.7901 20.8076 15.742C20.5945 15.6899 20.4766 15.5172 20.5101 15.3173C20.5405 15.1353 20.7176 14.9933 20.9164 15.0077C22.159 15.0974 23.047 15.7398 23.1738 17.2027C23.1827 17.3059 23.1933 17.4149 23.1703 17.5137C23.1331 17.6742 23.0184 17.7578 22.9025 17.7729C22.9119 17.7731 22.9101 17.7739 22.8839 17.7757ZM22.1112 14.4299C21.7299 14.2432 21.3176 14.1272 20.8996 14.058C20.717 14.0278 20.5324 14.0095 20.3489 13.9839C20.1264 13.9531 20.0078 13.8113 20.0182 13.5921C20.028 13.3868 20.1781 13.239 20.402 13.2517C21.1375 13.2935 21.8479 13.4524 22.5018 13.7987C23.8315 14.5028 24.5911 15.6144 24.8128 17.0986C24.8229 17.1658 24.839 17.2324 24.844 17.2999C24.8567 17.4665 24.8645 17.6334 24.8773 17.8531C24.872 17.8931 24.8692 17.9872 24.8459 18.0758C24.7608 18.3976 24.273 18.4379 24.1607 18.1131C24.1274 18.0168 24.1224 17.9071 24.1222 17.8034C24.1211 17.1246 23.9735 16.4465 23.6312 15.8558C23.2794 15.249 22.7417 14.7387 22.1112 14.4299ZM26.2199 19.0169C25.963 19.02 25.8474 18.805 25.8308 18.5746C25.7978 18.1186 25.7749 17.6605 25.712 17.2082C25.3802 14.8208 23.4765 12.8456 21.1002 12.4217C20.7426 12.3579 20.3765 12.3411 20.0144 12.3031C19.7854 12.2791 19.4854 12.2652 19.4347 11.9806C19.3921 11.7419 19.5936 11.5519 19.8208 11.5397C19.8826 11.5364 19.9448 11.5392 20.0068 11.5394C23.0845 11.6257 20.1946 11.5461 20.0151 11.5399C23.2162 11.6332 25.8446 13.759 26.4082 16.9247C26.5043 17.4646 26.5386 18.0166 26.5813 18.5645C26.5992 18.7949 26.4687 19.0139 26.2199 19.0169Z" fill="#FFB800"/>
<path d="M0 0V40H40V0H0ZM32.6505 23.7667L32.6426 23.7983C32.0036 26.3814 29.123 29.1532 26.4775 29.7299L26.4477 29.736C24.3087 30.1442 22.1539 30.3478 20 30.3478C19.3661 30.3478 18.7321 30.3281 18.0985 30.2926L15.177 33.3294C14.4538 34.0825 13.182 33.5699 13.182 32.5263V29.6428C10.6353 28.9156 7.96917 26.2712 7.35662 23.7982L7.3496 23.7666C6.55966 20.1593 6.55966 16.501 7.3496 12.8936L7.35662 12.862C7.99647 10.2789 10.8771 7.50706 13.5217 6.9304L13.5524 6.92426C17.8303 6.10799 22.1689 6.10799 26.4477 6.92426L26.4775 6.9304C29.123 7.50706 32.0036 10.2789 32.6426 12.862L32.6505 12.8936C33.4404 16.501 33.4404 20.1593 32.6505 23.7667Z" fill="#FFB800"/>
</g>
</svg>
