<svg width="35" height="35" viewBox="0 0 35 35" fill="none" xmlns="http://www.w3.org/2000/svg">
<g clip-path="url(#clip0)">
<path d="M33.7677 20.2606C34.8119 11.4712 33.266 5.92227 30.4777 3.41248L30.4792 3.41102C25.9787 -0.875025 10.78 -1.5094 5.39583 3.60352C2.97791 6.10456 2.12624 9.77518 2.03291 14.3194C1.93958 18.865 1.82874 27.3802 9.76354 29.6902H9.77083L9.76354 33.2179C9.76354 33.2179 9.70958 34.6471 10.6225 34.9344C11.6667 35.2727 12.1392 34.6091 15.3869 30.73C20.8177 31.201 24.9885 30.1219 25.4625 29.9644C26.5592 29.5969 32.7644 28.7758 33.7677 20.2606ZM15.9221 28.2479C15.9221 28.2479 12.4848 32.5339 11.4158 33.6466C11.0658 34.0083 10.6823 33.9748 10.6881 33.2573C10.6881 32.7862 10.7144 27.4006 10.7144 27.4006C3.98708 25.4727 4.38374 18.2219 4.45666 14.4287C4.52958 10.6341 5.22374 7.52643 7.27124 5.43373C11.9948 1.00477 25.3196 1.99498 28.7146 5.18581C32.865 8.86518 31.3877 19.2602 31.3965 19.6146C30.5433 26.7225 25.515 27.1731 24.5904 27.4808C24.1952 27.6121 20.5275 28.5556 15.9221 28.2479Z" fill="#8E24AA"/>
<path d="M17.8238 6.26636C17.2623 6.26636 17.2623 7.14136 17.8238 7.14865C22.1798 7.18219 25.7673 10.2184 25.8067 15.7878C25.8067 16.3755 26.6671 16.3682 26.6598 15.7805H26.6584C26.6117 9.77948 22.6946 6.2999 17.8238 6.26636Z" fill="#8E24AA"/>
<path d="M23.5535 14.8646C23.5404 15.445 24.3994 15.4727 24.4067 14.885C24.4781 11.5761 22.4379 8.85043 18.604 8.56314C18.0425 8.52231 17.9842 9.4046 18.5442 9.44543C21.8692 9.69773 23.6206 11.9669 23.5535 14.8646Z" fill="#8E24AA"/>
<path d="M22.6348 18.6288C21.9144 18.2117 21.1808 18.4713 20.8775 18.8811L20.2431 19.7022C19.9208 20.1192 19.3186 20.0638 19.3186 20.0638C14.9231 18.9015 13.7477 14.3019 13.7477 14.3019C13.7477 14.3019 13.6938 13.6792 14.0963 13.3453L14.8896 12.689C15.2863 12.374 15.5371 11.6157 15.1331 10.8705C14.054 8.92069 13.3292 8.2484 12.9602 7.73215C12.5723 7.24653 11.989 7.13715 11.3823 7.46528H11.3692C10.1077 8.20319 8.72668 9.58424 9.16856 11.0061C9.92252 12.5053 11.3079 17.2842 15.7238 20.8951C17.799 22.6028 21.0831 24.3528 22.4773 24.7567L22.4904 24.7772C23.8642 25.2351 25.2 23.8001 25.9131 22.5007V22.4905C26.2296 21.8619 26.1246 21.2669 25.6623 20.8776C24.8427 20.0784 23.606 19.1961 22.6348 18.6288Z" fill="#8E24AA"/>
<path d="M19.2048 11.8185C20.6063 11.9002 21.2859 12.6323 21.3588 14.1358C21.385 14.7235 22.2382 14.6827 22.2119 14.095C22.1186 12.1321 21.0948 11.0383 19.2515 10.9362C18.69 10.9027 18.6375 11.785 19.2048 11.8185Z" fill="#8E24AA"/>
</g>
<defs>
<clipPath id="clip0">
<rect width="35" height="35" fill="white"/>
</clipPath>
</defs>
</svg>
