<svg width="35" height="35" viewBox="0 0 35 35" fill="none" xmlns="http://www.w3.org/2000/svg">
<path d="M17.5044 0H17.4956C7.84656 0 0 7.84875 0 17.5C0 21.3281 1.23375 24.8762 3.33156 27.7572L1.15062 34.2584L7.87719 32.1081C10.6444 33.9412 13.9453 35 17.5044 35C27.1534 35 35 27.1491 35 17.5C35 7.85094 27.1534 0 17.5044 0Z" fill="#4CAF50"/>
<path d="M27.6871 24.7123C27.265 25.9045 25.5893 26.8932 24.2528 27.182C23.3384 27.3766 22.144 27.532 18.1234 25.8651C12.9806 23.7345 9.66871 18.5085 9.41058 18.1695C9.1634 17.8304 7.33246 15.4023 7.33246 12.891C7.33246 10.3798 8.60777 9.15696 9.12183 8.63196C9.54402 8.20103 10.2418 8.00415 10.9112 8.00415C11.1278 8.00415 11.3225 8.01509 11.4975 8.02384C12.0115 8.04571 12.2696 8.07634 12.6087 8.8879C13.0309 9.90509 14.059 12.4163 14.1815 12.6745C14.3062 12.9326 14.4309 13.2826 14.2559 13.6217C14.0918 13.9717 13.9475 14.127 13.6893 14.4245C13.4312 14.722 13.1862 14.9495 12.9281 15.2688C12.6918 15.5466 12.425 15.8442 12.7225 16.3582C13.02 16.8613 14.0481 18.5391 15.5618 19.8866C17.5153 21.6257 19.099 22.1813 19.6656 22.4176C20.0878 22.5926 20.5909 22.551 20.8993 22.2229C21.2909 21.8007 21.7743 21.1007 22.2665 20.4116C22.6165 19.9173 23.0584 19.856 23.5221 20.031C23.9946 20.1951 26.495 21.431 27.009 21.687C27.5231 21.9451 27.8621 22.0676 27.9868 22.2841C28.1093 22.5007 28.1093 23.5179 27.6871 24.7123Z" fill="#FAFAFA"/>
</svg>
