<svg width="13" height="22" viewBox="0 0 13 22" fill="none" xmlns="http://www.w3.org/2000/svg">
<path d="M6.48858 0C7.8594 0 8.2935 1.06893 8.65905 2.13785C8.81898 2.58531 12.3831 13.2497 12.4974 13.5729C12.5202 13.6723 12.4974 13.7966 12.3831 13.8712C12.246 13.9209 10.3954 14.7164 10.304 14.7412C10.1898 14.791 10.0756 14.7164 10.0527 14.6169C10.007 14.5175 9.23023 12.1808 9.13884 11.9322H3.83831C3.74692 12.1808 2.97012 14.5175 2.94728 14.6169C2.90158 14.7164 2.81019 14.791 2.69596 14.7412C2.58172 14.6915 0.731107 13.896 0.616872 13.8712C0.502636 13.8215 0.456942 13.6972 0.502636 13.5729C0.639719 13.1751 4.15817 2.68475 4.34095 2.13785C4.66081 1.09379 5.11775 0 6.48858 0ZM0.205624 19.0667C0.0913884 19.0667 0 19.1661 0 19.2904V21.7763C0 21.9006 0.0913884 22 0.205624 22H12.7944C12.9086 22 13 21.9006 13 21.7763V19.2904C13 19.1661 12.9086 19.0667 12.7944 19.0667H0.205624ZM6.48858 3.48023L4.7065 9.32203H8.31634L6.48858 3.48023Z" fill="#EF3124"/>
</svg>
