<svg width="50" height="25" viewBox="0 0 50 25" fill="none" xmlns="http://www.w3.org/2000/svg">
<path d="M23.3356 12.5411V18.3251H21.5V4.04199H26.3662C27.5995 4.04199 28.6511 4.45309 29.5115 5.27527C30.3911 6.09746 30.8309 7.10129 30.8309 8.28677C30.8309 9.50093 30.3911 10.5048 29.5115 11.3174C28.6607 12.13 27.609 12.5315 26.3662 12.5315H23.3356V12.5411ZM23.3356 5.80109V10.782H26.4044C27.131 10.782 27.7429 10.5334 28.2209 10.0459C28.7085 9.55829 28.957 8.96555 28.957 8.29633C28.957 7.63666 28.7085 7.05349 28.2209 6.56591C27.7429 6.05922 27.1406 5.81065 26.4044 5.81065H23.3356V5.80109Z" fill="black" fill-opacity="0.7"/>
<path d="M35.6301 8.22949C36.9877 8.22949 38.0584 8.59278 38.8424 9.31937C39.6263 10.0459 40.0183 11.0402 40.0183 12.3022V18.3252H38.2687V16.9676H38.1923C37.437 18.0862 36.4236 18.6407 35.1617 18.6407C34.0813 18.6407 33.1827 18.3252 32.4561 17.6846C31.7295 17.0441 31.3662 16.2506 31.3662 15.2946C31.3662 14.2812 31.7486 13.4781 32.5134 12.8854C33.2783 12.2831 34.3012 11.9867 35.5727 11.9867C36.6626 11.9867 37.5613 12.1875 38.2592 12.589V12.1683C38.2592 11.5278 38.0106 10.9924 37.5039 10.5431C36.9972 10.0937 36.4045 9.87386 35.7257 9.87386C34.7028 9.87386 33.8901 10.3041 33.2974 11.1741L31.6817 10.1607C32.5708 8.87003 33.8901 8.22949 35.6301 8.22949ZM33.2591 15.3232C33.2591 15.8012 33.4599 16.2028 33.871 16.5183C34.2725 16.8338 34.7506 16.9963 35.2955 16.9963C36.0699 16.9963 36.7582 16.7095 37.3605 16.1359C37.9628 15.5622 38.2687 14.893 38.2687 14.1186C37.6951 13.6693 36.9016 13.4399 35.8787 13.4399C35.133 13.4399 34.5116 13.6215 34.0144 13.9752C33.5077 14.3481 33.2591 14.7974 33.2591 15.3232Z" fill="black" fill-opacity="0.7"/>
<path d="M49.9991 8.54492L43.8806 22.6177H41.9876L44.263 17.6941L40.2285 8.54492H42.2266L45.1329 15.5622H45.1712L48.001 8.54492H49.9991Z" fill="black" fill-opacity="0.7"/>
<path d="M16.0356 11.3746C16.0356 10.7762 15.982 10.2035 15.8826 9.65283H8.18848V12.8077L12.6197 12.8087C12.4399 13.8584 11.8615 14.7533 10.9753 15.3498V17.3967H13.613C15.1532 15.9712 16.0356 13.8641 16.0356 11.3746Z" fill="#4285F4"/>
<path d="M10.9763 15.35C10.2421 15.8452 9.29659 16.1349 8.19046 16.1349C6.05373 16.1349 4.2411 14.6951 3.59195 12.7544H0.871094V14.8653C2.2191 17.5403 4.98967 19.3759 8.19046 19.3759C10.4027 19.3759 12.2612 18.6483 13.614 17.3959L10.9763 15.35Z" fill="#34A853"/>
<path d="M3.33559 11.1886C3.33559 10.6437 3.42641 10.1169 3.5918 9.62166V7.51074H0.870942C0.313576 8.61687 0 9.86544 0 11.1886C0 12.5117 0.314532 13.7603 0.870942 14.8664L3.5918 12.7555C3.42641 12.2603 3.33559 11.7335 3.33559 11.1886Z" fill="#FABB05"/>
<path d="M8.19046 6.24094C9.39792 6.24094 10.4792 6.65681 11.3329 7.46944L13.6704 5.13386C12.2507 3.81167 10.3998 3 8.19046 3C4.99063 3 2.2191 4.83558 0.871094 7.51055L3.59195 9.62146C4.2411 7.68072 6.05373 6.24094 8.19046 6.24094Z" fill="#E94235"/>
</svg>
