<svg width="28" height="22" viewBox="0 0 28 22" fill="none" xmlns="http://www.w3.org/2000/svg">
<path d="M23.3905 18.8368L23.2929 19.3248C23.0602 20.3759 22.9701 20.7213 22.7749 21.7723L22.7298 21.8099H22.0842V21.7723L22.3394 20.6837L22.422 20.3309H21.0181C20.9205 20.7513 20.8454 21.1267 20.7253 21.7573L20.6802 21.7949H20.0345L20.0195 21.7723L20.2748 20.6837L20.3799 20.2107C20.5078 19.6858 20.608 19.1545 20.6802 18.6191L20.7253 18.574C20.9501 18.5505 21.1733 18.5129 21.3934 18.4614V18.5065L21.3259 18.8218L21.2283 19.3098L21.1232 19.7678H22.4971C22.5872 19.3624 22.6247 19.1446 22.6998 18.6191L22.7448 18.574C22.9697 18.5505 23.1929 18.5129 23.413 18.4614V18.5065L23.3455 18.8218" fill="#79B82A"/>
<path d="M15.6585 20.2707C15.7074 20.0945 15.7352 19.913 15.7411 19.7302C15.7411 19.092 15.3282 18.9794 15.0955 18.9794C14.0969 18.9794 13.9693 20.526 13.9693 20.7587C13.9525 20.8521 13.9568 20.948 13.9817 21.0395C14.0067 21.131 14.0517 21.2158 14.1136 21.2877C14.1754 21.3596 14.2525 21.4168 14.3392 21.4552C14.426 21.4936 14.5202 21.5121 14.615 21.5095C15.2982 21.5095 15.5459 20.8113 15.6585 20.2933V20.2707ZM16.3192 20.4885C16.2631 20.9031 16.0589 21.2835 15.7443 21.5595C15.4297 21.8355 15.0259 21.9884 14.6075 21.99C14.4318 22.013 14.2532 21.9955 14.0853 21.939C13.9174 21.8824 13.7646 21.7883 13.6386 21.6637C13.5126 21.5392 13.4167 21.3875 13.3582 21.2202C13.2997 21.053 13.2802 20.8746 13.3011 20.6987C13.2906 20.5763 13.2906 20.4532 13.3011 20.3308C13.298 20.2983 13.298 20.2657 13.3011 20.2332C13.5263 18.8067 14.142 17.4553 15.5009 17.4478C15.768 17.443 16.0343 17.4153 16.2967 17.3652L16.2066 17.9358C15.9176 17.9963 15.6235 18.029 15.3282 18.0334C15.2119 18.0305 15.0961 18.0509 14.9878 18.0935C14.8795 18.136 14.7808 18.1998 14.6976 18.2812C14.6337 18.3392 14.5804 18.4078 14.5399 18.4839C14.5023 18.5358 14.4696 18.5911 14.4423 18.6491C14.6398 18.5907 14.8445 18.5604 15.0504 18.559C15.225 18.5383 15.402 18.5568 15.5686 18.6129C15.7353 18.6691 15.8873 18.7616 16.0138 18.8838C16.1402 19.0059 16.2379 19.1547 16.2999 19.3192C16.3618 19.4838 16.3864 19.6601 16.3718 19.8353C16.3688 20.0613 16.336 20.286 16.2742 20.5035" fill="#79B82A"/>
<path d="M24.4792 19.8653L24.9222 19.4448C25.1399 19.2346 25.673 18.694 25.7781 18.5739H25.8457H26.5964V18.634C26.5364 18.6865 26.4988 18.7091 26.2511 18.9268L25.9658 19.1745L25.1474 19.9253L26.1159 21.7722V21.8248H25.4177L25.3276 21.7722C25.17 21.3818 25.1249 21.2917 24.8997 20.8338L24.4567 19.9403C24.3141 20.556 24.2315 20.9464 24.0738 21.7572L24.0288 21.7947H23.3906V21.7572L23.6459 20.6686L23.751 20.1956C23.9162 19.4448 23.9462 19.2947 24.0513 18.604L24.0964 18.5664C24.3892 18.5214 24.4567 18.5139 24.7645 18.4463V18.4913L24.697 18.8067L24.5994 19.2947L24.4792 19.8352" fill="#79B82A"/>
<path d="M18.9096 21.0215C18.8448 21.0829 18.7744 21.1382 18.6994 21.1866C18.5338 21.2857 18.3443 21.3376 18.1513 21.3368C17.9522 21.3368 17.7613 21.2577 17.6205 21.1169C17.4797 20.9761 17.4006 20.7851 17.4006 20.586C17.4085 20.3316 17.4733 20.0823 17.5902 19.8562C17.7072 19.6301 17.8732 19.4331 18.0763 19.2797C18.3762 19.0961 18.7234 19.0048 19.0748 19.0169H19.3601L18.9096 21.0215ZM20.1184 18.5664V18.5139H19.2099C18.8442 18.4797 18.4755 18.5296 18.1319 18.6597C17.7884 18.7898 17.4792 18.9967 17.2279 19.2647C16.9195 19.6495 16.7432 20.1233 16.7249 20.616C16.7112 20.7762 16.7313 20.9374 16.7838 21.0893C16.8363 21.2411 16.9201 21.3803 17.0298 21.4978C17.1395 21.6152 17.2726 21.7084 17.4205 21.7712C17.5684 21.834 17.7279 21.865 17.8886 21.8623C18.2262 21.8761 18.5565 21.7606 18.812 21.5395L18.7745 21.7948V21.8398H19.3676L19.4126 21.7948C19.5403 21.044 19.5853 20.8037 19.803 19.8352L20.1184 18.5664Z" fill="#79B82A"/>
<path d="M3.39044 21.9148C2.70724 21.9148 1.71622 21.6971 2.07659 20.1129C2.14943 19.577 2.42187 19.0882 2.83944 18.7444C3.257 18.4006 3.78894 18.2271 4.32891 18.2585C5.9656 18.2585 5.72535 19.6024 5.62024 20.0829C5.55963 20.6154 5.29506 21.1037 4.88209 21.4452C4.46912 21.7868 3.93987 21.9551 3.40546 21.9148H3.39044ZM3.63069 21.2166C4.11119 21.2166 4.33642 20.7135 4.48657 20.0679C4.58418 19.6099 4.69679 18.9492 4.1187 18.9492C3.5406 18.9492 3.40546 19.4222 3.2553 20.0679C3.10515 20.7135 3.09013 21.2166 3.63069 21.2166Z" fill="#006649"/>
<path d="M7.4073 21.8328H6.34871V21.7952C6.41628 21.585 6.55893 21.0445 6.71659 20.2937C6.84422 19.7306 6.95684 19.2426 7.00188 19.0174H6.08594V18.9723C6.13098 18.7996 6.20606 18.5068 6.25862 18.3267H6.31868H7.67758H9.09654H9.14159L8.9614 18.9723L8.90134 19.0174H8.06798C8.03044 19.16 7.93284 19.5805 7.76016 20.3312C7.63253 20.9018 7.52742 21.4199 7.46736 21.7502L7.4073 21.8328Z" fill="#006649"/>
<path d="M11.0702 19.1299H10.5146C10.5146 19.2726 10.357 19.8131 10.2368 20.3462C10.1167 20.8792 9.97407 21.5474 9.92151 21.7877H9.86145H8.75781V21.7727C8.82538 21.5024 8.99806 20.7666 9.16323 20.0309C9.3284 19.2951 9.50859 18.5969 9.50859 18.3942L9.56865 18.3491H11.1678C11.8585 18.3491 12.5342 18.3491 12.8871 18.3491C12.842 18.5293 12.6468 19.3777 12.4516 20.2261C12.3015 20.9018 12.1588 21.585 12.1213 21.7727H12.0762H11.0101C11.0702 21.5399 11.1978 21.0219 11.348 20.3462C11.4606 19.8507 11.5732 19.3101 11.6183 19.1149H11.0777" fill="#006649"/>
<path fill-rule="evenodd" clip-rule="evenodd" d="M6.73828 7.50775C6.73828 5.51657 7.52927 3.60694 8.93725 2.19897C10.3452 0.790992 12.2548 0 14.246 0V2.7178C13.296 2.72226 12.3687 3.00823 11.5812 3.53957C10.7936 4.07091 10.1813 4.82378 9.82151 5.70303C9.46173 6.58227 9.37067 7.54844 9.55983 8.47943C9.74898 9.41041 10.2099 10.2644 10.8842 10.9336C11.5586 11.6027 12.4162 12.0569 13.3486 12.2388C14.2811 12.4207 15.2465 12.3221 16.1229 11.9554C16.9993 11.5888 17.7474 10.9706 18.2726 10.179C18.7977 9.38731 19.0765 8.45775 19.0735 7.50775H21.7913C21.7913 9.49892 21.0003 11.4085 19.5923 12.8165C18.1844 14.2245 16.2747 15.0155 14.2836 15.0155C12.2924 15.0155 10.3828 14.2245 8.97479 12.8165C7.56681 11.4085 6.77582 9.49892 6.77582 7.50775" fill="#006649"/>
<path d="M10.9434 7.50745C10.9434 6.84668 11.1393 6.20074 11.5064 5.65132C11.8735 5.10191 12.3953 4.67369 13.0058 4.42082C13.6163 4.16795 14.288 4.10179 14.9361 4.2307C15.5842 4.35961 16.1795 4.67781 16.6467 5.14505C17.114 5.61229 17.4321 6.20759 17.5611 6.85567C17.69 7.50375 17.6238 8.1755 17.3709 8.78598C17.1181 9.39645 16.6899 9.91824 16.1404 10.2853C15.591 10.6525 14.9451 10.8484 14.2843 10.8484C13.3982 10.8484 12.5484 10.4964 11.9219 9.86986C11.2954 9.24331 10.9434 8.39353 10.9434 7.50745Z" fill="#79B82A"/>
<path d="M16.5957 3.29581C16.5957 2.91748 16.7078 2.54764 16.9178 2.23297C17.1279 1.9183 17.4264 1.67291 17.7758 1.52779C18.1252 1.38267 18.5098 1.34433 18.8809 1.41759C19.2521 1.49085 19.5932 1.67245 19.8613 1.93944C20.1293 2.20643 20.3122 2.54686 20.3869 2.91773C20.4617 3.28861 20.4248 3.67331 20.2811 4.02326C20.1373 4.37321 19.8931 4.67273 19.5793 4.88399C19.2654 5.09526 18.896 5.2088 18.5177 5.21028C18.0099 5.21028 17.523 5.00858 17.1639 4.64955C16.8049 4.29051 16.6032 3.80356 16.6032 3.29581" fill="#006649"/>
</svg>
