<svg width="103" height="103" viewBox="0 0 103 103" fill="none" xmlns="http://www.w3.org/2000/svg">
<g clip-path="url(#clip0)">
<path d="M90.563 21.6649C90.1041 20.6021 89.2995 19.7258 88.2798 19.1781L53.951 0.623837C52.4242 -0.207376 50.5801 -0.207979 49.0526 0.622228L14.7323 19.172C13.5034 19.8268 12.5933 20.9527 12.2111 22.2917C12.0779 22.7526 12.013 23.2303 12.0184 23.7099V60.4283C12.0166 62.3209 13.0546 64.0616 14.7206 64.9596L28.3922 72.3455C27.7905 74.4491 27.4678 76.6706 27.4678 78.9675C27.4678 92.2403 38.2275 103 51.5004 103C64.767 102.985 75.5181 92.2341 75.533 78.9675C75.533 76.6706 75.2103 74.4491 74.6086 72.3455L88.2784 64.9606C89.9452 64.0628 90.984 62.3217 90.9824 60.4285V23.7099C90.9796 23.0072 90.837 22.312 90.563 21.6649ZM50.6887 3.64131C51.1964 3.36773 51.8078 3.36833 52.3147 3.64312L86.206 21.9596L51.5 40.1284L16.7952 21.96L50.6887 3.64131ZM16.3517 61.9381C15.7967 61.6389 15.4509 61.059 15.4515 60.4285V25.1311L49.7837 43.1042V54.9967C40.7717 55.6328 33.1312 61.2368 29.5861 69.0877L16.3517 61.9381ZM51.5002 99.5667C40.1235 99.5667 30.9009 90.3441 30.9009 78.9675C30.9009 67.5908 40.1235 58.3682 51.5002 58.3682C60.4229 58.3783 68.017 64.0545 70.8804 71.9921C70.9005 72.0617 70.9239 72.1295 70.952 72.1949C71.6921 74.3159 72.0969 76.5945 72.0995 78.9675C72.0995 90.3441 62.8769 99.5667 51.5002 99.5667ZM86.6471 61.9389L73.4143 69.0877C69.8692 61.2366 62.2289 55.6328 53.2167 54.9965V43.104L87.5489 25.1309V60.4283C87.5493 61.0596 87.2029 61.6399 86.6471 61.9389Z" fill="#033347"/>
<path d="M46.3671 69.0725C45.0855 68.536 43.6421 68.536 42.3605 69.0725C41.7477 69.3302 41.1913 69.7052 40.7226 70.1765C40.2533 70.6455 39.8787 71.2003 39.6196 71.811C39.2493 72.6841 39.6568 73.6921 40.5299 74.0624C41.4029 74.4328 42.411 74.0252 42.7813 73.1522C43.0034 72.6247 43.4739 72.2425 44.0358 72.1333C44.5976 72.0238 45.177 72.2017 45.5809 72.6074C45.901 72.9289 46.0806 73.364 46.0804 73.8178V75.5344C46.0812 75.7631 46.0356 75.9894 45.9462 76.1998C45.6781 76.8365 45.0547 77.2505 44.3637 77.2509C43.4156 77.2509 42.6471 78.0196 42.6471 78.9674C42.6471 79.9155 43.4156 80.684 44.3637 80.684C44.8207 80.683 45.2593 80.8654 45.5807 81.1903C45.9008 81.5118 46.0804 81.9469 46.0802 82.4007V84.1173C46.081 84.346 46.0354 84.5723 45.946 84.7827C45.6779 85.4194 45.0543 85.8334 44.3635 85.8334C43.6727 85.8334 43.0491 85.4194 42.7809 84.7827C42.4106 83.9097 41.4025 83.5021 40.5295 83.8724C39.6564 84.2428 39.2489 85.2508 39.6192 86.1239C40.4273 88.0281 42.2947 89.2653 44.3633 89.2671C45.7292 89.2677 47.0396 88.7254 48.0054 87.7594C48.9712 86.7934 49.5137 85.4832 49.5131 84.1173V82.4007C49.5141 81.1306 49.0448 79.9089 48.2025 78.967C49.0444 78.0254 49.5137 76.8041 49.5131 75.5344V73.8178C49.5153 71.7468 48.2753 69.877 46.3671 69.0725Z" fill="#033347"/>
<path d="M55.0558 68.6787C54.1334 68.6369 53.2342 68.9748 52.568 69.6141C51.887 70.2669 51.5016 71.1687 51.5002 72.112V85.823C51.5016 86.7662 51.8872 87.6681 52.568 88.3208C53.1934 88.9243 54.029 89.2611 54.8981 89.2597C54.95 89.2597 55.0037 89.2589 55.0556 89.2563C57.0405 89.1641 63.5162 88.1498 63.5162 78.9675C63.5164 69.7851 57.0405 68.7708 55.0558 68.6787ZM54.9333 85.8232V72.1122L54.8981 72.1088C58.338 72.2681 60.0831 74.5756 60.0831 78.9677C60.0831 83.3597 58.338 85.6673 54.9333 85.8232Z" fill="#033347"/>
</g>
<defs>
<clipPath id="clip0">
<rect width="103" height="103" fill="white"/>
</clipPath>
</defs>
</svg>
