<svg width="103" height="103" viewBox="0 0 103 103" fill="none" xmlns="http://www.w3.org/2000/svg">
<path d="M96.9648 0.000201171C93.6371 0.000201171 90.9297 2.70757 90.9297 6.03534V8.04746H28.1638C27.0529 8.04746 26.1521 8.94811 26.1521 10.0592C26.1521 11.1702 27.0529 12.0709 28.1638 12.0709H98.9766V72.4223H4.02343V12.0709H10.0584C11.1692 12.0709 12.0701 11.1702 12.0701 10.0592V6.03514C12.0701 2.70737 9.36292 0 6.03514 0C2.70737 0 0 2.70737 0 6.03514V96.9646C0 100.292 2.70737 103 6.03514 103C9.36292 103 12.0701 100.292 12.0701 96.9646V76.4456H90.9297V96.9648C90.9297 100.293 93.6371 103 96.9648 103C100.293 103 103 100.293 103 96.9648V6.03514C103 2.70737 100.293 0.000201171 96.9648 0.000201171ZM4.02343 6.03514C4.02343 4.92588 4.92588 4.02343 6.03514 4.02343C7.1444 4.02343 8.04666 4.92588 8.04666 6.03514V8.04726H4.02343V6.03514ZM8.04666 96.9648C8.04666 98.0741 7.1444 98.9766 6.03514 98.9766C4.92588 98.9766 4.02343 98.0741 4.02343 96.9648V76.4456H8.04666V96.9648ZM94.9531 8.04726V6.03514C94.9531 4.92588 95.8556 4.02343 96.9648 4.02343C98.0741 4.02343 98.9766 4.92588 98.9766 6.03514V8.04726H94.9531ZM96.9648 98.9764C95.8556 98.9764 94.9531 98.0739 94.9531 96.9646V76.4456H98.9766V96.9648C98.9766 98.0739 98.0741 98.9764 96.9648 98.9764Z" fill="#033347"/>
<path d="M18.1055 62.3637H42.2461C43.357 62.3637 44.2578 61.463 44.2578 60.352V57.5358C44.2578 53.5423 47.5065 50.2936 51.5 50.2936C55.4935 50.2936 58.7422 53.5423 58.7422 57.5358V60.352C58.7422 61.463 59.643 62.3637 60.7539 62.3637H84.8945C86.0054 62.3637 86.9062 61.463 86.9062 60.352V57.5358C86.9062 38.0126 71.0231 22.1295 51.5 22.1295C31.9769 22.1295 16.0938 38.0126 16.0938 57.5358V60.352C16.0938 61.463 16.9946 62.3637 18.1055 62.3637ZM74.8359 58.3403H70.8125V57.5358C70.8125 46.8867 62.149 38.2233 51.5 38.2233C40.851 38.2233 32.1875 46.8867 32.1875 57.5358V58.3403H28.1641V57.5358C28.1641 44.6684 38.6324 34.1998 51.5 34.1998C64.3676 34.1998 74.8359 44.6684 74.8359 57.5358V58.3403ZM51.5 46.2701C45.288 46.2701 40.2344 51.324 40.2344 57.5358V58.3403H36.2109V57.5358C36.2109 49.1055 43.0697 42.2467 51.5 42.2467C59.9303 42.2467 66.7891 49.1055 66.7891 57.5358V58.3403H62.7656V57.5358C62.7656 51.3238 57.712 46.2701 51.5 46.2701ZM20.1172 57.5358C20.1172 40.2312 34.1954 26.153 51.5 26.153C68.8046 26.153 82.8828 40.2312 82.8828 57.5358V58.3403H78.8594V57.5358C78.8594 42.4497 66.5859 30.1764 51.5 30.1764C36.4141 30.1764 24.1406 42.4497 24.1406 57.5358V58.3403H20.1172V57.5358Z" fill="#033347"/>
<path d="M19.1119 12.0707C20.2228 12.0707 21.1237 11.1701 21.1237 10.059C21.1237 8.94795 20.2228 8.0473 19.1119 8.0473H19.1103C17.9995 8.0473 17.0994 8.94795 17.0994 10.059C17.0994 11.1701 18.0009 12.0707 19.1119 12.0707Z" fill="#033347"/>
</svg>
