<svg width="103" height="103" viewBox="0 0 103 103" fill="none" xmlns="http://www.w3.org/2000/svg">
<g clip-path="url(#clip0)">
<path d="M6.86667 17.1391H10.3V20.5725H6.86667C4.97018 20.5725 3.43333 22.1093 3.43333 24.0058V92.6725C3.43333 94.5689 4.97018 96.1058 6.86667 96.1058H82.4C84.2965 96.1058 85.8333 94.5689 85.8333 92.6725V89.2391H89.2667V92.6725C89.2667 96.4646 86.1921 99.5391 82.4 99.5391H6.86667C3.07455 99.5391 0 96.4646 0 92.6725V24.0058C0 20.2137 3.07455 17.1391 6.86667 17.1391Z" fill="#033347"/>
<path d="M6.86667 92.6725H10.3V89.2392H6.86667V92.6725Z" fill="#033347"/>
<path d="M13.7333 92.6725H17.1667V89.2392H13.7333V92.6725Z" fill="#033347"/>
<path d="M20.6 92.6725H24.0333V89.2392H20.6V92.6725Z" fill="#033347"/>
<path d="M13.7333 10.2725C13.7333 6.48033 16.8079 3.40578 20.6 3.40578H96.1333C99.9255 3.40578 103 6.48033 103 10.2725V78.9391C103 82.7312 99.9255 85.8058 96.1333 85.8058H20.6C16.8079 85.8058 13.7333 82.7312 13.7333 78.9391V10.2725ZM17.1667 78.9391C17.1667 80.8356 18.7035 82.3725 20.6 82.3725H96.1333C98.0298 82.3725 99.5667 80.8356 99.5667 78.9391V10.2725C99.5667 8.37596 98.0298 6.83912 96.1333 6.83912H20.6C18.7035 6.83912 17.1667 8.37596 17.1667 10.2725V78.9391Z" fill="#033347"/>
<path d="M20.6 78.9391H24.0333V75.5058H20.6V78.9391Z" fill="#033347"/>
<path d="M27.4666 78.9391H30.9V75.5058H27.4666V78.9391Z" fill="#033347"/>
<path d="M34.3333 78.9391H37.7667V75.5058H34.3333V78.9391Z" fill="#033347"/>
<path d="M20.6 72.0724H96.1333V68.6391H20.6V72.0724Z" fill="#033347"/>
<path d="M20.6 63.4891H34.3333V60.0557H20.6V63.4891Z" fill="#033347"/>
<path d="M20.6 56.6225H30.9V53.1892H20.6V56.6225Z" fill="#033347"/>
<path d="M58.3667 49.7558C51.7296 49.7558 46.35 44.3762 46.35 37.7391C46.35 31.1021 51.7296 25.7225 58.3667 25.7225C65.0037 25.7225 70.3833 31.1021 70.3833 37.7391C70.3756 44.3723 64.9999 49.7481 58.3667 49.7558ZM58.3667 29.1558C53.6265 29.1558 49.7833 32.999 49.7833 37.7391C49.7833 42.4793 53.6265 46.3225 58.3667 46.3225C63.1068 46.3225 66.95 42.4793 66.95 37.7391C66.944 33.0011 63.1047 29.1618 58.3667 29.1558Z" fill="#033347"/>
<path d="M85.8333 42.8891C85.8333 43.8376 85.0651 44.6058 84.1167 44.6058H79.5795C79.216 45.7337 78.7628 46.831 78.2216 47.8846L81.4301 51.0909C82.0996 51.7617 82.0996 52.848 81.4301 53.5187L74.1463 60.8026C73.4755 61.4721 72.3892 61.4721 71.7185 60.8026L68.5122 57.5958C67.4568 58.1349 66.3603 58.5881 65.2333 58.952V63.4891C65.2333 64.4376 64.4651 65.2058 63.5167 65.2058H53.2167C52.2682 65.2058 51.5 64.4376 51.5 63.4891V58.952C50.373 58.5881 49.2765 58.1349 48.2212 57.5958L45.0149 60.8026C44.3441 61.4721 43.2578 61.4721 42.5871 60.8026L35.3032 53.5187C34.6337 52.848 34.6337 51.7617 35.3032 51.0909L38.51 47.8846C38.3666 47.6035 38.2284 47.3216 38.098 47.0366C37.7358 46.2452 37.4208 45.4341 37.1538 44.6058H32.6167C31.6682 44.6058 30.9 43.8376 30.9 42.8891V32.5891C30.9 31.6407 31.6682 30.8725 32.6167 30.8725H37.1538C37.5173 29.7446 37.9705 28.6472 38.5117 27.5936L35.3032 24.3873C34.6337 23.7165 34.6337 22.6303 35.3032 21.9595L42.5871 14.6757C43.2578 14.0062 44.3441 14.0062 45.0149 14.6757L48.2212 17.8824C49.2765 17.3434 50.373 16.8902 51.5 16.5263V11.9891C51.5 11.0407 52.2682 10.2725 53.2167 10.2725H63.5167C64.4651 10.2725 65.2333 11.0407 65.2333 11.9891V16.5263C66.3603 16.8902 67.4568 17.3434 68.5122 17.8824L71.7185 14.6757C72.3892 14.0062 73.4755 14.0062 74.1463 14.6757L81.4301 21.9595C82.0996 22.6303 82.0996 23.7165 81.4301 24.3873L78.2216 27.5936C78.7628 28.6472 79.216 29.7446 79.5795 30.8725H84.1167C85.0651 30.8725 85.8333 31.6407 85.8333 32.5891V42.8891ZM82.4 34.3058H78.2903C77.5075 34.3058 76.8243 33.7758 76.6286 33.0183C76.1899 31.3145 75.514 29.6794 74.6201 28.1636C74.2222 27.4898 74.3317 26.6314 74.8844 26.0778L77.7869 23.1736L72.9321 18.3168L70.028 21.2214C69.4739 21.775 68.6156 21.884 67.9414 21.4857C66.4255 20.5918 64.7913 19.9154 63.0875 19.4772C62.33 19.2815 61.8 18.5983 61.8 17.8155V13.7058H54.9333V17.8155C54.9333 18.5983 54.4033 19.2815 53.6458 19.4772C51.942 19.9154 50.3078 20.5918 48.792 21.4857C48.1177 21.884 47.2594 21.775 46.7053 21.2214L43.8012 18.3168L38.9464 23.1736L41.8489 26.0778C42.4017 26.6314 42.5111 27.4898 42.1133 28.1636C41.2193 29.6794 40.5434 31.3145 40.1048 33.0183C39.9091 33.7758 39.2258 34.3058 38.443 34.3058H34.3333V41.1725H38.443C39.2258 41.1725 39.9091 41.7025 40.1048 42.46C40.382 43.5406 40.7558 44.5929 41.221 45.6062C41.4893 46.1937 41.7871 46.7667 42.1133 47.3229C42.5098 47.9971 42.4012 48.8541 41.8489 49.4073L38.9464 52.3115L43.8012 57.1684L46.7053 54.2629C47.2594 53.7093 48.1177 53.6011 48.792 53.9998C50.3078 54.8929 51.942 55.5702 53.6458 56.0083C54.4033 56.2036 54.9333 56.8877 54.9333 57.6692V61.7725H61.8V57.6628C61.8 56.88 62.33 56.1967 63.0875 56.001C64.7913 55.5629 66.4255 54.8865 67.9414 53.9925C68.6156 53.5943 69.4739 53.7033 70.028 54.2569L72.9321 57.1615L77.7869 52.3046L74.8844 49.4005C74.3317 48.8468 74.2222 47.9885 74.6201 47.3147C75.514 45.7989 76.1899 44.1638 76.6286 42.46C76.8243 41.7025 77.5075 41.1725 78.2903 41.1725H82.4V34.3058Z" fill="#033347"/>
<path d="M85.8333 13.7058H96.1333V10.2725H85.8333V13.7058Z" fill="#033347"/>
</g>
<defs>
<clipPath id="clip0">
<rect width="103" height="103" transform="matrix(1 0 0 -1 0 103)" fill="white"/>
</clipPath>
</defs>
</svg>
