<svg width="23" height="23" viewBox="0 0 23 23" fill="none" xmlns="http://www.w3.org/2000/svg">
<g clip-path="url(#clip0)">
<path d="M13.1596 11.0454C13.1596 12.2131 12.2131 13.1596 11.0454 13.1596C9.8778 13.1596 8.93127 12.2131 8.93127 11.0454C8.93127 9.8778 9.8778 8.93127 11.0454 8.93127C12.2131 8.93127 13.1596 9.8778 13.1596 11.0454Z" fill="#033347"/>
<path d="M15.9897 7.30488C15.8881 7.02948 15.726 6.78021 15.5153 6.5756C15.3107 6.36493 15.0616 6.20279 14.786 6.10116C14.5625 6.01437 14.2268 5.91105 13.6084 5.8829C12.9395 5.8524 12.7389 5.84583 11.0454 5.84583C9.35179 5.84583 9.15122 5.85223 8.48245 5.88274C7.86408 5.91105 7.52818 6.01437 7.30486 6.10116C7.0293 6.20279 6.78003 6.36493 6.57559 6.5756C6.36491 6.78021 6.20278 7.02932 6.10098 7.30488C6.01418 7.52836 5.91087 7.86426 5.88272 8.48264C5.85222 9.15141 5.84564 9.35197 5.84564 11.0456C5.84564 12.7391 5.85222 12.9397 5.88272 13.6086C5.91087 14.227 6.01418 14.5627 6.10098 14.7862C6.20278 15.0618 6.36475 15.3109 6.57542 15.5155C6.78003 15.7262 7.02913 15.8883 7.3047 15.9899C7.52818 16.0769 7.86408 16.1802 8.48245 16.2084C9.15122 16.2389 9.35162 16.2453 11.0453 16.2453C12.7391 16.2453 12.9397 16.2389 13.6083 16.2084C14.2266 16.1802 14.5625 16.0769 14.786 15.9899C15.3392 15.7766 15.7764 15.3394 15.9897 14.7862C16.0765 14.5627 16.1799 14.227 16.2082 13.6086C16.2387 12.9397 16.2451 12.7391 16.2451 11.0456C16.2451 9.35197 16.2387 9.15141 16.2082 8.48264C16.18 7.86426 16.0767 7.52836 15.9897 7.30488ZM11.0454 14.3023C9.24662 14.3023 7.78841 12.8443 7.78841 11.0455C7.78841 9.24663 9.24662 7.78859 11.0454 7.78859C12.8441 7.78859 14.3023 9.24663 14.3023 11.0455C14.3023 12.8443 12.8441 14.3023 11.0454 14.3023ZM14.4311 8.42095C14.0107 8.42095 13.67 8.08016 13.67 7.65982C13.67 7.23948 14.0107 6.8987 14.4311 6.8987C14.8514 6.8987 15.1922 7.23948 15.1922 7.65982C15.192 8.08016 14.8514 8.42095 14.4311 8.42095Z" fill="#033347"/>
<path d="M11.0455 0C4.94615 0 0 4.94615 0 11.0455C0 17.1448 4.94615 22.0909 11.0455 22.0909C17.1448 22.0909 22.0909 17.1448 22.0909 11.0455C22.0909 4.94615 17.1448 0 11.0455 0ZM17.3497 13.6604C17.319 14.3355 17.2117 14.7965 17.0549 15.2C16.7254 16.0519 16.0519 16.7254 15.2 17.0549C14.7967 17.2117 14.3355 17.3189 13.6605 17.3497C12.9842 17.3805 12.7681 17.388 11.0456 17.388C9.32297 17.388 9.10707 17.3805 8.43055 17.3497C7.75555 17.3189 7.29442 17.2117 6.89111 17.0549C6.46773 16.8957 6.08447 16.646 5.76762 16.3233C5.44503 16.0066 5.19542 15.6232 5.03615 15.2C4.87941 14.7967 4.77205 14.3355 4.74137 13.6605C4.7102 12.984 4.70295 12.7679 4.70295 11.0455C4.70295 9.32297 4.7102 9.1069 4.74121 8.43055C4.77188 7.75538 4.87907 7.29442 5.03581 6.89094C5.19509 6.46773 5.44486 6.0843 5.76762 5.76762C6.0843 5.44486 6.46773 5.19525 6.89094 5.03598C7.29442 4.87924 7.75538 4.77205 8.43055 4.74121C9.1069 4.71036 9.32297 4.70295 11.0455 4.70295C12.7679 4.70295 12.984 4.71036 13.6604 4.74137C14.3355 4.77205 14.7965 4.87924 15.2 5.03581C15.6232 5.19509 16.0066 5.44486 16.3235 5.76762C16.646 6.08447 16.8958 6.46773 17.0549 6.89094C17.2118 7.29442 17.319 7.75538 17.3499 8.43055C17.3807 9.1069 17.388 9.32297 17.388 11.0455C17.388 12.7679 17.3807 12.984 17.3497 13.6604Z" fill="#033347"/>
</g>
<defs>
<clipPath id="clip0">
<rect width="22.0909" height="22.0909" fill="white"/>
</clipPath>
</defs>
</svg>
