<svg width="22" height="22" viewBox="0 0 22 22" fill="none" xmlns="http://www.w3.org/2000/svg">
<path d="M21.5407 4.08873C18.5213 6.64585 13.2232 11.1446 11.666 12.5473C11.457 12.7366 11.2327 12.8329 11 12.8329C10.7677 12.8329 10.5439 12.7375 10.3353 12.5491C8.77678 11.145 3.47865 6.64585 0.459194 4.08873C0.271206 3.92984 0.242546 3.65054 0.394741 3.45628C0.746569 3.00738 1.27113 2.75 1.83333 2.75L20.1666 2.75C20.7288 2.75 21.2534 3.00738 21.6052 3.45632C21.7574 3.65054 21.7287 3.92984 21.5407 4.08873Z" fill="#033347"/>
<path d="M0.265848 5.47437C0.428312 5.39875 0.619438 5.42513 0.754618 5.54063C4.10309 8.37923 8.37667 12.0177 9.72125 13.2293C10.4759 13.9106 11.5233 13.9106 12.2797 13.2284C13.7129 11.9371 18.512 7.85733 21.2454 5.54059C21.3815 5.42509 21.573 5.39961 21.7342 5.47433C21.8961 5.54957 22 5.7116 22 5.89018L22 17.4165C22 18.4277 21.1778 19.2499 20.1667 19.2499L1.8333 19.2499C0.822206 19.2499 0 18.4277 0 17.4165L0 5.89018C0 5.7116 0.103855 5.54914 0.265848 5.47437Z" fill="#033347"/>
</svg>
