<svg width="25" height="25" viewBox="0 0 25 25" fill="none" xmlns="http://www.w3.org/2000/svg">
<path d="M24.3571 19.8795C24.3571 20.1908 24.2995 20.6003 24.1842 21.1077C24.0688 21.6036 23.9477 21.9957 23.8209 22.284C23.5787 22.8607 22.8752 23.4719 21.7104 24.1177C20.6263 24.7059 19.5538 25 18.4927 25C18.1814 25 17.8757 24.9827 17.5759 24.9481C17.2876 24.902 16.9589 24.827 16.5898 24.7232C16.2208 24.6194 15.944 24.5387 15.7595 24.481C15.5865 24.4118 15.2693 24.2907 14.808 24.1177C14.3467 23.9448 14.0642 23.841 13.9604 23.8064C12.8302 23.4027 11.8211 22.9241 10.933 22.3705C9.45685 21.4594 7.92876 20.2197 6.34877 18.6512C4.78032 17.0712 3.54055 15.5432 2.62946 14.067C2.07589 13.1789 1.59728 12.1698 1.19364 11.0396C1.15904 10.9358 1.05525 10.6533 0.882255 10.192C0.709263 9.73065 0.58817 9.4135 0.518973 9.24051C0.46131 9.05599 0.38058 8.7792 0.276786 8.41016C0.172991 8.04111 0.0980283 7.71242 0.0518973 7.42411C0.0172991 7.12426 0 6.81864 0 6.50725C0 5.44624 0.294085 4.3737 0.882255 3.28962C1.52809 2.12481 2.13932 1.42132 2.71596 1.17913C3.00428 1.05227 3.39639 0.931175 3.8923 0.815847C4.39974 0.70052 4.80915 0.642856 5.12054 0.642856C5.28199 0.642856 5.40309 0.660155 5.48382 0.694753C5.69141 0.76395 5.99702 1.20219 6.40067 2.00949C6.52753 2.22861 6.70052 2.53999 6.91964 2.94364C7.13877 3.34728 7.34059 3.71633 7.52511 4.05078C7.70964 4.3737 7.88839 4.67932 8.06138 4.96763C8.09598 5.01376 8.19401 5.15792 8.35547 5.40011C8.52846 5.6423 8.65532 5.84989 8.73605 6.02288C8.81678 6.18434 8.85714 6.3458 8.85714 6.50725C8.85714 6.73791 8.68992 7.02623 8.35547 7.37221C8.03255 7.71819 7.67504 8.03534 7.28292 8.32366C6.90234 8.61198 6.54483 8.9176 6.21038 9.24051C5.88746 9.56343 5.726 9.82868 5.726 10.0363C5.726 10.1401 5.75484 10.2727 5.8125 10.4342C5.87016 10.5841 5.91629 10.6994 5.95089 10.7801C5.99702 10.8609 6.07775 10.9993 6.19308 11.1953C6.31994 11.3914 6.38914 11.5009 6.40067 11.524C7.27716 13.104 8.28051 14.4591 9.41071 15.5893C10.5409 16.7195 11.896 17.7228 13.476 18.5993C13.4991 18.6109 13.6086 18.6801 13.8047 18.8069C14.0007 18.9222 14.1391 19.003 14.2199 19.0491C14.3006 19.0837 14.4159 19.1298 14.5658 19.1875C14.7273 19.2452 14.8599 19.274 14.9637 19.274C15.1713 19.274 15.4366 19.1125 15.7595 18.7896C16.0824 18.4552 16.388 18.0977 16.6763 17.7171C16.9647 17.325 17.2818 16.9674 17.6278 16.6445C17.9738 16.3101 18.2621 16.1429 18.4927 16.1429C18.6542 16.1429 18.8157 16.1832 18.9771 16.264C19.1501 16.3447 19.3577 16.4715 19.5999 16.6445C19.8421 16.806 19.9862 16.904 20.0324 16.9386C20.3207 17.1116 20.6263 17.2904 20.9492 17.4749C21.2837 17.6594 21.6527 17.8612 22.0564 18.0804C22.46 18.2995 22.7714 18.4725 22.9905 18.5993C23.7978 19.003 24.236 19.3086 24.3052 19.5162C24.3398 19.5969 24.3571 19.718 24.3571 19.8795Z" fill="#033347"/>
</svg>
