<svg width="103" height="103" viewBox="0 0 103 103" fill="none" xmlns="http://www.w3.org/2000/svg">
<path d="M51.5 103C23.103 103 0 79.897 0 51.5C0 23.103 23.103 7.62939e-06 51.5 7.62939e-06C79.897 7.62939e-06 103 23.103 103 51.5C103 79.897 79.897 103 51.5 103ZM51.5 3.55046C25.0602 3.55046 3.55046 25.0602 3.55046 51.5C3.55046 77.9398 25.0602 99.4495 51.5 99.4495C77.9398 99.4495 99.4495 77.9398 99.4495 51.5C99.4495 25.0602 77.9398 3.55046 51.5 3.55046Z" fill="#033347"/>
<path d="M102.829 55.1097C102.296 62.8015 100.107 70.0936 96.3249 76.7846L95.824 77.6709H37.9908C30.5275 77.6709 24.457 71.5994 24.457 64.1361V53.2445H102.96L102.829 55.1097ZM27.9462 56.7342V64.1361C27.9462 69.6755 32.452 74.1813 37.9908 74.1813H93.7768C96.7062 68.7396 98.5208 62.8823 99.1838 56.7342H27.9462Z" fill="#033347"/>
<path d="M37.542 70.6922C34.1745 70.6922 31.4353 67.9519 31.4353 64.5855C31.4353 61.219 34.1745 58.4788 37.542 58.4788C40.9095 58.4788 43.6487 61.219 43.6487 64.5855C43.6487 67.9519 40.9095 70.6922 37.542 70.6922ZM37.542 61.9684C36.099 61.9684 34.9249 63.1425 34.9249 64.5855C34.9249 66.0285 36.099 67.2026 37.542 67.2026C38.985 67.2026 40.1591 66.0285 40.1591 64.5855C40.1591 63.1425 38.985 61.9684 37.542 61.9684Z" fill="#033347"/>
<path d="M51.5 70.6922C48.1325 70.6922 45.3933 67.9519 45.3933 64.5855C45.3933 61.219 48.1325 58.4788 51.5 58.4788C54.8675 58.4788 57.6067 61.219 57.6067 64.5855C57.6067 67.9519 54.8675 70.6922 51.5 70.6922ZM51.5 61.9684C50.057 61.9684 48.8829 63.1425 48.8829 64.5855C48.8829 66.0285 50.057 67.2026 51.5 67.2026C52.943 67.2026 54.1171 66.0285 54.1171 64.5855C54.1171 63.1425 52.943 61.9684 51.5 61.9684Z" fill="#033347"/>
<path d="M65.458 70.7219C62.0742 70.7219 59.3216 67.9693 59.3216 64.5855C59.3216 61.2017 62.0742 58.4491 65.458 58.4491C68.8418 58.4491 71.5944 61.2017 71.5944 64.5855C71.5939 67.9693 68.8418 70.7219 65.458 70.7219ZM65.458 61.9981C64.0319 61.9981 62.8706 63.1584 62.8706 64.5855C62.8706 66.0126 64.0319 67.1729 65.458 67.1729C66.8841 67.1729 68.0455 66.0126 68.0455 64.5855C68.0455 63.1584 66.8841 61.9981 65.458 61.9981Z" fill="#033347"/>
<path d="M102.83 55.1107L102.717 56.7341H24.4565V7.70043L25.3122 7.19336C33.2238 2.50713 42.2788 0.0306015 51.4995 0.0306015C79.8801 0.0306015 102.969 23.1203 102.969 51.4999C102.969 52.5897 102.925 53.7378 102.83 55.1107ZM51.5 3.51972C43.2352 3.51972 35.1135 5.65377 27.9462 9.70056V53.2445H99.4419C99.4669 52.626 99.4802 52.0535 99.4802 51.4999C99.4802 25.0438 77.9562 3.51972 51.5 3.51972Z" fill="#033347"/>
<path d="M50.6274 46.2659C43.893 46.2659 38.4145 40.7874 38.4145 34.0529C38.4145 27.3185 43.893 21.84 50.6274 21.84C57.3619 21.84 62.8404 27.3185 62.8404 34.0529C62.8404 40.7874 57.3624 46.2659 50.6274 46.2659ZM50.6274 25.3291C45.817 25.3291 41.9036 29.2425 41.9036 34.0529C41.9036 38.8634 45.817 42.7768 50.6274 42.7768C55.4379 42.7768 59.3513 38.8634 59.3513 34.0529C59.3513 29.2425 55.4379 25.3291 50.6274 25.3291Z" fill="#033347"/>
<path d="M71.0531 16.0941L59.7122 27.435C59.0318 28.1164 57.9257 28.1164 57.2453 27.435C56.564 26.7537 56.564 25.6491 57.2453 24.9682L68.5862 13.6273C68.9267 13.2864 69.3729 13.1162 69.8197 13.1162C70.2664 13.1162 70.7132 13.2864 71.0531 13.6273C71.7344 14.3087 71.7344 15.4128 71.0531 16.0941Z" fill="#033347"/>
</svg>
