<svg width="23" height="23" viewBox="0 0 23 23" fill="none" xmlns="http://www.w3.org/2000/svg">
<g clip-path="url(#clip0)">
<path d="M11.0453 22.0916C17.1455 22.0916 22.0906 17.1464 22.0906 11.0462C22.0906 4.94608 17.1455 0.000915527 11.0453 0.000915527C4.94516 0.000915527 0 4.94608 0 11.0462C0 17.1464 4.94516 22.0916 11.0453 22.0916Z" fill="#033347"/>
<path d="M22.0909 11.0455C22.0909 10.7764 22.0808 10.5097 22.0619 10.2454L17.4841 5.66766L4.60681 10.733L9.53373 15.66L9.59836 15.8926L9.68202 15.8083L9.68237 15.8086L9.59836 15.8926L15.0485 21.3427C19.1698 19.7394 22.0909 15.7338 22.0909 11.0455Z" fill="#033347"/>
<path d="M9.97276 12.6548L14.9644 16.4235L17.4841 5.66766L4.60678 10.733L8.5252 12.0309L15.6764 7.23405L9.97276 12.6548Z" fill="white"/>
<path d="M8.52518 12.0309L9.59836 15.8927L9.97274 12.6548L15.6764 7.23407L8.52518 12.0309Z" fill="#D2D2D7"/>
<path d="M11.5951 13.8796L9.59842 15.8927L9.9728 12.6548L11.5951 13.8796Z" fill="#033347"/>
</g>
<defs>
<clipPath id="clip0">
<rect width="22.0909" height="22.0909" fill="white"/>
</clipPath>
</defs>
</svg>
