<svg width="23" height="23" viewBox="0 0 23 23" fill="none" xmlns="http://www.w3.org/2000/svg">
<g clip-path="url(#clip0)">
<path d="M11.0455 22.0909C17.1457 22.0909 22.0909 17.1457 22.0909 11.0455C22.0909 4.94522 17.1457 0 11.0455 0C4.94522 0 0 4.94522 0 11.0455C0 17.1457 4.94522 22.0909 11.0455 22.0909Z" fill="#033347"/>
<path fill-rule="evenodd" clip-rule="evenodd" d="M10.6282 15.8899H11.4952C11.4952 15.8899 11.757 15.8611 11.8907 15.717C12.0138 15.5847 12.0099 15.3362 12.0099 15.3362C12.0099 15.3362 11.9929 14.1729 12.5328 14.0016C13.065 13.8329 13.7484 15.1259 14.4728 15.6231C15.0206 15.9993 15.4368 15.9168 15.4368 15.9168L17.3737 15.8899C17.3737 15.8899 18.3869 15.8274 17.9065 15.0308C17.8671 14.9656 17.6267 14.4415 16.4664 13.3645C15.2519 12.2372 15.4146 12.4196 16.8775 10.4697C17.7685 9.28224 18.1247 8.55726 18.0134 8.24676C17.9073 7.95102 17.252 8.02919 17.252 8.02919L15.0712 8.04278C15.0712 8.04278 14.9095 8.02072 14.7896 8.09239C14.6725 8.16269 14.5971 8.3265 14.5971 8.3265C14.5971 8.3265 14.2519 9.24542 13.7916 10.0269C12.8205 11.6759 12.4322 11.7629 12.2735 11.6605C11.9043 11.4219 11.9965 10.7019 11.9965 10.1903C11.9965 8.59231 12.2388 7.92602 11.5245 7.75354C11.2874 7.69624 11.113 7.65844 10.5068 7.65233C9.72862 7.64426 9.07001 7.65469 8.69709 7.83741C8.449 7.9589 8.25762 8.22963 8.37418 8.24519C8.51831 8.26448 8.84476 8.3332 9.01783 8.56888C9.24131 8.87289 9.23343 9.55572 9.23343 9.55572C9.23343 9.55572 9.36181 11.4369 8.93356 11.6706C8.6396 11.8309 8.23635 11.5036 7.3706 10.0076C6.927 9.24128 6.59208 8.39424 6.59208 8.39424C6.59208 8.39424 6.5275 8.23593 6.41231 8.15127C6.27252 8.04868 6.07719 8.016 6.07719 8.016L4.00487 8.02958C4.00487 8.02958 3.69377 8.03825 3.57957 8.17352C3.47798 8.29382 3.5715 8.54269 3.5715 8.54269C3.5715 8.54269 5.19392 12.3385 7.03096 14.2513C8.7154 16.005 10.6282 15.8899 10.6282 15.8899Z" fill="white"/>
</g>
<defs>
<clipPath id="clip0">
<rect width="22.0909" height="22.0909" fill="white"/>
</clipPath>
</defs>
</svg>
